<svg width="20" height="23" viewBox="0 0 20 23" fill="none" xmlns="http://www.w3.org/2000/svg">
    <path d="M2.125 22H17.875C18.4953 22 19 21.5583 19 21.0156V7.23438C19 7.22322 18.994 7.21403 18.9932 7.20353C18.9917 7.18844 18.9873 7.17531 18.9835 7.16087C18.9717 7.11528 18.9487 7.0725 18.916 7.03553C18.9107 7.02962 18.9115 7.02241 18.9062 7.0165L12.9062 1.11025C12.904 1.10828 12.901 1.10828 12.8988 1.10631C12.853 1.06445 12.7952 1.03408 12.7315 1.01837C12.7172 1.01444 12.7045 1.01313 12.6895 1.01116C12.6678 1.00788 12.6475 1 12.625 1H2.125C1.50475 1 1 1.44166 1 1.98438V21.0156C1 21.5583 1.50475 22 2.125 22ZM13 2.19109L17.7902 6.90625H13.375C13.21 6.90625 13 6.63062 13 6.41406V2.19109ZM1.75 1.98438C1.75 1.89735 1.78951 1.81389 1.85983 1.75236C1.93016 1.69082 2.02554 1.65625 2.125 1.65625H12.25V6.41406C12.25 6.94497 12.7413 7.5625 13.375 7.5625H18.25V21.0156C18.25 21.1026 18.2105 21.1861 18.1402 21.2476C18.0698 21.3092 17.9745 21.3438 17.875 21.3438H2.125C1.915 21.3438 1.75 21.1994 1.75 21.0156V1.98438Z" fill="#6F2D8D" stroke="#6F2D8D"/>
    <path d="M4.39286 12H14.6071C14.7113 12 14.8113 11.9473 14.8849 11.8536C14.9586 11.7598 15 11.6326 15 11.5C15 11.3674 14.9586 11.2402 14.8849 11.1464C14.8113 11.0527 14.7113 11 14.6071 11H4.39286C4.28866 11 4.18874 11.0527 4.11507 11.1464C4.04139 11.2402 4 11.3674 4 11.5C4 11.6326 4.04139 11.7598 4.11507 11.8536C4.18874 11.9473 4.28866 12 4.39286 12Z" fill="#6F2D8D"/>
    <path d="M4.39286 16H14.6071C14.7113 16 14.8113 15.9473 14.8849 15.8536C14.9586 15.7598 15 15.6326 15 15.5C15 15.3674 14.9586 15.2402 14.8849 15.1464C14.8113 15.0527 14.7113 15 14.6071 15H4.39286C4.28866 15 4.18874 15.0527 4.11507 15.1464C4.04139 15.2402 4 15.3674 4 15.5C4 15.6326 4.04139 15.7598 4.11507 15.8536C4.18874 15.9473 4.28866 16 4.39286 16Z" fill="#6F2D8D"/>
    <path d="M4.42857 8H9.57143C9.68509 8 9.7941 7.94732 9.87447 7.85355C9.95485 7.75979 10 7.63261 10 7.5C10 7.36739 9.95485 7.24021 9.87447 7.14645C9.7941 7.05268 9.68509 7 9.57143 7H4.42857C4.31491 7 4.2059 7.05268 4.12553 7.14645C4.04515 7.24021 4 7.36739 4 7.5C4 7.63261 4.04515 7.75979 4.12553 7.85355C4.2059 7.94732 4.31491 8 4.42857 8Z" fill="#6F2D8D"/>
</svg>
