<svg width="15" height="17" viewBox="0 0 15 17" fill="none" xmlns="http://www.w3.org/2000/svg">
    <path d="M7.5 9C8.39001 9 9.26004 8.73608 10.0001 8.24161C10.7401 7.74715 11.3169 7.04434 11.6575 6.22208C11.998 5.39981 12.0872 4.49501 11.9135 3.62209C11.7399 2.74918 11.3113 1.94736 10.682 1.31802C10.0526 0.688685 9.25082 0.260102 8.37791 0.0864682C7.50499 -0.0871652 6.60019 0.00194977 5.77792 0.342544C4.95566 0.683138 4.25285 1.25991 3.75839 1.99994C3.26392 2.73996 3 3.60999 3 4.5C3 5.69347 3.47411 6.83807 4.31802 7.68198C5.16193 8.52589 6.30652 9 7.5 9ZM7.5 1.28572C8.13572 1.28572 8.75717 1.47423 9.28576 1.82742C9.81435 2.18061 10.2263 2.68261 10.4696 3.26995C10.7129 3.85728 10.7765 4.50357 10.6525 5.12708C10.5285 5.75059 10.2224 6.32332 9.77284 6.77284C9.32332 7.22237 8.75059 7.5285 8.12708 7.65252C7.50356 7.77655 6.85728 7.71289 6.26995 7.46961C5.68261 7.22633 5.18061 6.81435 4.82742 6.28576C4.47423 5.75718 4.28571 5.13573 4.28571 4.5C4.28571 3.64752 4.62436 2.82995 5.22716 2.22716C5.82995 1.62436 6.64752 1.28572 7.5 1.28572Z" fill="#6F2D8D"/>
    <path d="M8.125 9H6.875C5.05164 9 3.30295 9.77262 2.01364 11.1479C0.724328 12.5231 0 14.3884 0 16.3333C0 16.5101 0.0658481 16.6797 0.183058 16.8047C0.300269 16.9298 0.45924 17 0.625 17H14.375C14.5408 17 14.6997 16.9298 14.8169 16.8047C14.9342 16.6797 15 16.5101 15 16.3333C15 14.3884 14.2757 12.5231 12.9864 11.1479C11.697 9.77262 9.94836 9 8.125 9ZM1.2875 15.6667C1.44118 14.2004 2.09594 12.846 3.12667 11.8621C4.1574 10.8783 5.49184 10.334 6.875 10.3333H8.125C9.50816 10.334 10.8426 10.8783 11.8733 11.8621C12.9041 12.846 13.5588 14.2004 13.7125 15.6667H1.2875Z" fill="#6F2D8D"/>
</svg>
