<svg width="18" height="20" viewBox="0 0 18 20" fill="none" xmlns="http://www.w3.org/2000/svg">
    <path d="M7.7025 17.7H6.72234L7.29772 18.4935C7.48555 18.7526 7.74573 18.9553 8.04208 19.0918C8.33856 19.2284 8.66853 19.2979 9 19.2979C9.33147 19.2979 9.66144 19.2284 9.95792 19.0918C10.2543 18.9553 10.5144 18.7526 10.7023 18.4935L11.2777 17.7H10.2975H7.7025ZM9 19.5C8.3053 19.5 7.65563 19.2783 7.19103 18.9066C6.73019 18.538 6.50086 18.0651 6.5 17.6026C6.50023 17.6021 6.50058 17.6013 6.5011 17.6003C6.50383 17.595 6.51202 17.5822 6.53202 17.5662C6.57466 17.5321 6.65203 17.5 6.75 17.5H11.25C11.348 17.5 11.4253 17.5321 11.468 17.5662C11.488 17.5822 11.4962 17.595 11.4989 17.6003C11.4994 17.6013 11.4998 17.6021 11.5 17.6026C11.4991 18.0651 11.2698 18.538 10.809 18.9066C10.3444 19.2783 9.6947 19.5 9 19.5Z" stroke="#6F2D8D"/>
    <path d="M10.3333 3H7.66667C7.48986 3 7.32029 2.92098 7.19526 2.78033C7.07024 2.63968 7 2.44891 7 2.25C7 1.65326 7.21071 1.08097 7.58579 0.65901C7.96086 0.237053 8.46957 0 9 0C9.53043 0 10.0391 0.237053 10.4142 0.65901C10.7893 1.08097 11 1.65326 11 2.25C11 2.44891 10.9298 2.63968 10.8047 2.78033C10.6797 2.92098 10.5101 3 10.3333 3Z" fill="#6F2D8D"/>
    <path d="M17.2499 18H0.749998C0.551086 18 0.360322 17.9197 0.219671 17.7768C0.079019 17.634 1.58329e-06 17.4402 1.58329e-06 17.2381C-0.000656163 16.3776 0.203631 15.5298 0.595426 14.7669C0.987222 14.0041 1.55489 13.3488 2.24999 12.8571V8.85714C2.24995 7.04641 2.95493 5.30916 4.21107 4.0245C5.46722 2.73984 7.17256 2.01207 8.95496 2H9.03746C10.8277 2 12.5445 2.72245 13.8104 4.00841C15.0763 5.29437 15.7874 7.03852 15.7874 8.85714V12.8571C16.4756 13.353 17.036 14.0101 17.4211 14.7727C17.8063 15.5353 18.0048 16.381 17.9999 17.2381C17.9999 17.4402 17.9209 17.634 17.7802 17.7768C17.6396 17.9197 17.4488 18 17.2499 18ZM1.57499 16.4762H16.4249C16.3187 15.948 16.1033 15.4487 15.793 15.0113C15.4827 14.574 15.0846 14.2085 14.6249 13.939C14.5105 13.8719 14.4155 13.7753 14.3497 13.6589C14.2838 13.5425 14.2494 13.4104 14.2499 13.2762V8.85714C14.2499 7.44266 13.6968 6.0861 12.7122 5.08591C11.7277 4.08571 10.3923 3.52381 8.99996 3.52381C7.60758 3.52381 6.27223 4.08571 5.28766 5.08591C4.3031 6.0861 3.74998 7.44266 3.74998 8.85714V13.2762C3.75051 13.4104 3.7161 13.5425 3.65025 13.6589C3.5844 13.7753 3.48944 13.8719 3.37498 13.939C2.91532 14.2085 2.51718 14.574 2.20689 15.0113C1.8966 15.4487 1.68122 15.948 1.57499 16.4762Z" fill="#6F2D8D"/>
</svg>
