<svg width="16" height="16" viewBox="0 0 16 16" fill="none" xmlns="http://www.w3.org/2000/svg">
    <path d="M11.2137 1.92165C8.65197 -0.640549 4.48346 -0.640549 1.92142 1.92165C-0.640472 4.48346 -0.640472 8.65185 1.92142 11.2135C4.3955 13.6877 8.3675 13.7719 10.9443 11.4676L11.4652 11.9886C11.3355 12.3208 11.4034 12.7119 11.6715 12.9802L14.4202 15.7289C14.7817 16.0904 15.3678 16.0903 15.7289 15.7289C16.0904 15.3676 16.0904 14.7816 15.7289 14.4201L12.9803 11.6719C12.7121 11.4037 12.3206 11.3357 11.9887 11.4655L11.4678 10.9444C13.7724 8.36734 13.6878 4.39542 11.2137 1.92165ZM2.70674 10.4287C0.577807 8.29976 0.577807 4.83578 2.70674 2.70685C4.83566 0.57773 8.29972 0.577923 10.4286 2.70685C12.5576 4.83578 12.5576 8.29991 10.4286 10.4288C8.29972 12.5578 4.83563 12.5576 2.70674 10.4287Z" fill="#6F2D8D"/>
</svg>
