<svg width="18" height="18" viewBox="0 0 18 18" fill="none" xmlns="http://www.w3.org/2000/svg">
    <path d="M0.281101 0H1.12501V0.2688C2.29981 0.5316 2.46872 1.6221 2.53502 2.0388C2.56652 2.2359 2.63042 2.6214 2.70962 3.0936H17.4037C17.9851 3.0936 18.0502 3.6369 17.9743 3.9375L16.2505 11.5476C16.1749 11.8482 15.8566 12.0936 15.5446 12.0936H2.66132C2.35111 12.0936 2.09821 12.3459 2.09821 12.6561C2.09821 12.9663 2.35111 13.2186 2.66132 13.2186H16.7236C16.8728 13.2186 17.0159 13.2779 17.1214 13.3834C17.2268 13.4888 17.2861 13.6319 17.2861 13.7811C17.2861 13.9303 17.2268 14.0734 17.1214 14.1788C17.0159 14.2843 16.8728 14.3436 16.7236 14.3436H15.9946C16.3466 14.5379 16.64 14.8231 16.8443 15.1694C17.0486 15.5157 17.1563 15.9104 17.1562 16.3125H16.5937C16.5937 17.244 15.8377 18 14.9062 18C13.9747 18 13.2187 17.244 13.2187 16.3125H12.6562C12.6561 15.9104 12.7639 15.5157 12.9682 15.1694C13.1726 14.8231 13.4661 14.5379 13.8181 14.3436H5.86984C6.22186 14.5379 6.51534 14.8231 6.7197 15.1694C6.92406 15.5157 7.03181 15.9104 7.03174 16.3125H6.46924C6.4609 16.7546 6.27942 17.1758 5.9638 17.4855C5.64818 17.7953 5.22363 17.9688 4.78143 17.9688C4.33923 17.9688 3.91468 17.7953 3.59906 17.4855C3.28344 17.1758 3.10196 16.7546 3.09362 16.3125H2.53112C2.53108 15.9105 2.63882 15.5157 2.84311 15.1695C3.04741 14.8232 3.34079 14.538 3.69272 14.3436H2.66072C2.21323 14.3434 1.78415 14.1655 1.46773 13.8491C1.15131 13.5327 0.973444 13.1036 0.973206 12.6561C0.973246 12.4345 1.01694 12.215 1.1018 12.0102C1.18666 11.8055 1.31101 11.6194 1.46777 11.4627C1.62452 11.306 1.81061 11.1817 2.0154 11.097C2.22019 11.0122 2.43967 10.9686 2.66132 10.9686H2.87042L2.15101 6.4956C1.95061 5.3142 1.51861 2.7621 1.41721 2.1273C1.36621 1.8066 1.31671 1.5813 1.12501 1.455V1.6872H0.281101C0.206675 1.68696 0.135357 1.65731 0.0827007 1.60471C0.0300426 1.55211 0.00031662 1.48083 0 1.4064V0.2814C0.00015831 0.206869 0.0298157 0.135431 0.082489 0.0827008C0.135164 0.0299709 0.20657 0.000237699 0.281101 0ZM14.9062 17.1564C15.1299 17.1562 15.3445 17.0672 15.5027 16.909C15.6609 16.7508 15.7499 16.5362 15.7501 16.3125H14.0626C14.0628 16.5362 14.1518 16.7507 14.3099 16.9089C14.4681 17.0671 14.6825 17.1561 14.9062 17.1564ZM4.78113 17.1564C5.00493 17.1562 5.21952 17.0673 5.37779 16.9091C5.53607 16.7509 5.6251 16.5363 5.62533 16.3125H3.93723C3.93762 16.5362 4.02666 16.7506 4.18484 16.9088C4.34301 17.067 4.55743 17.156 4.78113 17.1564ZM5.47323 4.4982C5.46333 4.42195 5.42639 4.3518 5.36914 4.30048C5.31188 4.24917 5.2381 4.22012 5.16123 4.2186H3.38012C3.22532 4.2186 3.11762 4.3434 3.14192 4.4967L3.31832 5.628C3.34172 5.781 3.48842 5.9061 3.64352 5.9061H5.34243C5.37821 5.90705 5.41376 5.90024 5.44666 5.88613C5.47955 5.87203 5.50899 5.85097 5.53297 5.8244C5.55694 5.79783 5.57488 5.76638 5.58554 5.73222C5.5962 5.69806 5.59934 5.66199 5.59473 5.6265L5.47323 4.4982ZM5.77594 7.3107C5.76586 7.23453 5.72887 7.16448 5.67165 7.1132C5.61443 7.06192 5.54075 7.0328 5.46393 7.0311H3.81902C3.66392 7.0311 3.55652 7.1559 3.57992 7.3092L3.71282 8.1594C3.73652 8.3124 3.88292 8.4375 4.03802 8.4375H5.61514C5.65088 8.43835 5.68639 8.43147 5.71923 8.41733C5.75207 8.40319 5.78148 8.38213 5.80543 8.35558C5.82938 8.32904 5.84733 8.29763 5.85803 8.26351C5.86873 8.2294 5.87194 8.19337 5.86744 8.1579L5.77594 7.3107ZM16.5403 5.6331L16.8253 4.4916C16.8625 4.341 16.7659 4.2186 16.6108 4.2186H14.4931C14.3377 4.2186 14.1976 4.3443 14.1811 4.4982L14.0599 5.6268C14.0554 5.66225 14.0586 5.69825 14.0693 5.73234C14.08 5.76644 14.0979 5.79782 14.1218 5.82436C14.1457 5.85091 14.1751 5.87197 14.2079 5.88613C14.2407 5.90029 14.2762 5.9072 14.3119 5.9064H16.1902C16.345 5.9064 16.5028 5.7831 16.5403 5.6331ZM15.559 8.4375C15.7138 8.4375 15.8716 8.3145 15.9088 8.1645L16.1236 7.3044C16.1611 7.1538 16.0651 7.0314 15.91 7.0314H14.1913C14.0362 7.0314 13.8958 7.1571 13.8793 7.311L13.7881 8.1582C13.7835 8.19366 13.7867 8.22967 13.7974 8.26379C13.808 8.29791 13.8259 8.32932 13.8499 8.35587C13.8738 8.38242 13.9032 8.40349 13.936 8.41763C13.9689 8.43177 14.0044 8.43865 14.0401 8.4378H15.559V8.4375ZM13.7683 10.9689H14.9278C15.0835 10.9689 15.2404 10.8459 15.2779 10.6959L15.4927 9.8358C15.5299 9.6852 15.4339 9.5628 15.2785 9.5628H13.9195C13.7644 9.5628 13.624 9.6885 13.6069 9.8424L13.5163 10.6896C13.5117 10.725 13.5149 10.761 13.5256 10.7952C13.5362 10.8293 13.5541 10.8606 13.5781 10.8872C13.602 10.9137 13.6314 10.9347 13.6642 10.9489C13.6971 10.963 13.7326 10.9698 13.7683 10.9689ZM10.3207 10.6875C10.321 10.7621 10.3508 10.8336 10.4036 10.8863C10.4565 10.9391 10.528 10.9687 10.6027 10.9689H12.07C12.1468 10.9673 12.2205 10.9382 12.2777 10.8869C12.3349 10.8356 12.3718 10.7655 12.3817 10.6893L12.4729 9.8421C12.4775 9.80665 12.4744 9.77062 12.4638 9.73648C12.4532 9.70234 12.4353 9.6709 12.4114 9.64433C12.3875 9.61776 12.3581 9.59669 12.3253 9.58256C12.2924 9.56843 12.2569 9.56159 12.2212 9.5625H10.6027C10.528 9.5625 10.4563 9.59213 10.4035 9.64488C10.3506 9.69764 10.3208 9.76921 10.3207 9.8439V10.6875ZM10.3207 8.1564C10.321 8.23104 10.3508 8.30252 10.4036 8.35524C10.4565 8.40796 10.528 8.43764 10.6027 8.4378H12.3421C12.4969 8.4378 12.6367 8.3121 12.6541 8.1582L12.7447 7.311C12.7493 7.27556 12.7462 7.23955 12.7355 7.20543C12.7249 7.17131 12.707 7.1399 12.6831 7.11334C12.6592 7.08678 12.6298 7.0657 12.597 7.05156C12.5642 7.03742 12.5287 7.03054 12.493 7.0314H10.6027C10.528 7.0314 10.4563 7.06103 10.4035 7.11378C10.3506 7.16654 10.3208 7.23811 10.3207 7.3128V8.1564ZM10.3207 5.625C10.321 5.69964 10.3508 5.77112 10.4036 5.82384C10.4565 5.87656 10.528 5.90624 10.6027 5.9064H12.6133C12.6902 5.90488 12.7639 5.87583 12.8212 5.82452C12.8784 5.7732 12.9154 5.70305 12.9253 5.6268L13.0465 4.4982C13.051 4.46275 13.0479 4.42673 13.0372 4.39261C13.0265 4.35849 13.0086 4.32708 12.9847 4.30053C12.9608 4.27398 12.9314 4.25291 12.8985 4.23877C12.8657 4.22463 12.8302 4.21775 12.7945 4.2186H10.6024C10.5277 4.2186 10.456 4.24823 10.4032 4.30098C10.3503 4.35374 10.3205 4.42531 10.3204 4.5V5.625H10.3207ZM7.27295 10.6893C7.28291 10.7655 7.31986 10.8356 7.37711 10.8869C7.43435 10.9382 7.50809 10.9673 7.58495 10.9689H8.91096C8.98557 10.9687 9.05708 10.9391 9.10987 10.8863C9.16265 10.8336 9.19242 10.7621 9.19266 10.6875V9.8436C9.1925 9.76897 9.16276 9.69744 9.10996 9.64469C9.05715 9.59194 8.98559 9.56228 8.91096 9.5622H7.43375C7.27895 9.5622 7.16494 9.6879 7.18174 9.8418L7.27295 10.6893ZM7.00114 8.1579C7.0111 8.23412 7.04806 8.30424 7.10531 8.35555C7.16255 8.40685 7.23629 8.43592 7.31315 8.4375H8.91096C8.98557 8.43734 9.05708 8.40765 9.10987 8.35492C9.16265 8.30219 9.19242 8.23071 9.19266 8.1561V7.3122C9.1925 7.23757 9.16276 7.16604 9.10996 7.11329C9.05715 7.06054 8.98559 7.03088 8.91096 7.0308H7.16195C7.00684 7.0308 6.89314 7.1565 6.91024 7.3104L7.00114 8.1579ZM6.72934 5.6268C6.7393 5.70302 6.77626 5.77314 6.8335 5.82445C6.89075 5.87575 6.96449 5.90482 7.04134 5.9064H8.91096C8.98557 5.90624 9.05708 5.87655 9.10987 5.82382C9.16265 5.77109 9.19242 5.69961 9.19266 5.625V4.5C9.1925 4.42536 9.16276 4.35384 9.10996 4.30109C9.05715 4.24834 8.98559 4.21868 8.91096 4.2186H6.85984C6.70474 4.2186 6.59104 4.3443 6.60754 4.4982L6.72934 5.6268ZM4.55973 10.9689V10.9668L4.56213 10.9689H5.88694C5.89564 10.9689 5.90314 10.9647 5.91184 10.9635C5.91334 10.9533 5.91334 10.9431 5.91514 10.9323L5.92834 10.9599C5.92468 10.9609 5.92097 10.9617 5.91724 10.9623C6.05554 10.9464 6.15454 10.8321 6.13864 10.6893L6.04804 9.8421C6.03796 9.76593 6.00097 9.69588 5.94375 9.6446C5.88653 9.59332 5.81285 9.5642 5.73604 9.5625H4.21323C4.05813 9.5625 3.95133 9.6873 3.97472 9.8406L4.10763 10.6908C4.13073 10.8438 4.27713 10.9689 4.43223 10.9689H4.55973Z" fill="#6F2D8D"/>
</svg>
