<svg width="18" height="19" viewBox="0 0 18 19" fill="none" xmlns="http://www.w3.org/2000/svg">
    <path d="M0.00834552 16.5349C0.0577482 17.1355 0.322357 17.7172 0.745325 18.1634L0.786269 18.2074C1.26338 18.7108 1.8958 19 2.52315 19C3.05372 19 3.54233 18.7934 3.89796 18.4169L10.0665 11.9004C10.1021 11.8614 10.1373 11.8213 10.1704 11.7802C10.8776 12.1049 11.6244 12.2754 12.3566 12.2754C13.5569 12.2754 14.6559 11.8131 15.4504 10.9744L16.7636 9.58541C18.0542 8.2229 18.3598 6.11782 17.5605 4.09139L17.2299 3.25408L14.6458 5.98446C14.3926 6.25189 14.0742 6.30766 13.8512 6.30766C13.4131 6.30766 12.9603 6.0953 12.6074 5.72169L12.5644 5.677C12.2467 5.34164 12.0521 4.92227 12.0179 4.49611C11.9861 4.10855 12.0934 3.76426 12.3188 3.52544L14.9029 0.795767L14.1104 0.44647C12.2474 -0.374755 10.1721 -0.0451214 8.91064 1.28736L7.59606 2.67633C6.28689 4.06029 6.00536 6.24402 6.83336 8.25436C6.79445 8.28868 6.75655 8.32551 6.72034 8.36341L0.551775 14.881C0.149447 15.3072 -0.0437642 15.8939 0.00834552 16.5349ZM1.36523 15.7408L7.5338 9.22324C7.5991 9.15424 7.68133 9.10097 7.78419 9.06057L8.40883 8.8146L8.08772 8.19787C7.22046 6.5304 7.34938 4.65627 8.40883 3.53545L9.7241 2.14648C10.3085 1.52976 11.0969 1.2037 12.0027 1.2037C12.2663 1.2037 12.5373 1.23302 12.8077 1.29022L11.5056 2.66596C11.035 3.16327 10.8096 3.84971 10.8719 4.60014C10.9294 5.31161 11.242 5.99948 11.753 6.53934L11.7966 6.58403C12.361 7.18109 13.1099 7.52323 13.8512 7.52323C14.4732 7.52323 15.044 7.28226 15.4592 6.84323L16.7636 5.46534C17.0049 6.71667 16.7193 7.91293 15.9488 8.72558L14.6363 10.1153C14.0509 10.7327 13.2621 11.0595 12.3563 11.0595C11.642 11.0595 10.905 10.8507 10.2242 10.4556L9.64255 10.1178L9.40873 10.7735C9.36982 10.8839 9.31872 10.9704 9.25342 11.0394L3.08417 17.557C2.9072 17.744 2.68117 17.7841 2.52315 17.7841C2.19864 17.7841 1.8623 17.6257 1.60581 17.3547L1.56487 17.31C1.32699 17.0587 1.18081 16.7458 1.1551 16.4301C1.13209 16.1531 1.20721 15.9085 1.36523 15.7408Z" fill="#6F2D8D"/>
</svg>
