<svg width="18" height="18" viewBox="0 0 18 18" fill="none" xmlns="http://www.w3.org/2000/svg">
<path d="M12.4581 0L12.2095 0.012054C9.23376 0.164271 5.63771 3.9629 5.68814 6.90086C5.70944 8.1448 6.16448 9.31212 6.94193 10.2648L2.93962 14.2671L0.957644 12.2851C0.738045 12.0661 0.383853 12.0661 0.164253 12.2851C-0.0547511 12.5041 -0.0547511 12.8589 0.164253 13.0779L2.75947 15.6731L2.93962 15.8537L4.92162 17.8357C5.14119 18.0548 5.49541 18.0548 5.71442 17.8357C5.93398 17.6167 5.93398 17.262 5.71442 17.0429L3.73241 15.0609L7.73476 11.0586C8.68853 11.835 9.85413 12.2905 11.1003 12.3124C14.0393 12.3628 17.8369 8.76671 17.9869 5.79045L18 5.54187L12.4581 0ZM11.1188 11.1911C8.83682 11.1517 6.8477 9.16645 6.80944 6.88222C6.77058 4.61003 9.67731 1.4695 12.0267 1.15414L16.8448 5.97224C16.5305 8.32218 13.391 11.2306 11.1188 11.1911ZM12.25 6.19458C14.1422 7.41007 16.2414 6.16171 16.2414 6.16171C15.7694 8.22582 13.0308 10.6634 11.1276 10.6305C9.24088 10.5987 7.40233 8.76019 7.37006 6.87346C7.36841 6.75849 7.4018 6.63364 7.41715 6.51429C8.03972 6.45626 8.59483 6.32265 8.88613 6.15621C9.58694 5.75657 10.3578 4.97908 12.25 6.19458Z" fill="#6F2D8D"/>
</svg>
