<svg width="19" height="18" viewBox="0 0 19 18" fill="none" xmlns="http://www.w3.org/2000/svg">
<path d="M14.5 0.5L2.51102 1.10676C2.51102 1.10676 0.824491 0.497402 0.170922 2.19027C-0.0988072 2.88892 0.031435 3.51933 0.031435 3.51933L2.8301 16.9179C3.11707 18.1487 4.79555 17.9937 4.79555 17.9937L18.1223 17.0412L17.3854 16.6269C17.4684 16.133 17.6403 14.7585 18.5572 14.3435C18.5777 14.3342 18.588 14.3156 18.6028 14.3004L19 14.2851L14.5 0.5ZM2.5 2L14 1.5L17.8933 13.7421L5.5 14.5L2.5 2ZM17.2888 15.0776C17.2086 15.2196 17.1409 15.3613 17.0907 15.4985L8.75688 16.3L16.9908 15.8314C16.9778 15.8853 16.964 15.9394 16.9546 15.989L6.2439 17.0877L16.5 16.6269H16.7887L4.97713 17.5234C4.97114 17.5247 4.41774 17.6018 3.95246 17.4477C3.49273 17.2954 3.29154 16.9796 3.33629 16.4822C3.45095 15.2043 5.61391 15.1751 5.6465 15.1749L17.8446 14.4009C17.7188 14.5057 17.6153 14.6205 17.5206 14.7379L9.68519 15.4679L17.2888 15.0776Z" fill="#6F2D8D"/>
</svg>
