<svg width="18" height="19" viewBox="0 0 18 19" fill="none" xmlns="http://www.w3.org/2000/svg">
<path d="M12.8238 0.394249L0.393853 12.8259C0.14128 13.08 -0.000336751 13.4239 6.01338e-07 13.7821C0.000337954 14.1404 0.142602 14.4839 0.395653 14.7375L3.26215 17.6058C3.51589 17.8587 3.85939 18.0008 4.21758 18.0011C4.57578 18.0015 4.91954 17.86 5.17375 17.6076L17.6055 5.17595C17.8579 4.92171 17.9995 4.57797 17.9995 4.2197C17.9995 3.86143 17.8579 3.51769 17.6055 3.26345L14.7381 0.394249C14.4835 0.141708 14.1395 0 13.7809 0C13.4223 0 13.0783 0.141708 12.8238 0.394249ZM3.53575 13.7808L2.85265 14.4639L1.14625 12.7566L1.82935 12.0735L3.53575 13.7808ZM6.26815 13.7808L5.58505 14.4639L2.51155 11.3904L3.19465 10.7064L6.26815 13.7808ZM6.26815 11.0484L5.58505 11.7315L3.87685 10.0251L4.56085 9.34115L6.26815 11.0484ZM7.63435 9.68225L6.95125 10.3653L5.24485 8.65895L5.92795 7.97495L7.63435 9.68225ZM10.3659 9.68225L9.68275 10.3653L6.61015 7.29275L7.29325 6.60965L10.3659 9.68225ZM10.3659 6.95075L9.68275 7.63385L7.97635 5.92745L8.65945 5.24435L10.3659 6.95075ZM11.7321 5.58545L11.049 6.26855L9.34165 4.56125L10.0248 3.87815L11.7321 5.58545ZM14.4645 5.58545L13.7805 6.26855L10.7079 3.19505L11.391 2.51105L14.4645 5.58545ZM14.4636 2.85395L13.7805 3.53705L12.0741 1.82885L12.7572 1.14665L14.4636 2.85395Z" fill="#6F2D8D"/>
</svg>
