<svg width="22" height="25" viewBox="0 0 22 25" fill="none" xmlns="http://www.w3.org/2000/svg">
<path d="M11.2144 9.18163L9.40999 11.2702L10.2488 11.9949L9.94083 12.3514L9.102 11.6267L7.29819 13.7146L8.13702 14.4393L7.8296 14.7952L6.99078 14.0705L5.18832 16.1568L6.02714 16.8815L5.71857 17.2387L4.87975 16.514L3.07536 18.6026L3.91418 19.3273L3.60677 19.6831L2.41233 18.6512L11.1664 8.51835L12.3608 9.55026L12.053 9.90654L11.2142 9.18185L11.2144 9.18163ZM15.4399 13.2467L7.40247 22.5501C6.70593 23.3564 5.48301 23.4461 4.67653 22.7493L1.46221 19.9724C0.657074 19.2768 0.567125 18.0533 1.26386 17.2468L9.30131 7.94342C9.81534 7.34843 10.5028 7.00227 11.2222 6.88432C11.1199 6.65372 11.1466 6.36938 11.3239 6.16413L12.1089 5.25548C12.3508 4.9755 12.782 4.94319 13.0633 5.18623L13.4086 5.48458L15.1071 4.89635L16.6861 4.34485C16.701 4.12471 16.7656 3.90825 16.9223 3.72687C17.3007 3.28894 17.961 3.23802 18.4001 3.61732C18.8384 3.99604 18.8833 4.65621 18.5049 5.09414C18.3484 5.27529 18.1432 5.37074 17.9272 5.41703L17.6102 7.05884L17.2751 8.82488L17.6217 9.12439C17.9002 9.36492 17.9331 9.79582 17.69 10.0771L16.9041 10.9869C16.7269 11.1919 16.4534 11.261 16.2074 11.1931C16.1971 11.9221 15.9538 12.652 15.4399 13.2467ZM14.882 12.7647C15.4155 12.1472 15.583 11.3417 15.4193 10.5991L11.9239 7.57931C11.1649 7.52477 10.3923 7.80754 9.85882 8.42506L1.82137 17.7285C1.39022 18.2275 1.44615 18.9822 1.94543 19.4135L5.15975 22.1905C5.65858 22.6214 6.4134 22.5676 6.84474 22.0683L14.8822 12.7649L14.882 12.7647Z" fill="#6F2D8D"/>
</svg>
