<svg width="18" height="17" viewBox="0 0 18 17" fill="none" xmlns="http://www.w3.org/2000/svg">
<path d="M0 8.84772V14.1007C0 15.6841 1.28889 17 2.93332 17H15.0667C16.7111 17 18 15.6841 18 14.1007V5.61676C18 4.03339 16.7111 2.78163 15.0667 2.78163H13.1667C12.9222 0.962874 11.6556 0 10.3889 0H7.25559C6.00003 0 4.72227 0.962874 4.47781 2.78163H2.92222C1.28889 2.78163 0 4.03339 0 5.61676V8.84772ZM15.0667 15.7269H2.93332C2.0222 15.7269 1.33331 14.9887 1.33331 14.1114V10.5809C2.33332 11.4796 4.14442 12.5066 6.95553 12.8383C7.09997 13.6835 7.84442 14.3361 8.76663 14.3361H8.9444C9.86662 14.3361 10.6111 13.6942 10.7555 12.8383C13.6888 12.4852 15.6555 11.3833 16.6555 10.4846V14.1114C16.6667 14.9887 15.9778 15.7269 15.0667 15.7269ZM9.44446 12.5387C9.44446 12.8169 9.21113 13.0523 8.91111 13.0523H8.75558C8.46669 13.0523 8.22223 12.8276 8.22223 12.5387V10.7841C8.22223 10.506 8.45555 10.2706 8.75558 10.2706H8.91111C9.2 10.2706 9.44446 10.4953 9.44446 10.7841V12.5387ZM7.25555 1.28384H10.3889C11.1 1.28384 11.6333 1.92575 11.8111 2.78163H5.83335C6.01112 1.92575 6.54443 1.28384 7.25555 1.28384ZM2.93332 4.06547H15.0667C15.9778 4.06547 16.6667 4.73947 16.6667 5.61676V8.64446C16.5556 8.87984 16.0445 9.36126 15.3 9.88549C14.4222 10.4953 13 11.2442 10.7778 11.5438V10.8056C10.7778 9.81059 9.97777 8.9868 8.94444 8.9868H8.76667C7.73334 8.9868 6.88888 9.81059 6.88888 10.8056V11.5544C3.11113 11.0516 1.66666 9.17937 1.33335 8.67655V5.61676C1.33335 4.73947 2.02224 4.06547 2.93332 4.06547Z" fill="#6F2D8D"/>
</svg>
