<svg width="19" height="20" viewBox="0 0 19 20" fill="none" xmlns="http://www.w3.org/2000/svg">
<path d="M13.1538 12.5V13.2143C13.1538 13.3185 13.1196 13.404 13.0511 13.471C12.9826 13.5379 12.895 13.5714 12.7885 13.5714H6.21154C6.10497 13.5714 6.01743 13.5379 5.94892 13.471C5.88041 13.404 5.84615 13.3185 5.84615 13.2143V12.5C5.84615 12.3958 5.88041 12.3103 5.94892 12.2433C6.01743 12.1763 6.10497 12.1429 6.21154 12.1429H12.7885C12.895 12.1429 12.9826 12.1763 13.0511 12.2433C13.1196 12.3103 13.1538 12.3958 13.1538 12.5ZM1.46154 18.5714H17.5385V7.14286H1.46154V18.5714ZM5.84615 5V1.78571C5.84615 1.68155 5.8119 1.59598 5.74339 1.52902C5.67488 1.46205 5.58734 1.42857 5.48077 1.42857H4.75C4.64343 1.42857 4.55589 1.46205 4.48738 1.52902C4.41887 1.59598 4.38462 1.68155 4.38462 1.78571V5C4.38462 5.10417 4.41887 5.18973 4.48738 5.2567C4.55589 5.32366 4.64343 5.35714 4.75 5.35714H5.48077C5.58734 5.35714 5.67488 5.32366 5.74339 5.2567C5.8119 5.18973 5.84615 5.10417 5.84615 5ZM14.6154 5V1.78571C14.6154 1.68155 14.5811 1.59598 14.5126 1.52902C14.4441 1.46205 14.3566 1.42857 14.25 1.42857H13.5192C13.4127 1.42857 13.3251 1.46205 13.2566 1.52902C13.1881 1.59598 13.1538 1.68155 13.1538 1.78571V5C13.1538 5.10417 13.1881 5.18973 13.2566 5.2567C13.3251 5.32366 13.4127 5.35714 13.5192 5.35714H14.25C14.3566 5.35714 14.4441 5.32366 14.5126 5.2567C14.5811 5.18973 14.6154 5.10417 14.6154 5ZM19 4.28571V18.5714C19 18.9583 18.8554 19.2932 18.5661 19.5759C18.2768 19.8586 17.9343 20 17.5385 20H1.46154C1.06571 20 0.723157 19.8586 0.433894 19.5759C0.144631 19.2932 0 18.9583 0 18.5714V4.28571C0 3.89881 0.144631 3.56399 0.433894 3.28125C0.723157 2.99851 1.06571 2.85714 1.46154 2.85714H2.92308V1.78571C2.92308 1.29464 3.10196 0.874256 3.45974 0.524554C3.81751 0.174851 4.2476 0 4.75 0H5.48077C5.98317 0 6.41326 0.174851 6.77103 0.524554C7.12881 0.874256 7.30769 1.29464 7.30769 1.78571V2.85714H11.6923V1.78571C11.6923 1.29464 11.8712 0.874256 12.229 0.524554C12.5867 0.174851 13.0168 0 13.5192 0H14.25C14.7524 0 15.1825 0.174851 15.5403 0.524554C15.898 0.874256 16.0769 1.29464 16.0769 1.78571V2.85714H17.5385C17.9343 2.85714 18.2768 2.99851 18.5661 3.28125C18.8554 3.56399 19 3.89881 19 4.28571Z" fill="#6F2D8D"/>
</svg>
