<svg width="31" height="31" viewBox="0 0 31 31" fill="none" xmlns="http://www.w3.org/2000/svg">
<path d="M29.2565 1.76654L29.2565 1.76654C29.6128 2.1267 29.8132 2.61256 29.8144 3.11922C29.8157 3.62589 29.6175 4.1127 29.2629 4.47454L29.2602 4.4773L29.2602 4.47729L18.2262 15.5621L29.2594 26.646C29.2595 26.6461 29.2596 26.6463 29.2598 26.6464C29.6219 27.0087 29.8253 27.5 29.8253 28.0122C29.8253 28.5247 29.6217 29.0161 29.2594 29.3785C28.897 29.7408 28.4055 29.9444 27.8931 29.9444C27.3807 29.9444 26.8892 29.7408 26.5269 29.3785L26.526 29.3776L15.5001 18.2963L4.47899 29.3728L4.47852 29.3733C4.11691 29.7358 3.62613 29.9397 3.11413 29.9403C2.60214 29.9409 2.11087 29.7381 1.74841 29.3765C1.38594 29.0149 1.18197 28.5241 1.18137 28.0121C1.18077 27.5004 1.38341 27.0093 1.74472 26.6469L29.2565 1.76654ZM29.2565 1.76654L29.2544 1.76445C28.8926 1.40308 28.4021 1.2001 27.8907 1.2001C27.3794 1.2001 26.8889 1.40308 26.5271 1.76445L26.5263 1.76526L15.5005 12.828L4.47906 1.74657L4.47906 1.74657L4.4781 1.74561C4.11575 1.38325 3.6243 1.17969 3.11185 1.17969C2.59941 1.17969 2.10796 1.38325 1.74561 1.74561C1.38325 2.10796 1.17969 2.59941 1.17969 3.11185C1.17969 3.62407 1.38307 4.11531 1.74512 4.47761C1.74528 4.47778 1.74544 4.47794 1.74561 4.4781L12.7741 15.5621L1.74519 26.6464L29.2565 1.76654Z" fill="#6F2D8D" stroke="#6F2D8D"/>
</svg>
