<svg width="32" height="28" viewBox="0 0 32 28" fill="none" xmlns="http://www.w3.org/2000/svg">
<path d="M29.7323 2.21438C28.2202 0.737918 26.1312 0 23.4642 0C22.7262 0 21.9729 0.127969 21.2052 0.383782C20.4372 0.639783 19.7228 0.985163 19.0627 1.41967C18.4017 1.85405 17.8336 2.26198 17.3571 2.64282C16.8811 3.02379 16.4286 3.42865 16.0001 3.85709C15.5714 3.42865 15.119 3.02379 14.643 2.64282C14.1666 2.26198 13.5983 1.8543 12.9375 1.41967C12.2767 0.984975 11.5624 0.639846 10.7946 0.383782C10.0268 0.128032 9.2737 0 8.53566 0C5.86888 0 3.77972 0.738106 2.26786 2.21438C0.755994 3.69053 0 5.73804 0 8.35709C0 9.15474 0.140103 9.97635 0.419747 10.8213C0.69939 11.6665 1.01806 12.3869 1.37514 12.982C1.73215 13.5771 2.13701 14.1576 2.58941 14.7231C3.0418 15.2886 3.37242 15.6782 3.58051 15.8926C3.78879 16.1067 3.95254 16.2616 4.07156 16.3567L15.2143 27.1068C15.4287 27.3213 15.6906 27.4286 16 27.4286C16.3095 27.4286 16.5716 27.3213 16.7858 27.1073L27.9109 16.3927C30.6371 13.6667 32.0001 10.9881 32.0001 8.35709C32.0002 5.73804 31.2441 3.69053 29.7323 2.21438Z" fill="#6F2D8D"/>
</svg>
