<svg width="150" height="86" viewBox="0 0 150 86" fill="none" xmlns="http://www.w3.org/2000/svg">
<path d="M106.48 46.3237C106.528 44.4339 105.236 42.6441 103.266 41.8713C102.702 41.6501 102.121 41.5303 101.538 41.5155C100.997 41.5022 100.287 41.6187 99.5757 41.8318C99.4654 39.7081 98.1148 37.8089 96.1142 37.0242C95.5212 36.7915 94.8954 36.666 94.2538 36.6491C92.9473 36.6171 91.7304 37.0538 90.7666 37.8069C90.2575 36.3108 89.1111 35.067 87.5871 34.4693C86.9948 34.2369 86.3683 34.1111 85.7268 34.0942C84.3605 34.0606 82.9454 34.4446 81.7948 35.2251L82.1429 21.1223C82.2111 18.4003 81.0245 16.2947 78.9693 15.4885C78.4257 15.2753 77.8299 15.159 77.1993 15.1439C74.1408 15.0678 71.8611 17.4741 71.7764 20.8689L71.0351 53.8348L66.6575 49.0066C66.0028 48.3179 65.2281 47.796 64.356 47.454C62.0704 46.5574 59.4381 47.0795 57.6476 48.7838C56.4075 49.9636 55.6997 51.5542 55.6541 53.2629C55.6074 54.9745 56.2317 56.6004 57.3682 57.7926C57.4073 57.8381 61.366 62.4793 67.0313 68.4306L67.9508 69.4C71.5764 73.2314 75.0014 76.8498 79.8675 78.7586L79.8682 78.7589C82.185 79.6677 84.6752 80.143 87.4804 80.2128C97.3357 80.457 100.756 75.5917 103.415 70.5886C105.972 65.7756 106.461 47.1154 106.48 46.3237ZM101.346 69.4896C98.8434 74.2 96.0762 78.0821 87.5387 77.871C85.011 77.8077 82.7818 77.3853 80.7237 76.578L80.723 76.5777C76.3437 74.8599 73.2426 71.5832 69.6523 67.79L68.7282 66.8154C63.1112 60.9141 59.1909 56.3181 59.1083 56.2253C58.3617 55.4394 57.9664 54.4097 57.9953 53.3251C58.0247 52.239 58.4748 51.2282 59.2626 50.4789C60.4136 49.3833 62.0382 49.0596 63.5011 49.6334C64.0527 49.8498 64.5438 50.1816 64.9408 50.5998L71.2724 57.5823C71.5943 57.9374 72.099 58.0616 72.5493 57.8928C72.9983 57.7251 73.3005 57.3011 73.3106 56.8221L74.1177 20.9244C74.1586 19.3044 74.9745 17.4317 77.1413 17.485C77.4993 17.4938 77.8271 17.5561 78.1148 17.669C79.2144 18.1003 79.8443 19.3696 79.8032 21.0649L79.2627 42.9159C79.247 43.563 79.7599 44.1004 80.404 44.1149C81.0508 44.1313 81.5887 43.6195 81.6034 42.9728L81.6808 39.8511C81.7446 37.275 84.1013 36.3974 85.6692 36.4363C86.0363 36.4453 86.394 36.5169 86.7319 36.6494C87.9499 37.1272 88.7471 38.3271 88.7146 39.635L88.6082 43.8909L88.608 43.9277C88.5924 44.5748 89.1052 45.1122 89.7494 45.1267C90.3957 45.1421 90.933 44.6317 90.9484 43.9854L90.9985 41.985C91.0661 40.2908 92.4993 38.9478 94.1951 38.9899C94.5622 38.9989 94.9199 39.0705 95.2585 39.2033C96.4758 39.6808 97.272 40.8811 97.2402 42.1894L97.1159 47.192L97.1133 47.2606C97.0972 47.9067 97.6059 48.4441 98.2554 48.4599C98.9015 48.4761 99.4393 47.9642 99.4547 47.3179L99.5281 44.3388C100.001 44.122 100.928 43.8415 101.479 43.8553C101.787 43.863 102.1 43.928 102.41 44.0495C103.45 44.4577 104.161 45.3678 104.139 46.264C104.01 51.5079 103.255 65.8958 101.346 69.4896Z" fill="#78239F"/>
<path d="M9.63055 10.4672C27.1926 6.42522 45.5495 7.02322 62.8755 12.2582C63.9006 12.5672 65.2336 11.9492 65.5476 11.0002C65.8606 10.0502 65.1076 8.75222 64.0326 8.42922C46.0376 2.99222 26.9725 2.37222 8.73355 6.56922C8.39655 5.10722 8.06055 3.64522 7.72455 2.18322C7.58755 1.59322 7.33555 1.08822 6.64155 1.01322C5.94855 0.939221 5.52455 1.17622 5.14255 1.71522C3.36255 4.22722 1.71555 6.78122 0.204551 9.36422C-0.237449 10.1222 0.0635505 11.0232 0.850551 11.3852C3.53855 12.6252 6.12455 13.9692 8.60155 15.4062C9.13255 15.7142 9.55155 15.7432 10.0546 15.3852C10.5566 15.0272 10.5505 14.4692 10.4145 13.8782C10.1545 12.7402 9.89255 11.6042 9.63055 10.4672Z" fill="#6F2D8D"/>
<path d="M149.414 8.36394C147.902 5.78094 146.256 3.22694 144.476 0.714944C144.094 0.175944 143.67 -0.0600556 142.977 0.0129444C142.283 0.0869444 142.031 0.592944 141.894 1.18294C141.558 2.64494 141.222 4.10694 140.885 5.56894C122.646 1.37194 103.581 1.99194 85.5864 7.42894C84.5134 7.75194 83.7584 9.04994 84.0714 9.99994C84.3844 10.9489 85.7174 11.5659 86.7434 11.2579C104.069 6.02394 122.426 5.42594 139.988 9.46694C139.726 10.6039 139.465 11.7409 139.203 12.8779C139.067 13.4699 139.06 14.0269 139.563 14.3849C140.066 14.7429 140.485 14.7149 141.016 14.4059C143.493 12.9689 146.078 11.6249 148.767 10.3849C149.554 10.0219 149.856 9.12194 149.414 8.36394Z" fill="#6F2D8D"/>
</svg>
