<svg width="25" height="19" viewBox="0 0 25 19" fill="none" xmlns="http://www.w3.org/2000/svg">
    <path d="M1.04033 2.23529H23.2342C23.8063 2.23529 24.2745 1.73235 24.2745 1.11765C24.2745 0.502941 23.8063 0 23.2342 0H1.04033C0.468151 0 0 0.502941 0 1.11765C0 1.73235 0.468151 2.23529 1.04033 2.23529Z" fill="#6F2D8D"/>
    <path d="M1.04033 10.6177H23.2342C23.8063 10.6177 24.2745 10.1147 24.2745 9.50003C24.2745 8.88533 23.8063 8.38239 23.2342 8.38239H1.04033C0.468151 8.38239 0 8.88533 0 9.50003C0 10.1147 0.468151 10.6177 1.04033 10.6177Z" fill="#6F2D8D"/>
    <path d="M1.04033 19H23.2342C23.8063 19 24.2745 18.4971 24.2745 17.8824C24.2745 17.2677 23.8063 16.7647 23.2342 16.7647H1.04033C0.468151 16.7647 0 17.2677 0 17.8824C0 18.4971 0.468151 19 1.04033 19Z" fill="#6F2D8D"/>
</svg>
