<svg width="29" height="25" viewBox="0 0 29 25" fill="none" xmlns="http://www.w3.org/2000/svg">
<path d="M16.4917 2.91729L16.4919 2.91712C17.0994 2.30934 17.8207 1.8272 18.6146 1.49826C19.4084 1.16931 20.2594 1 21.1187 1C21.978 1 22.8289 1.16931 23.6228 1.49826C24.4167 1.8272 25.138 2.30934 25.7455 2.91712L26.4528 2.21018L25.7458 2.91745C26.3536 3.52495 26.8357 4.24625 27.1647 5.04013C27.4936 5.83401 27.663 6.68493 27.663 7.54426C27.663 8.40359 27.4936 9.25451 27.1647 10.0484C26.8357 10.8423 26.3536 11.5636 25.7458 12.1711L25.7457 12.1712L24.2922 13.6247L14.3311 23.5858L4.37006 13.6247L2.91655 12.1712C1.68941 10.9441 1 9.27971 1 7.54426C1 5.80881 1.68941 4.14444 2.91655 2.91729C4.1437 1.69014 5.80808 1.00073 7.54353 1.00073C9.27898 1.00073 10.9433 1.69014 12.1705 2.91729L13.624 4.37079L14.3311 5.0779L15.0382 4.37079L16.4917 2.91729Z" stroke="#6F2D8D" stroke-width="2" stroke-linecap="round"/>
</svg>
