<svg width="25" height="25" viewBox="0 0 25 25" fill="none" xmlns="http://www.w3.org/2000/svg">
<path d="M11.983 0.00330612C11.973 0.00330612 11.969 0.00330612 11.965 0.00330612C11.957 0.00330612 11.957 0.00330612 11.955 0.00330612C11.955 0.00330612 11.955 0.00330612 11.952 0.00330612C11.949 0.00330612 11.945 0.00330612 11.941 0.00330612C11.939 0.00330612 11.939 0.00330612 11.939 0.00330612C11.939 0.00330612 11.939 0.00330612 11.935 0.00330612C11.908 -0.00269388 11.9 0.00130612 11.88 0.00130612C8.677 0.00130612 5.561 1.27131 3.258 3.50431L0.726 0.933306C0.603 0.813306 0.417 0.775306 0.265 0.839306C0.106 0.907306 0 1.05931 0 1.23331V9.58131C0 9.81631 0.191 10.0063 0.423 10.0063H8.669C8.674 10.0063 8.683 10.0063 8.689 10.0063C8.923 10.0063 9.113 9.81731 9.113 9.58131C9.113 9.42531 9.028 9.28731 8.901 9.21431L6.4 6.68331C7.883 5.25131 9.818 4.46731 11.94 4.46731C16.27 4.49531 19.797 8.04031 19.797 12.4423C19.764 16.7683 16.217 20.2893 11.817 20.2893L11.827 24.7573H11.888C18.667 24.7573 24.221 19.2393 24.265 12.3813C24.265 5.60631 18.761 0.0603061 11.983 0.00330612Z" fill="white"/>
</svg>
