<svg width="30" height="31" viewBox="0 0 30 31" fill="none" xmlns="http://www.w3.org/2000/svg">
<path d="M28.7405 1.72039L28.7405 1.7204C29.0968 2.08055 29.2973 2.56642 29.2985 3.07308C29.2997 3.57974 29.1015 4.06655 28.7469 4.42839L28.7442 4.43116L28.7442 4.43115L17.7102 15.5159L28.7434 26.5999C28.7435 26.6 28.7436 26.6001 28.7438 26.6003C29.1059 26.9626 29.3093 27.4539 29.3093 27.9661C29.3093 28.4785 29.1057 28.97 28.7434 29.3324C28.381 29.6947 27.8896 29.8983 27.3771 29.8983C26.8647 29.8983 26.3732 29.6947 26.0109 29.3324L26.01 29.3315L14.9841 18.2502L3.963 29.3267L3.96253 29.3272C3.60092 29.6896 3.11013 29.8936 2.59814 29.8942C2.08614 29.8948 1.59488 29.692 1.23241 29.3304C0.86995 28.9688 0.665983 28.478 0.66538 27.966C0.664777 27.4542 0.867414 26.9632 1.22873 26.6007L28.7405 1.72039ZM28.7405 1.72039L28.7384 1.71831C28.3766 1.35694 27.8861 1.15396 27.3747 1.15396C26.8634 1.15396 26.3729 1.35694 26.0111 1.71831L26.0103 1.71912L14.9845 12.7819L3.96307 1.70042L3.96307 1.70042L3.96211 1.69946C3.59976 1.33711 3.10831 1.13354 2.59586 1.13354C2.08342 1.13354 1.59197 1.33711 1.22961 1.69946C0.867263 2.06182 0.663696 2.55327 0.663696 3.06571C0.663696 3.57792 0.867079 4.06917 1.22912 4.43147C1.22929 4.43163 1.22945 4.4318 1.22961 4.43196L12.2581 15.5159L1.2292 26.6003L28.7405 1.72039Z" fill="white" stroke="white"/>
</svg>
