<svg width="33" height="29" viewBox="0 0 33 29" fill="none" xmlns="http://www.w3.org/2000/svg">
<path d="M29.8963 2.84793C28.3843 1.37146 26.2952 0.633545 23.6283 0.633545C22.8902 0.633545 22.137 0.761514 21.3693 1.01733C20.6013 1.27333 19.8868 1.61871 19.2267 2.05322C18.5657 2.4876 17.9977 2.89552 17.5212 3.27637C17.0452 3.65733 16.5927 4.06219 16.1642 4.49063C15.7355 4.06219 15.2831 3.65733 14.807 3.27637C14.3307 2.89552 13.7624 2.48785 13.1015 2.05322C12.4408 1.61852 11.7265 1.27339 10.9586 1.01733C10.1909 0.761577 9.43777 0.633545 8.69972 0.633545C6.03295 0.633545 3.94378 1.37165 2.43192 2.84793C0.920057 4.32407 0.164062 6.37158 0.164062 8.99064C0.164062 9.78829 0.304166 10.6099 0.583809 11.4548C0.863453 12.3001 1.18212 13.0204 1.5392 13.6155C1.89621 14.2106 2.30107 14.7912 2.75347 15.3566C3.20587 15.9222 3.53648 16.3117 3.74457 16.5262C3.95285 16.7402 4.1166 16.8951 4.23562 16.9902L15.3784 27.7404C15.5927 27.9548 15.8546 28.0621 16.1641 28.0621C16.4736 28.0621 16.7356 27.9548 16.9499 27.7408L28.0749 17.0262C30.8012 14.3003 32.1642 11.6216 32.1642 8.99064C32.1643 6.37158 31.4081 4.32407 29.8963 2.84793Z" fill="white"/>
</svg>
