<svg width="23" height="23" viewBox="0 0 23 23" fill="none" xmlns="http://www.w3.org/2000/svg">
<path d="M22.0324 0.97924L22.0324 0.979246C22.3255 1.27423 22.4908 1.67262 22.4918 2.08851C22.4928 2.5044 22.3294 2.90357 22.0377 3.19994L22.035 3.2027L22.035 3.20269L13.7401 11.5L22.0342 19.7965C22.0343 19.7967 22.0345 19.7968 22.0347 19.797C22.3324 20.0937 22.5 20.4964 22.5 20.9168C22.5 21.3374 22.3322 21.7403 22.0342 22.037C21.7362 22.3337 21.3325 22.5 20.9121 22.5C20.4917 22.5 20.088 22.3337 19.7901 22.037L19.7892 22.0362L11.4982 13.7393L3.21083 22.0326L3.21036 22.033C2.913 22.3298 2.50987 22.4964 2.08976 22.4969C1.66966 22.4974 1.26613 22.3317 0.968071 22.0357C0.669937 21.7395 0.501776 21.3371 0.501279 20.9168C0.500782 20.4968 0.667818 20.0942 0.964958 19.7974L22.0324 0.97924ZM22.0324 0.97924L22.0303 0.977155C21.7328 0.68126 21.3299 0.515443 20.9103 0.515443C20.4907 0.515443 20.0878 0.68126 19.7903 0.977154L19.7895 0.977966L11.4986 9.26095L3.21091 0.963916L3.21091 0.963915L3.20995 0.962957C2.91199 0.666283 2.50834 0.5 2.0879 0.5C1.66745 0.5 1.2638 0.666283 0.965845 0.962957C0.66782 1.2597 0.5 1.66263 0.5 2.08323C0.5 2.50361 0.667651 2.90635 0.965394 3.20305C0.965544 3.2032 0.965694 3.20335 0.965845 3.2035L9.25644 11.5L0.965426 19.7969L22.0324 0.97924Z" fill="#6F2D8D" stroke="#6F2D8D"/>
</svg>
