<svg width="170" height="198" viewBox="0 0 170 198" fill="none" xmlns="http://www.w3.org/2000/svg">
<path d="M86.3349 111.888H126.39V70.5817H86.3349V111.888Z" fill="#E2E2E0"/>
<path d="M110.635 111.888H126.39V70.5817H110.635V111.888Z" fill="#DADBD8"/>
<path d="M92.6693 156.903H103.582V144.912H92.6693V156.903Z" fill="#EDEDEB"/>
<path d="M88.061 156.903H92.6691V144.912H88.061V156.903Z" fill="#DADBD8"/>
<path d="M102.54 144.911H113.452V132.92H102.54V144.911Z" fill="#EDEDEB"/>
<path d="M97.9312 144.911H102.539V132.92H97.9312V144.911Z" fill="#DADBD8"/>
<path d="M110.3 156.903H121.213V144.912H110.3V156.903Z" fill="#EDEDEB"/>
<path d="M105.691 156.903H110.3V144.912H105.691V156.903Z" fill="#DADBD8"/>
<path d="M91.1475 111.888H123.671V85.8585H91.1475V111.888Z" fill="#FAFAF9"/>
<path d="M86.3349 111.888H91.1475V85.8585H86.3349V111.888Z" fill="#EDEDEB"/>
<path d="M112.662 190.899H50.743C47.8546 190.899 45.7282 188.536 46.018 185.647L58.9764 56.5577C59.2662 53.6694 61.8672 51.306 64.7555 51.306H126.674C129.563 51.306 131.689 53.6694 131.399 56.5577L118.441 185.647C118.151 188.536 115.55 190.899 112.662 190.899Z" fill="#17282F"/>
<path d="M111.088 190.899H49.1695C46.2806 190.899 44.1541 188.536 44.4446 185.647L57.4023 56.5577C57.6921 53.6694 60.2925 51.306 63.1815 51.306H125.1C127.989 51.306 130.115 53.6694 129.825 56.5577L116.867 185.647C116.577 188.536 113.976 190.899 111.088 190.899Z" fill="#406FBF"/>
<path d="M109.412 188.55H86.3902L119.63 136.632L114.92 183.543C114.644 186.297 112.165 188.55 109.412 188.55ZM83.0298 188.55H80.2988L82.7144 170.311C88.6833 170.04 93.9096 165.137 94.5128 159.128C95.3923 150.362 89.1964 144.613 86.3995 142.491L88.5346 126.373L113.335 141.215L83.0298 188.55ZM75.0999 188.55H51.3171C48.5637 188.55 46.5368 186.297 46.8136 183.543L55.5675 96.3296C55.6459 96.2537 55.7242 96.1773 55.8026 96.1014C56.3468 95.5733 56.8512 95.0105 57.3432 94.4432C57.8395 93.8704 58.3016 93.3082 58.7662 92.6707L56.8083 90.9025C56.5577 91.1102 56.3052 91.3186 56.0495 91.5257L59.3483 58.6624C59.6245 55.9084 62.1042 53.6557 64.8576 53.6557H84.7165C86.3193 57.2549 89.1678 59.6158 90.5006 60.5761L90.0373 61.2715L77.3115 53.6557H75.4874L89.5173 62.052L81.8798 73.514L68.7006 64.8452L75.126 53.6557H71.8533L66.3248 63.2823L59.3453 58.6916L58.9963 62.1665L64.7811 65.9716L57.3084 78.984L56.6155 85.8902L59.9728 80.0432L68.5296 93.5483L53.5972 115.958L52.9945 121.961L70.4919 95.7039L84.0162 103.798L49.3891 157.884L48.764 164.109L88.8767 101.455L83.4278 142.589C80.134 144.786 72.989 150.493 72.1226 159.128C71.5859 164.476 74.8872 168.948 79.7894 170.058L77.3663 188.347L48.0898 170.825L47.9424 172.297L75.0999 188.55ZM114.056 140.088L88.7386 124.935L88.7219 124.961L92.6072 95.6287L97.7221 87.6391L122.886 104.191L120.254 130.408L114.056 140.088ZM84.7376 102.67L71.2345 94.5888L82.526 77.6437L95.3575 86.0836L84.7376 102.67ZM123.235 100.716L99.3914 85.0325L107.293 72.6905L124.985 83.2792L123.235 100.716ZM69.3444 92.3255L60.7285 78.7272L67.1563 67.5339L80.1638 76.0895L69.3444 92.3255ZM97.0261 83.477L84.2426 75.0682L91.9467 63.5062L104.863 71.2364L97.0261 83.477ZM125.089 82.2493L107.798 71.9013L116.314 58.6002L126.647 66.7185L125.089 82.2493ZM105.368 70.4471L92.4672 62.7256L95.8675 57.6225C97.0218 56.5415 98.2166 55.2143 99.2235 53.6557H122.952C125.706 53.6557 127.732 55.9084 127.456 58.6624L126.759 65.609L116.823 57.8035L119.48 53.6557H116.118L114.588 56.0471L111.543 53.6557H110.019L114.078 56.8432L105.368 70.4471Z" fill="#4A77C4"/>
<path d="M56.615 85.8902L57.3079 78.9841L64.7806 65.9716L67.1558 67.5339L60.728 78.7272L60.3629 78.1506L59.2533 78.9088L59.9723 80.0432L56.615 85.8902ZM68.7001 64.8452L66.3243 63.2823L71.8528 53.6557H75.1255L68.7001 64.8452Z" fill="#7DA6DD"/>
<path d="M52.994 121.961L53.5967 115.958L68.5291 93.5483L68.9296 94.1802L70.0386 93.422L69.3439 92.3255L80.1633 76.0895L82.5255 77.6437L71.234 94.5888L70.1841 93.96L69.4415 95.0758L70.4914 95.704L52.994 121.961ZM84.2421 75.0682L81.8793 73.514L89.5169 62.0521L91.9462 63.5062L84.2421 75.0682ZM92.4668 62.7256L90.0368 61.2715L90.5002 60.5762C90.9486 60.8996 91.226 61.0644 91.226 61.0644C91.226 61.0644 93.4594 59.8777 95.867 57.6225L92.4668 62.7256Z" fill="#7DA6DD"/>
<path d="M48.7634 164.109L49.3885 157.884L84.0156 103.798L85.0026 104.389L85.7446 103.273L84.7371 102.67L95.3569 86.0836L97.7215 87.6391L92.6066 95.6287L92.7335 94.669L89.6026 95.9708L88.8762 101.455L48.7634 164.109ZM99.3909 85.0325L97.0256 83.477L104.862 71.2364L107.292 72.6905L99.3909 85.0325ZM107.798 71.9013L105.368 70.4472L114.077 56.8432L116.314 58.6003L107.798 71.9013ZM116.823 57.8035L114.587 56.0471L116.118 53.6557H119.479L116.823 57.8035Z" fill="#7DA6DD"/>
<path d="M80.2988 188.55H77.7059L77.3663 188.347L79.7894 170.058C80.555 170.232 81.3586 170.323 82.1938 170.323C82.368 170.323 82.5415 170.319 82.7144 170.311L80.2988 188.55ZM83.4278 142.589L88.8767 101.455L89.6032 95.9708L92.7341 94.669L92.6072 95.6287L88.7218 124.961L87.9967 126.051L88.5346 126.373L86.3995 142.491C85.6009 141.885 85.0797 141.575 85.0797 141.575C85.0797 141.575 84.4335 141.919 83.4278 142.589Z" fill="#7DA6DD"/>
<path d="M86.3898 188.55H83.0294L113.335 141.215L114.865 142.131L115.607 141.016L114.056 140.088L120.254 130.408L119.629 136.632L86.3898 188.55Z" fill="#7DA6DD"/>
<path d="M122.886 104.191L97.7214 87.6391L95.3568 86.0836L82.5253 77.6438L80.1632 76.0895L67.1557 67.5339L64.7804 65.9716L58.9957 62.1665L59.3446 58.6917L66.3241 63.2823L68.7 64.8452L81.8791 73.514L84.2419 75.0682L97.0255 83.477L99.3908 85.0325L123.234 100.716L122.886 104.191Z" fill="#7DA6DD"/>
<path d="M124.985 83.2792L107.292 72.6905L104.862 71.2364L91.9464 63.5062L89.5171 62.0521L75.4871 53.6557H77.3113L90.0371 61.2715L92.467 62.7256L105.368 70.4472L107.798 71.9013L125.088 82.2493L124.985 83.2792Z" fill="#7DA6DD"/>
<path d="M85.0028 104.389L84.0158 103.798L70.4915 95.7039L69.4416 95.0758L70.1842 93.96L71.2341 94.5888L84.7372 102.67L85.7448 103.273L85.0028 104.389Z" fill="#7DA6DD"/>
<path d="M114.865 142.131L113.335 141.215L88.5346 126.373L87.9966 126.051L88.7218 124.961L88.7386 124.935L114.056 140.088L115.607 141.016L114.865 142.131Z" fill="#7DA6DD"/>
<path d="M77.7057 188.55H75.0997L47.9423 172.297L48.0897 170.825L77.3661 188.347L77.7057 188.55Z" fill="#7DA6DD"/>
<path d="M68.9301 94.1802L68.5296 93.5483L59.9728 80.0432L59.2538 78.9088L60.3634 78.1506L60.7284 78.7272L69.3443 92.3255L70.039 93.422L68.9301 94.1802Z" fill="#7DA6DD"/>
<path d="M126.647 66.7186L116.314 58.6003L114.077 56.8432L110.019 53.6557H111.543L114.587 56.0471L116.823 57.8035L126.759 65.609L126.647 66.7186Z" fill="#7DA6DD"/>
<path d="M91.1082 159.988C90.6713 163.6 86.7891 166.527 82.4372 166.527C78.0852 166.527 74.9113 163.6 75.3482 159.988C76.1441 153.405 84.4684 149.735 84.4684 149.735C84.4684 149.735 91.9041 153.405 91.1082 159.988Z" fill="white"/>
<path d="M82.964 162.653C81.0179 162.653 79.598 161.074 79.7933 159.128C79.9886 157.181 81.7251 155.603 83.6711 155.603C85.6178 155.603 87.0371 157.181 86.8425 159.128C86.6466 161.074 84.9101 162.653 82.964 162.653Z" fill="#A4C3E9"/>
<path d="M85.501 138.033H85.483C85.1409 138.023 84.899 137.737 84.9425 137.394L90.1451 96.7905C90.2751 95.7805 90.6477 94.7779 91.2217 93.8916L105.154 72.4069C105.349 72.1071 105.278 71.7271 104.997 71.5592L90.7335 62.9029C90.4524 62.7318 90.3864 62.3518 90.5867 62.0539C90.7876 61.756 91.1782 61.6521 91.4587 61.8225L105.719 70.477C106.555 70.9758 106.764 72.1102 106.185 73.0046L92.2529 94.4893C91.7902 95.2033 91.4904 96.0112 91.3865 96.8253L86.1827 137.429C86.1391 137.766 85.8362 138.033 85.501 138.033Z" fill="white"/>
<path d="M28.9139 123.787H34.1542V103.737H28.9139V123.787Z" fill="#E7E8E5"/>
<path d="M24.639 101.121H20.4156L23.9359 123.787H28.1588L24.639 101.121Z" fill="#EDEDEB"/>
<path d="M24.0581 76.017C23.9053 76.4377 23.7239 76.9715 23.5585 77.4615C23.3906 77.9626 23.2338 78.4728 23.0805 78.9834C22.7649 80.0042 22.4658 81.0356 22.1954 82.0765C21.926 83.1169 21.6717 84.1643 21.4295 85.2152L21.0867 86.7979L20.9238 87.5916L20.8867 87.778L20.8691 87.8856C20.8505 87.9469 20.852 88.0605 20.8404 88.1464C20.7972 88.9546 20.9133 90.0227 21.0822 91.044C21.245 92.0828 21.4616 93.1393 21.6938 94.1993C22.1688 96.3143 22.6955 98.4654 23.2393 100.586L21.244 101.338C20.2514 99.2937 19.3748 97.23 18.6204 95.0794C18.2404 94.0063 17.8966 92.9142 17.5976 91.7818C17.4508 91.2154 17.3207 90.6343 17.2101 90.0317C17.102 89.4256 17.009 88.8054 17 88.0866C17.005 87.8956 16.9945 87.7308 17.0166 87.5172L17.0442 87.2106L17.0709 86.9859L17.1784 86.1375C17.2458 85.5706 17.3378 85.0072 17.4242 84.4427C17.6157 83.3174 17.8117 82.1906 18.0751 81.0763C18.3304 79.9605 18.6028 78.8472 18.9225 77.7405C19.0893 77.1891 19.2602 76.6393 19.4467 76.0879C19.6332 75.5255 19.8176 75.0108 20.0699 74.3992L24.0581 76.017Z" fill="#F9A8B3"/>
<path d="M21.1574 101.019L20.4527 104.001L22.3214 106.203C22.3214 106.203 24.8017 99.0062 22.1837 99.352L21.1574 101.019Z" fill="#F9A8B3"/>
<path d="M30.336 190.102C31.0698 190.248 31.6207 190.223 31.8323 190.029C31.9223 189.946 31.9544 189.83 31.9308 189.674C31.9182 189.59 31.8795 189.562 31.8464 189.548C31.5875 189.431 30.8537 189.787 30.336 190.102ZM31.1684 190.396C30.7788 190.396 30.3536 190.315 30.0551 190.245L29.9792 190.165L30.0219 190.064C30.1647 189.969 31.4347 189.145 31.9273 189.366C32.0047 189.401 32.1027 189.478 32.1283 189.646C32.1615 189.869 32.1082 190.048 31.9685 190.176C31.7901 190.34 31.4915 190.396 31.1684 190.396Z" fill="#406FBF"/>
<path d="M30.7779 188.541C30.6959 188.541 30.6241 188.57 30.5582 188.628C30.2878 188.87 30.2004 189.55 30.1818 189.954C30.5788 189.634 31.0493 188.952 30.9884 188.663C30.9789 188.615 30.9508 188.559 30.8231 188.544L30.7779 188.541ZM30.0787 190.247L30.028 190.234L29.9782 190.147C29.9777 190.096 29.9712 188.884 30.4245 188.479C30.5457 188.371 30.6864 188.326 30.8452 188.345C31.0955 188.376 31.1649 188.533 31.184 188.624C31.2835 189.098 30.5271 190.006 30.1275 190.234L30.0787 190.247Z" fill="#406FBF"/>
<path d="M31.2253 67.7446C31.6017 67.722 30.9669 66.565 30.787 66.4725C30.3708 66.2594 25.8946 66.8952 26.1097 67.5883C26.2088 67.8853 26.4726 68.4478 26.7169 68.6016C26.9617 68.7554 27.9216 67.8808 31.2253 67.7446Z" fill="#17282F"/>
<path d="M28.1961 70.4844C28.072 70.8412 27.1311 69.9154 27.0909 69.7169C26.9989 69.2585 28.8284 65.1241 29.437 65.5201C29.6959 65.6955 30.1653 66.1026 30.2467 66.3801C30.3282 66.6565 29.2259 67.3426 28.1961 70.4844Z" fill="#17282F"/>
<path d="M29.1635 59.6618C29.6772 62.1597 30.7593 67.2194 29.0278 68.8866C29.0278 68.8866 29.7355 71.4207 34.3776 71.4207C39.482 71.4207 36.7916 68.8871 36.7916 68.8871C33.9996 68.2216 34.0509 66.1549 34.5173 64.2139L29.1635 59.6618Z" fill="#F9A8B3"/>
<path d="M27.8374 69.8847C27.1111 69.9119 28.1133 67.5748 28.4415 67.3642C29.2 66.8782 37.9016 67.2662 37.6171 68.6358C37.4834 69.2233 37.0808 70.3507 36.6411 70.6909C36.2013 71.0312 34.1984 69.5329 27.8374 69.8847Z" fill="#17282F"/>
<path d="M39.2501 54.3075C39.3119 54.3075 39.3727 54.2789 39.4109 54.2246C39.9256 53.5043 40.6604 53.532 40.6675 53.532C40.779 53.537 40.87 53.4526 40.8745 53.3425C40.879 53.2329 40.7931 53.1389 40.683 53.1334C40.6443 53.1319 39.7236 53.0972 39.0858 53.9909C39.0219 54.0798 39.0435 54.2045 39.133 54.2693L39.2501 54.3075Z" fill="#17282F"/>
<path d="M40.391 56.7054C40.391 56.7054 40.9242 58.1886 41.5379 58.9179C41.0775 59.319 40.3211 59.0978 40.3211 59.0978L40.391 56.7054Z" fill="#F9A8B3"/>
<path d="M40.1042 56.1103C40.0947 56.4496 40.266 56.7315 40.4882 56.7401C40.7098 56.7491 40.8978 56.4812 40.9079 56.142C40.9174 55.8022 40.7455 55.5203 40.5239 55.5117C40.3022 55.5027 40.1143 55.771 40.1042 56.1103Z" fill="#17282F"/>
<path d="M40.4261 55.5263L41.2479 55.3233C41.2479 55.3233 40.8106 55.9435 40.4261 55.5263Z" fill="#17282F"/>
<path d="M25.1816 190.148H29.392L28.9653 180.398H24.7554L25.1816 190.148Z" fill="#F9A8B3"/>
<path d="M29.7196 189.66H24.9901C24.8177 189.66 24.6795 189.78 24.6569 189.948L24.1548 193.69C24.1025 194.078 24.4402 194.446 24.8368 194.438C26.4859 194.41 27.2795 194.313 29.3593 194.313C30.6389 194.313 32.5101 194.446 34.2767 194.446C36.0052 194.446 36.1208 192.699 35.3835 192.541C32.0773 191.831 31.5466 190.853 30.4258 189.919C30.2237 189.751 29.9714 189.66 29.7196 189.66Z" fill="#17282F"/>
<path d="M24.9752 185.426H24.9726L24.9304 184.453H24.9329L24.9752 185.426Z" fill="#C3C5C2"/>
<path d="M29.1841 185.426H24.9748L24.9326 184.453H29.1419L29.1841 185.426Z" fill="#D8898C"/>
<path d="M46.2818 74.079C47.1754 76.1361 48.1384 78.2385 49.117 80.2791C50.1232 82.3031 51.1556 84.3367 52.3286 86.1345C52.4739 86.3617 52.6191 86.5878 52.7724 86.7904L53.168 87.3407C53.2826 87.4835 53.3002 87.5151 53.4881 87.582C53.8837 87.7071 54.8673 87.4644 55.7524 87.0231C57.5859 86.141 59.436 84.7161 61.1343 83.3058L62.7165 84.7347C62.341 85.2499 61.9676 85.7042 61.5665 86.1671C61.169 86.6255 60.7613 87.0804 60.3216 87.5071C59.4435 88.3635 58.5182 89.2019 57.4085 89.9221C56.8521 90.28 56.2515 90.6162 55.5549 90.8841C54.8582 91.1394 54.0475 91.3535 53.074 91.2796C52.591 91.2399 52.0738 91.1163 51.5943 90.8881C51.1133 90.663 50.6851 90.3403 50.3428 89.9895C50.2669 89.9085 50.1584 89.7955 50.1121 89.7382L49.9578 89.5512L49.6497 89.1763C49.4371 88.9265 49.2512 88.6741 49.0667 88.4218C47.5735 86.4014 46.4099 84.316 45.3012 82.1986C44.199 80.0766 43.2068 77.9531 42.3011 75.718L46.2818 74.079Z" fill="#F9A8B3"/>
<path d="M61.9072 82.4143L63.8905 81.4589L65.0722 84.6007C65.0722 84.6007 62.1279 85.633 60.7266 84.482L60.799 83.9432C60.888 83.2798 61.3046 82.7053 61.9072 82.4143Z" fill="#F9A8B3"/>
<path d="M66.8613 81.4156L67.2217 83.7326L65.1128 84.6006L63.9312 81.4589L66.8613 81.4156Z" fill="#F9A8B3"/>
<path d="M28.7253 54.4975C28.859 58.6746 28.8269 60.4448 30.8689 62.6663C33.9414 66.0081 39.0423 64.9808 40.1586 60.8599C41.1643 57.1512 40.7773 50.9435 36.7454 49.1251C32.7733 47.3333 28.5921 50.3208 28.7253 54.4975Z" fill="#F9A8B3"/>
<path d="M36.7567 56.432C36.819 57.2437 37.2366 58.0167 37.7342 58.5288C38.4831 59.2983 39.2501 58.8525 39.3702 57.9428C39.4788 57.1236 39.2199 55.7364 38.3107 55.2986C37.4146 54.8668 36.6858 55.5037 36.7567 56.432Z" fill="#F9A8B3"/>
<path d="M37.6418 95.3744C37.6418 95.3744 35.4826 124.27 33.1078 140.555C31.1899 153.708 29.8776 184.453 29.8776 184.453H24.1368C24.1368 184.453 21.1091 154.76 22.0208 141.751C24.3263 108.832 19.6561 103.005 25.0586 95.3744H37.6418Z" fill="#2C5DAC"/>
<path d="M34.6862 127.854C34.6857 127.853 34.6857 127.853 34.6852 127.852C34.746 127.299 34.8058 126.744 34.8651 126.186C34.8656 126.188 34.8656 126.19 34.8661 126.191C34.8063 126.747 34.7465 127.301 34.6862 127.854Z" fill="#BABCBA"/>
<path d="M34.6849 127.852C33.5319 125.746 31.0043 119.385 31.1204 112.486C31.151 110.663 31.43 109.295 31.8562 108.398C32.6905 113.866 33.7736 120.231 34.8648 126.186C34.8055 126.744 34.7457 127.299 34.6849 127.852Z" fill="#2F4E80"/>
<path d="M30.6652 184.567H23.3528L22.9437 182.002L30.6788 181.74L30.6652 184.567Z" fill="#406FBF"/>
<path d="M33.893 183.266C33.699 182.997 32.7194 182.804 31.9766 182.72C32.6913 183.347 33.3029 183.681 33.6407 183.622C33.7588 183.601 33.8452 183.533 33.9056 183.412C33.9287 183.365 33.9287 183.326 33.9056 183.286L33.893 183.266ZM31.6066 182.65L31.5956 182.552L31.6946 182.493C31.9072 182.51 33.7859 182.676 34.0785 183.188C34.1352 183.287 34.1373 183.396 34.0845 183.502C33.9955 183.68 33.8583 183.787 33.6769 183.818C33.0742 183.923 32.1293 183.141 31.6197 182.665L31.6066 182.65Z" fill="#406FBF"/>
<path d="M33.5186 181.882L33.4321 181.798C33.311 181.705 33.1768 181.669 33.0205 181.69C32.5731 181.751 32.0987 182.253 31.8851 182.506C32.4827 182.515 33.4306 182.267 33.5402 182C33.5467 181.984 33.5628 181.945 33.5186 181.882ZM31.6066 182.65L31.5956 182.631L31.6071 182.533C31.6353 182.494 32.3103 181.585 32.9923 181.493C33.2009 181.465 33.3894 181.514 33.5527 181.64C33.7734 181.811 33.7683 181.972 33.7251 182.077C33.5417 182.523 32.2208 182.765 31.675 182.691L31.6066 182.65Z" fill="#406FBF"/>
<path d="M27.274 180.925L31.1577 182.597L32.8027 179.009L34.9514 174.311L35.2037 173.764L31.324 172.09L31.0386 172.705L28.9553 177.255L27.274 180.925Z" fill="#F9A8B3"/>
<path d="M32.8032 179.009L28.9557 177.255L29.7559 175.508L33.6059 177.254L33.5501 177.376L33.5214 177.438L33.4641 177.564L32.8032 179.009Z" fill="#D8898C"/>
<path d="M42.157 95.3744C42.157 95.3744 48.7386 124.093 48.8823 138.872C49.0115 152.23 34.4314 177.628 34.4314 177.628L29.1626 175.239C29.1626 175.239 38.6131 144.662 37.6717 140.38C34.9416 127.957 30.3312 101.177 30.3226 95.3744H42.157Z" fill="#2C5DAC"/>
<path d="M31.7073 182.033L27.6749 179.522C27.5281 179.431 27.3462 179.458 27.2376 179.587L24.8231 182.473C24.5723 182.772 24.6648 183.26 25.007 183.466C26.4279 184.316 27.1557 184.657 28.9299 185.76C30.021 186.44 32.2079 187.958 33.7147 188.896C35.1883 189.814 36.2147 188.404 35.6703 187.879C33.2277 185.526 32.6321 184.007 32.1722 182.626C32.0893 182.377 31.9219 182.167 31.7073 182.033Z" fill="#17282F"/>
<path d="M34.8145 178.705L28.0269 175.917L28.7501 173.177L36.0183 176.154L34.8145 178.705Z" fill="#406FBF"/>
<path d="M26.9709 74.56C27.0558 72.1374 25.4841 69.073 21.7764 69.8445C20.0274 70.2084 18.2235 76.5191 18.2235 76.5191L22.95 82.0604C24.5734 81.3065 26.9176 76.0949 26.9709 74.56Z" fill="#24253E"/>
<path d="M22.9521 82.0594C23.3275 81.884 23.7417 81.4703 24.1573 80.919V80.9195C23.7422 81.4713 23.328 81.8855 22.9521 82.0594ZM22.9345 82.0418L22.9269 82.0343C22.9269 82.0343 22.9274 82.0338 22.9274 82.0333L22.9345 82.0418Z" fill="#B1B3B1"/>
<path d="M22.9526 82.0594L22.935 82.0418L22.928 82.0333C23.2828 80.5239 23.4808 79.0759 23.5904 77.9059C23.807 78.9814 23.995 79.9811 24.1579 80.919C23.7422 81.4703 23.3281 81.884 22.9526 82.0594Z" fill="#24253E"/>
<path d="M43.9188 69.9652C43.9188 69.9652 45.9312 70.6718 42.1567 95.3744C35.372 95.3744 28.3601 95.3744 25.0585 95.3744C25.2772 88.4158 25.243 84.1246 21.776 69.843C21.776 69.843 25.3515 69.064 29.0276 68.8866C31.9035 68.7478 34.2597 68.6559 36.7913 68.8871C40.1297 69.1911 43.9188 69.9652 43.9188 69.9652Z" fill="#24253E"/>
<path d="M43.7075 83.9773C43.8347 82.8645 43.9422 81.8407 44.0327 80.8973H44.0332C43.9427 81.8392 43.8357 82.8635 43.7075 83.9773Z" fill="#B3B5B3"/>
<path d="M44.033 80.8973H44.0325C44.0672 80.537 44.0993 80.1897 44.129 79.8529C44.0993 80.1897 44.0677 80.5375 44.033 80.8973Z" fill="#B0B2B0"/>
<path d="M44.1291 79.8529C44.1371 79.7649 44.1447 79.677 44.1522 79.591V79.5916C44.1447 79.678 44.1371 79.7649 44.1291 79.8529Z" fill="#D8898C"/>
<path d="M43.6549 84.4322C42.6145 83.1606 41.3228 80.7627 41.157 78.7573L43.8007 78.421C43.8007 78.421 43.9665 78.8679 44.1525 79.5911C44.145 79.677 44.1374 79.765 44.1294 79.853C44.0997 80.1897 44.0676 80.537 44.0329 80.8974C43.9424 81.8408 43.8349 82.8646 43.7077 83.9773C43.6906 84.1271 43.6725 84.2789 43.6549 84.4322Z" fill="#24253E"/>
<path d="M43.919 69.9652C46.0164 70.4753 48.6481 76.2201 48.6481 76.2201L44.4548 82.8319C44.4548 82.8319 39.1272 78.8528 39.179 73.0969C39.2006 70.6794 41.3743 69.3465 43.919 69.9652Z" fill="#24253E"/>
<path d="M24.7928 94.3712L24.0369 95.9016C23.9781 96.0202 24.1199 96.1414 24.3179 96.1414H42.2494C42.4032 96.1414 42.5298 96.066 42.5389 95.969L42.6781 94.4385C42.6881 94.3325 42.5529 94.2425 42.3846 94.2425H25.0703C24.9426 94.2425 24.8305 94.2943 24.7928 94.3712Z" fill="#406FBF"/>
<path d="M42.2496 96.1414H24.3181C24.1512 96.1414 24.0241 96.0549 24.0241 95.9569C24.0236 95.9388 24.0281 95.9202 24.0372 95.9016L24.7931 94.3712C24.8308 94.2943 24.9429 94.2425 25.0705 94.2425H42.3848C42.5481 94.2425 42.6798 94.3269 42.6788 94.4285C42.6788 94.4315 42.6788 94.435 42.6783 94.4385L42.5391 95.969C42.53 96.066 42.4034 96.1414 42.2496 96.1414Z" fill="white"/>
<path d="M27.1371 96.3073H26.6737C26.5812 96.3073 26.5103 96.2595 26.5163 96.2012L26.7139 94.2129C26.7199 94.1546 26.8003 94.1068 26.8928 94.1068H27.3562C27.4487 94.1068 27.5195 94.1546 27.5135 94.2129L27.316 96.2012C27.31 96.2595 27.23 96.3073 27.1371 96.3073Z" fill="#17282F"/>
<path d="M38.3776 96.3073H37.9137C37.8212 96.3073 37.7504 96.2595 37.7564 96.2012L37.9544 94.2129C37.96 94.1546 38.0404 94.1068 38.1323 94.1068H38.5963C38.6887 94.1068 38.7591 94.1546 38.7541 94.2129L38.5555 96.2012C38.55 96.2595 38.4696 96.3073 38.3776 96.3073Z" fill="#17282F"/>
<g filter="url(#filter0_d)">
<path d="M89.997 61.5732L93.8927 56.4013C97.959 50.938 111.225 32.3232 111.225 22.146C111.226 8.8994 102.697 0 90.0018 0C77.3061 0 68.7772 8.8994 68.7772 22.147C68.7772 33.1064 84.356 54.0593 86.1279 56.4061L89.997 61.5732ZM76.5979 22.2826C76.5979 14.8054 82.6106 8.72139 90.0018 8.72139C97.393 8.72139 103.406 14.8054 103.406 22.2826C103.406 29.7599 97.393 35.8439 90.0018 35.8439C82.6106 35.8439 76.5979 29.7609 76.5979 22.2826Z" fill="#909090"/>
</g>
<path d="M131.775 46.9929C131.775 46.9929 123.783 46.6394 120.671 52.4387C117.56 58.238 120.106 70.8265 120.106 70.8265C120.106 70.8265 121.6 71.2508 125.45 70.8265C125.45 70.8265 126.612 81.0104 127.036 86.6684C127.461 92.3263 126.188 108.593 127.319 110.997C127.319 110.997 126.895 107.603 134.533 109.017C142.171 110.431 152.072 109.724 153.628 107.603C153.628 107.603 151.223 95.1553 150.375 85.3954C149.526 75.6359 149.668 69.1292 146.839 63.8955C144.01 58.6623 140.403 53.2874 140.403 53.2874L131.775 46.9929Z" fill="white"/>
<path d="M138.069 42.0423C138.069 42.0423 135.665 45.3664 134.675 45.7199C133.684 46.0734 131.775 46.9929 131.775 46.9929C131.775 46.9929 134.038 53.1456 140.757 55.2677L140.403 53.2874L141.181 52.58C141.181 52.58 143.444 55.409 144.93 55.2677C146.415 55.126 148.93 53.0752 151.279 50.4584C153.628 47.8415 156.387 41.1227 156.387 41.1227C156.387 41.1227 153.204 41.4766 148.89 38.7894C148.89 38.7894 147.122 40.2036 144.081 43.1031L142.808 42.3253C142.808 42.3253 145 40.6984 144.434 38.7894C143.869 36.8799 141.72 35.6424 139.342 38.5772C137.681 40.628 138.069 42.0423 138.069 42.0423Z" fill="#AD5849"/>
<path d="M156.033 35.2531C153.205 34.5457 154.124 32.4949 150.729 30.585C147.334 28.676 144.718 27.5443 142.525 32.141C142.525 32.141 140.403 31.0802 139.272 32.8484C138.141 34.6166 136.372 40.2037 136.797 43.1031C136.816 43.238 136.873 43.3634 136.963 43.4797C137.585 42.711 138.07 42.0423 138.07 42.0423C138.07 42.0423 137.681 40.628 139.343 38.5772C141.721 35.6424 143.869 36.8799 144.435 38.7894C145 40.6984 142.808 42.3253 142.808 42.3253L144.081 43.1031C147.122 40.2037 148.89 38.7894 148.89 38.7894C153.205 41.4767 156.387 41.1228 156.387 41.1228C156.387 41.1228 155.765 42.6365 154.861 44.5056C155.73 44.432 159.64 43.9368 159.64 40.9815C159.64 37.6577 158.862 35.9604 156.033 35.2531Z" fill="#35201E"/>
<path d="M141.181 52.58C141.181 52.58 140.298 51.4129 139.838 49.5743C139.838 49.5743 139.661 51.2716 140.403 53.2874L141.181 52.58Z" fill="#9A4942"/>
<path d="M132.977 62.6935C133.227 63.7066 133.338 64.7293 133.416 65.7542C133.481 66.7805 133.511 67.8086 133.402 68.8463C133.151 67.8331 133.04 66.8105 132.963 65.7856C132.9 64.7597 132.87 63.7312 132.977 62.6935Z" fill="#5B96B0"/>
<path d="M162.115 74.61L169.293 70.862L170 72.0995L162.716 75.9893L162.115 74.61Z" fill="#1F1E30"/>
<path d="M120.106 70.8266C120.106 70.8266 122.51 81.4348 124.208 85.5367C125.905 89.6387 126.047 91.6191 132.695 90.4874C139.342 89.3561 157.73 82.5665 157.73 82.5665C157.73 82.5665 160.135 83.3447 161.903 81.7887C163.671 80.2326 164.307 77.4036 164.307 77.4036C164.307 77.4036 166.005 76.838 166.288 75.8481C166.571 74.8577 165.793 74.7164 164.873 74.7164C163.954 74.7164 160.842 74.7873 160.842 74.7873C160.842 74.7873 161.054 73.4434 160.135 73.1604C159.215 72.8778 156.387 72.6652 155.892 72.9482C155.396 73.2313 153.204 78.4645 153.204 78.4645C153.204 78.4645 148.466 79.8083 144.081 80.3739C139.696 80.94 134.958 80.8146 134.958 80.8146L133.402 68.8462C133.402 68.8462 129.158 71.4631 120.106 70.8266Z" fill="#AD5849"/>
<path d="M158.932 74.8576C159.244 74.6668 159.561 74.615 159.879 74.5955C160.197 74.5905 160.517 74.6191 160.842 74.7872C160.531 74.9789 160.213 75.0307 159.895 75.0493C159.577 75.0534 159.258 75.0252 158.932 74.8576Z" fill="#9A4942"/>
<path d="M164.307 77.4036C163.91 77.6176 163.501 77.693 163.089 77.7362C162.676 77.7648 162.26 77.7603 161.832 77.6158C162.229 77.4014 162.638 77.3259 163.051 77.2837C163.464 77.256 163.88 77.2605 164.307 77.4036Z" fill="#9A4942"/>
<path d="M156.41 123.303C154.246 117.675 152.391 111.388 151.638 108.745C148.009 109.926 140.567 110.134 134.533 109.017C127.271 107.672 127.297 110.672 127.317 110.971L127.32 110.997C127.32 110.997 129.253 119.719 134.911 128.584C140.568 137.447 141.888 140.088 141.888 140.088C141.888 140.088 135.853 147.82 131.704 156.118C127.555 164.416 124.726 171.205 124.726 171.205C124.726 171.205 127.932 176.486 132.082 175.732C132.082 175.732 151.13 154.421 156.41 147.065C161.691 139.711 159.239 130.658 156.41 123.303Z" fill="#2E3F78"/>
<path d="M135.997 171.318L137.645 179.692C141.794 181.861 145 179.692 145 179.692L148.909 156.404C144.509 161.623 139.417 167.441 135.997 171.318Z" fill="#2E3F78"/>
<path d="M124.726 171.205L123.124 174.223C123.124 174.223 122.558 177.9 124.726 178.938C126.896 179.975 130.007 178.938 130.007 178.938L132.082 175.732C127.933 176.486 124.726 171.205 124.726 171.205Z" fill="#AD5849"/>
<path d="M133.402 189.709C131.516 184.9 131.988 179.808 130.95 179.148C130.848 179.083 130.69 178.989 130.489 178.875L130.007 179.62C130.007 179.62 126.896 180.657 124.726 179.62C122.558 178.582 123.124 174.905 123.124 174.905L118.691 179.62C118.503 184.617 131.61 197.441 133.496 197.63C135.382 197.818 136.136 196.876 136.608 195.744C137.08 194.613 135.288 194.518 133.402 189.709Z" fill="#282727"/>
<path d="M137.645 179.692L138.117 184.596C138.117 184.596 140.474 186.01 142.926 185.161C145.378 184.313 145.378 182.562 145.378 182.562L145 179.692C145 179.692 141.794 181.861 137.645 179.692Z" fill="#AD5849"/>
<path d="M158.39 189.698C156.033 188.745 151.884 187.449 149.998 185.598C148.112 183.747 147.169 182.226 145.377 182.562C145.377 182.562 145.378 184.313 142.926 185.161C140.474 186.01 138.117 184.596 138.117 184.596V192.611C138.117 192.611 142.266 194.592 149.338 194.592C156.41 194.592 158.108 195.063 158.862 194.592C159.616 194.12 160.748 190.652 158.39 189.698Z" fill="#282727"/>
<path fill-rule="evenodd" clip-rule="evenodd" d="M37.2011 42.5561C37.2011 42.5561 48.9277 41.489 44.5623 53.1832C43.3451 56.4429 38.7295 53.3893 36.5509 55.1803C36.5509 55.1803 33.8565 56.719 35.1141 58.895C35.1141 58.895 32.8938 58.2288 33.5325 55.5202C33.5325 55.5202 34.0058 53.7168 32.4246 53.3769C30.8442 53.0384 30.0107 56.525 32.0856 57.1783C32.0856 57.1783 30.8404 57.9637 32.635 60.6514C36.0617 65.7856 28.5227 69.9187 28.5227 69.9187C28.5227 69.9187 35.0347 75.1498 27.5035 81.5135C23.9521 84.5133 27.8295 87.9854 20.932 91.296C17.2955 93.041 10.5236 85.297 16.0998 79.9047C17.9318 78.1326 13.6555 76.1707 13.3878 72.1624C13.1506 68.6066 17.5798 66.7557 16.2944 64.5762C14.7512 61.9598 13.0631 60.5394 17.5765 54.8198C20.8671 50.6497 15.1977 46.0594 26.9883 42.0325C29.9459 41.0232 34.0511 41.9955 37.2011 42.5561Z" fill="#6C3B48"/>
<defs>
<filter id="filter0_d" x="64.7772" y="0" width="50.4482" height="69.5732" filterUnits="userSpaceOnUse" color-interpolation-filters="sRGB">
<feFlood flood-opacity="0" result="BackgroundImageFix"/>
<feColorMatrix in="SourceAlpha" type="matrix" values="0 0 0 0 0 0 0 0 0 0 0 0 0 0 0 0 0 0 127 0"/>
<feOffset dy="4"/>
<feGaussianBlur stdDeviation="2"/>
<feColorMatrix type="matrix" values="0 0 0 0 0 0 0 0 0 0 0 0 0 0 0 0 0 0 0.25 0"/>
<feBlend mode="normal" in2="BackgroundImageFix" result="effect1_dropShadow"/>
<feBlend mode="normal" in="SourceGraphic" in2="effect1_dropShadow" result="shape"/>
</filter>
</defs>
</svg>
