<svg width="235" height="211" viewBox="0 0 235 211" fill="none" xmlns="http://www.w3.org/2000/svg">
<path fill-rule="evenodd" clip-rule="evenodd" d="M195.301 165.491H184.005L176.718 125.773C170.523 136.34 161.049 145.086 149.389 149.823L146.474 165.491H135.542C133.356 165.491 131.534 166.949 131.534 169.135V180.431H198.945V169.135C198.945 166.949 197.123 165.491 195.301 165.491Z" fill="#303030"/>
<path fill-rule="evenodd" clip-rule="evenodd" d="M138.829 95.7L92.6414 119.693C91.7268 120.168 91.0497 121.101 90.7201 122.143C90.3905 123.185 90.5182 123.99 91.3407 125.014C98.0843 136.319 109.053 145.139 121.908 149.204C151.44 158.543 182.993 142.152 192.332 112.62C196.398 99.7657 195.837 85.8299 190.227 73.3551C190.1 72.5504 189.167 71.8734 188.125 71.5438C187.083 71.2141 186.278 71.3418 185.016 71.7071L138.829 95.7Z" fill="#008EED"/>
<path fill-rule="evenodd" clip-rule="evenodd" d="M170.403 79.3139L158.971 85.2528C169.15 102.612 168.386 135.238 165.31 144.966C167.487 144.126 171.332 131.966 171.882 130.229C175.397 119.111 176.413 95.3551 170.403 79.3139Z" fill="#5DBEFF"/>
<path fill-rule="evenodd" clip-rule="evenodd" d="M124.118 61.2385C120.991 60.2497 117.79 61.9126 116.911 64.692C116.032 67.4714 117.695 70.6725 120.017 71.789L115.96 107.577L120.076 105.439L123.729 73.3451L136.082 97.1247L138.825 95.6994L139.283 95.4618L126.93 71.6822L155.636 87.2573L159.404 85.0094L127.791 67.7506C128.323 64.8613 126.897 62.1175 124.118 61.2385Z" fill="#404040"/>
<path fill-rule="evenodd" clip-rule="evenodd" d="M141.961 29.0448C145.435 30.1435 148.636 28.4806 149.625 25.3538C150.614 22.2269 149.061 18.6784 145.587 17.5797C130.3 12.7453 114.425 14.604 101.164 21.4931C87.9019 28.3822 77.1434 40.649 72.309 55.9358C71.3201 59.0626 72.983 62.2637 76.1099 63.2526C79.5841 64.3513 82.7852 62.6884 83.7741 59.5616C87.6196 47.4016 95.9996 37.8222 106.517 32.3584C117.035 26.8947 129.801 25.1992 141.961 29.0448ZM136.028 47.8058C139.502 48.9046 142.813 46.8943 143.802 43.7674C144.791 40.6406 143.128 37.4395 139.654 36.3407C129.578 33.1544 118.879 34.357 110.191 38.8705C101.045 43.6216 94.0188 51.3362 90.7226 61.759C89.7338 64.8859 91.7441 68.1969 94.8709 69.1857C97.9978 70.1746 101.199 68.5117 102.188 65.3849C104.495 58.0889 109.6 52.8241 115.545 49.7358C121.599 46.3002 129.079 45.6084 136.028 47.8058Z" fill="#909090"/>
<path fill-rule="evenodd" clip-rule="evenodd" d="M77.0122 179.441C77.0122 179.441 55.6592 162.745 53.7878 162.152C53.3163 162.003 54.5856 164.674 53.5727 167.424C51.1878 173.896 48.0718 177.239 46.5041 180.056C45.8238 181.278 41.2401 184.754 41.4957 182.829C42.0928 178.323 48.4333 153.824 50.619 152.888C57.2969 150.027 74.1694 160.309 79.8923 162.198C85.609 164.084 85.1258 170.631 84.9674 172.079C84.7296 174.253 80.5136 179.468 77.0122 179.441Z" fill="#F57D7C"/>
<path fill-rule="evenodd" clip-rule="evenodd" d="M82.8233 163.545C82.8233 163.545 56.658 149.025 50.5001 150.512C48.6462 150.96 45.6825 158.554 42.8973 171.661L51.7825 174.015C51.7825 174.015 55.6927 167.034 53.974 162.863L70.4255 175.763C70.4255 175.763 86.9643 172.942 82.8233 163.545Z" fill="#2E3F78"/>
<path fill-rule="evenodd" clip-rule="evenodd" d="M83.039 170.912L83.0336 170.908L83.0374 170.91L83.0247 170.902L83.0285 170.905L83.0152 170.894L83.018 170.897L83.0047 170.886L83.0069 170.887L82.9936 170.877L82.9967 170.879L82.97 170.855L82.9424 170.828L82.9447 170.83L82.9158 170.8L82.8862 170.768L82.8566 170.734L82.7919 170.66L82.7252 170.581L82.6572 170.502L82.622 170.462L82.5864 170.422L82.5508 170.383L82.5153 170.346L82.4793 170.31L82.4428 170.276L82.4072 170.244L82.3881 170.228L82.3685 170.213L82.3503 170.199L82.3307 170.186L82.3107 170.174L82.2924 170.163L82.1041 170.056L82.0072 170.003L81.9084 169.948L81.8088 169.894L81.7072 169.839L81.6049 169.784L81.5013 169.73L81.3977 169.677L81.2932 169.624L81.188 169.573L81.0828 169.523L80.9785 169.475L80.8739 169.429L80.7703 169.385L80.7185 169.364L80.6674 169.343L80.5629 169.301L80.4592 169.259L80.4386 169.251L80.3572 169.218L80.2549 169.176L80.1535 169.133L80.0528 169.09L79.9527 169.048L79.8535 169.004L79.7552 168.961L79.6567 168.917L79.4619 168.828L79.2687 168.739L79.0775 168.647L78.8886 168.556L78.7014 168.462L78.5155 168.368L78.3303 168.272L78.1475 168.176L77.9652 168.078L77.7835 167.979L77.6029 167.879L77.4228 167.778L77.3163 167.716L77.242 167.676L77.0606 167.578L76.8794 167.478L76.6979 167.377L76.5164 167.275L76.3341 167.171L76.1519 167.067L75.9687 166.961L75.7853 166.854L75.6016 166.746L75.4161 166.637L75.0423 166.415L74.663 166.188L74.4991 166.091L74.335 165.994L74.1695 165.897L74.1326 165.876L74.0037 165.802L73.8375 165.708L73.6712 165.614L73.5044 165.521L73.337 165.429L73.1697 165.338L73.0023 165.247L72.8342 165.156L72.6661 165.067L72.4971 164.978L72.3283 164.89L72.1593 164.801L71.9896 164.714L71.8202 164.627L71.6505 164.54L71.4802 164.455L71.3099 164.369L71.1395 164.285L70.9686 164.2L70.736 164.086L70.6272 164.033L70.2834 163.868L69.9398 163.706L69.5947 163.545L69.2505 163.385L68.9047 163.226L68.5594 163.067L68.2127 162.91L67.8669 162.754L67.5211 162.599L67.1747 162.444L66.4822 162.135L65.7898 161.826L65.0989 161.518L64.7546 161.364L64.4102 161.208L64.0666 161.053L63.7237 160.896L63.6179 160.848L63.5127 160.799L63.4073 160.748L63.3024 160.697L63.1972 160.645L63.092 160.593L62.9868 160.54L62.8819 160.487L62.7773 160.433L62.6728 160.378L62.4627 160.267L62.253 160.155L62.043 160.041L61.8336 159.925L61.6232 159.809L61.2025 159.574L60.7796 159.34L60.5676 159.222L60.3546 159.106L60.1411 158.99L59.927 158.876L59.8189 158.82L59.7642 158.791L59.7115 158.763L59.6035 158.708L59.4945 158.653L59.3858 158.598L59.2768 158.544L59.1679 158.491L59.0584 158.438L58.9488 158.385L58.8385 158.333L58.7273 158.283L58.617 158.233L58.5059 158.184L58.394 158.135L58.2824 158.087L58.1698 158.041L58.0571 157.995L57.9437 157.95L57.8298 157.907L57.7158 157.864L57.6019 157.822L57.4863 157.782L57.3715 157.742L57.2552 157.704L57.1392 157.667L57.0219 157.631L56.905 157.597L56.7874 157.564L56.718 157.545L56.6482 157.527L56.5788 157.509L56.5092 157.492L56.4389 157.476L56.3691 157.46L56.2988 157.445L56.2292 157.43L56.1589 157.416L56.0887 157.403L56.0184 157.39L55.9479 157.378L55.8777 157.366L55.8074 157.355L55.7364 157.345L55.6662 157.334L55.5959 157.326L55.5248 157.317L55.4547 157.309L55.3835 157.301L55.3124 157.295L55.2424 157.288L55.1712 157.282L55.1001 157.277L55.0291 157.273L54.9588 157.27L54.8877 157.266L54.8167 157.264L54.7456 157.262L54.6746 157.26L54.6035 157.26H54.5332H54.4622L54.3911 157.262L54.3202 157.263L54.249 157.266L54.179 157.269L54.1078 157.273L54.0371 157.277L53.9666 157.282L53.8954 157.288L53.8247 157.294L53.7543 157.301L53.684 157.309L53.6131 157.317L53.5428 157.325L53.4725 157.336L53.4024 157.346L53.3322 157.357L53.2617 157.369L53.1914 157.38L53.1214 157.393L53.0516 157.407L52.9815 157.421L52.9121 157.436L52.8425 157.451L52.8165 157.457L52.7729 157.467L52.7033 157.484L52.6339 157.502L52.5644 157.52L52.4957 157.539L52.4263 157.559L52.3573 157.579L52.2864 157.6L52.2406 157.616L52.1932 157.634L52.1465 157.654L52.1025 157.675L52.0587 157.698L52.0173 157.723L51.9768 157.749L51.9375 157.777L51.9002 157.805L51.8637 157.835L51.8292 157.867L51.7959 157.898L51.764 157.932L51.7329 157.966L51.7044 158L51.6762 158.036L51.6491 158.072L51.6239 158.109L51.5995 158.147L51.5759 158.184L51.5539 158.222L51.5326 158.262L51.5125 158.3L51.4934 158.34L51.475 158.379L51.4571 158.419L51.4403 158.46L51.4242 158.5L51.4089 158.541L51.3942 158.581L51.3802 158.621L51.366 158.663L51.3411 158.743L51.3182 158.825L51.2964 158.906L51.2766 158.986L51.2575 159.066L51.2399 159.144L51.2068 159.295L51.1763 159.438L51.1607 159.505L51.1463 159.569L51.1307 159.629L51.1154 159.686L51.0991 159.739L51.0912 159.764L51.0836 159.786L50.988 160.052L50.8901 160.32L50.7918 160.586L50.6909 160.853L50.5899 161.12L50.4876 161.387L50.384 161.654L50.2804 161.921L50.0707 162.456L50.064 162.474L49.8639 162.993L49.6571 163.532L49.5542 163.802L49.4512 164.073L49.3489 164.343L49.2475 164.615L49.1466 164.886L49.0473 165.159L48.9482 165.432L48.8788 165.627L48.8508 165.706L48.756 165.982L48.6627 166.257L48.6164 166.395L48.5708 166.533L48.5259 166.672L48.4812 166.81L48.4363 166.95L48.3929 167.089L48.3496 167.228L48.3071 167.368L48.265 167.507L48.2233 167.648L48.1821 167.788L48.1416 167.928L48.1021 168.069L48.0631 168.211L48.0249 168.352L47.9875 168.493L47.9655 168.57L47.9426 168.648L47.9177 168.727L47.8913 168.806L47.8626 168.887L47.8324 168.967L47.801 169.049L47.7669 169.132L47.7323 169.216L47.6956 169.3L47.658 169.385L47.6189 169.471L47.5902 169.532L47.579 169.557L47.5379 169.643L47.4952 169.731L47.4528 169.818L47.4085 169.907L47.3633 169.995L47.2715 170.174L47.1763 170.355L47.0796 170.536L46.8837 170.902L46.785 171.086L46.6869 171.271L46.5904 171.455L46.4954 171.639L46.4481 171.732L46.4016 171.823L46.3569 171.916L46.312 172.008L46.2686 172.1L46.2257 172.192L46.1837 172.283L46.1432 172.375L46.1034 172.466L46.0654 172.556L46.0285 172.647L45.9931 172.738L45.9587 172.828L45.9262 172.917L45.8953 173.007L45.8662 173.096L45.8388 173.184L45.813 173.273L45.7897 173.36L45.7676 173.447L45.7578 173.491L45.7485 173.535L45.7389 173.578L45.731 173.621L45.7229 173.664L45.7156 173.707L45.7089 173.75L45.7031 173.792L45.6974 173.835L45.6923 173.877L45.6878 173.919L45.6842 173.962L45.6815 174.004L45.6793 174.045L45.6778 174.087L45.6765 174.128L45.7619 174.22L45.8542 174.133L45.8555 174.095L45.8577 174.056L45.8613 174.017L45.865 173.977L45.869 173.939L45.8735 173.899L45.8795 173.859L45.8853 173.819L45.892 173.779L45.8991 173.74L45.9073 173.699L45.9153 173.658L45.9239 173.617L45.9335 173.577L45.944 173.535L45.9542 173.494L45.9769 173.41L46.0011 173.328L46.0276 173.243L46.0562 173.158L46.0865 173.073L46.1178 172.988L46.1519 172.902L46.187 172.814L46.2233 172.728L46.2615 172.641L46.3013 172.553L46.3416 172.464L46.3836 172.376L46.4265 172.287L46.4706 172.199L46.5166 172.109L46.5621 172.02L46.6093 171.93L46.6571 171.84L46.7058 171.75L46.8045 171.569L46.9052 171.389L47.0071 171.209L47.1105 171.028L47.3167 170.666L47.4185 170.487L47.5188 170.307L47.6167 170.13L47.6644 170.041L47.7125 169.952L47.759 169.864L47.8045 169.776L47.8488 169.689L47.8612 169.663L47.8924 169.601L47.9348 169.514L47.9764 169.427L48.016 169.341L48.0543 169.255L48.092 169.169L48.1272 169.084L48.1617 169L48.1943 168.915L48.2244 168.831L48.2537 168.747L48.2802 168.664L48.3051 168.583L48.3462 168.443L48.3882 168.305L48.4307 168.166L48.4734 168.027L48.5175 167.89L48.5615 167.752L48.6064 167.615L48.652 167.478L48.6983 167.34L48.7447 167.204L48.7916 167.067L48.8394 166.931L48.8882 166.795L48.9366 166.66L48.986 166.524L49.0352 166.387L49.1361 166.118L49.2384 165.847L49.2684 165.77L49.3411 165.578L49.4456 165.309L49.551 165.04L49.6568 164.772L49.7643 164.505L49.8725 164.237L49.9813 163.97L50.0903 163.704L50.3095 163.171L50.5225 162.656L50.5296 162.639L50.7445 162.105L50.8521 161.838L50.9589 161.571L51.064 161.304L51.1692 161.036L51.273 160.769L51.3753 160.501L51.4767 160.233L51.5768 159.963L51.5879 159.932L51.5995 159.898L51.6193 159.833L51.6384 159.766L51.6569 159.697L51.6747 159.627L51.6913 159.555L51.7245 159.41L51.7581 159.262L51.7756 159.189L51.7938 159.116L51.8129 159.042L51.8328 158.97L51.8541 158.899L51.877 158.83L51.8881 158.796L51.8997 158.763L51.9124 158.73L51.9248 158.697L51.9382 158.666L51.9506 158.636L51.9653 158.604L51.9784 158.575L51.994 158.545L52.008 158.518L52.0242 158.491L52.0391 158.465L52.056 158.438L52.0716 158.415L52.0891 158.39L52.1054 158.368L52.1247 158.345L52.1407 158.325L52.1608 158.304L52.1783 158.286L52.1977 158.268L52.217 158.251L52.2374 158.235L52.2575 158.219L52.2788 158.205L52.3004 158.191L52.3231 158.178L52.3462 158.167L52.3698 158.155L52.3949 158.144L52.4207 158.135L52.4509 158.126L52.5132 158.107L52.5768 158.089L52.6411 158.072L52.7053 158.055L52.7698 158.038L52.8341 158.023L52.899 158.008L52.9399 157.999L52.9635 157.994L53.0287 157.979L53.0927 157.966L53.1581 157.954L53.2232 157.941L53.2881 157.93L53.3533 157.919L53.4183 157.909L53.4834 157.899L53.5483 157.89L53.6137 157.882L53.6793 157.874L53.7447 157.867L53.8103 157.86L53.8761 157.854L53.941 157.849L54.0071 157.844L54.0729 157.839L54.1387 157.835L54.2045 157.833L54.2697 157.83L54.3355 157.829L54.4013 157.827H54.4674H54.533L54.5988 157.827L54.6655 157.828L54.7313 157.83L54.7971 157.832L54.8632 157.835L54.929 157.838L54.9946 157.842L55.0604 157.846L55.1263 157.852L55.1923 157.857L55.2581 157.863L55.3239 157.87L55.3897 157.878L55.4558 157.886L55.5216 157.894L55.5865 157.904L55.6526 157.913L55.7184 157.923L55.7843 157.934L55.8494 157.945L55.9152 157.958L55.9806 157.97L56.0465 157.982L56.1114 157.996L56.1765 158.01L56.2419 158.025L56.3068 158.04L56.372 158.056L56.4371 158.073L56.5023 158.089L56.5668 158.106L56.631 158.125L56.7429 158.156L56.853 158.19L56.9635 158.225L57.0738 158.259L57.1832 158.297L57.2921 158.336L57.4018 158.374L57.5107 158.415L57.6188 158.456L57.7276 158.499L57.8356 158.543L57.943 158.587L58.0504 158.633L58.1578 158.68L58.265 158.727L58.3717 158.775L58.4792 158.824L58.585 158.874L58.6917 158.924L58.7982 158.976L58.9041 159.029L59.0099 159.081L59.116 159.134L59.2212 159.188L59.3272 159.243L59.4322 159.298L59.4843 159.325L59.5376 159.354L59.6426 159.41L59.8536 159.523L60.064 159.638L60.2737 159.754L60.4841 159.872L60.9041 160.107L61.3248 160.344L61.5358 160.462L61.7471 160.579L61.959 160.695L62.1714 160.811L62.384 160.925L62.4916 160.981L62.5979 161.037L62.7055 161.093L62.8129 161.147L62.9201 161.202L63.0282 161.254L63.1364 161.308L63.2454 161.36L63.3544 161.411L63.4624 161.463L63.8065 161.622L64.1509 161.779L64.4954 161.936L64.8405 162.093L65.5307 162.404L66.2214 162.716L66.9116 163.027L67.2569 163.184L67.6012 163.34L67.9454 163.498L68.2899 163.656L68.6327 163.814L68.9754 163.974L69.3185 164.135L69.6599 164.297L70.0006 164.459L70.3405 164.624L70.4486 164.678L70.6806 164.79L70.8494 164.872L71.0188 164.956L71.1878 165.039L71.3566 165.123L71.5256 165.208L71.6937 165.293L71.8616 165.379L72.0292 165.465L72.1965 165.552L72.3639 165.639L72.5307 165.727L72.6972 165.815L72.8631 165.904L73.029 165.994L73.1942 166.084L73.3592 166.175L73.5238 166.267L73.6881 166.359L73.8157 166.431L73.8518 166.451L74.0163 166.544L74.18 166.637L74.343 166.732L74.7259 166.954L75.1046 167.172L75.2918 167.279L75.4793 167.387L75.6661 167.492L75.8518 167.596L76.0372 167.699L76.2229 167.802L76.4081 167.902L76.5934 168.002L76.7784 168.102L76.9645 168.199L77.0406 168.239L77.1526 168.294L77.3421 168.384L77.5317 168.473L77.7228 168.563L77.9145 168.65L78.107 168.736L78.3012 168.821L78.4957 168.905L78.6918 168.988L78.8905 169.07L79.0897 169.151L79.2909 169.23L79.4939 169.309L79.5969 169.347L79.6998 169.386L79.8026 169.423L79.9071 169.462L80.0114 169.5L80.1166 169.537L80.2224 169.574L80.3069 169.603L80.3283 169.611L80.4357 169.646L80.5431 169.682L80.5927 169.699L80.6425 169.715L80.7439 169.752L80.8459 169.791L80.9496 169.831L81.0532 169.874L81.1577 169.917L81.262 169.963L81.3665 170.009L81.4711 170.056L81.5737 170.105L81.6767 170.153L81.7781 170.202L81.8782 170.251L81.9767 170.299L82.1679 170.394L82.1648 170.392L82.1804 170.401L82.1768 170.398L82.1924 170.408L82.1884 170.405L82.2048 170.415L82.2018 170.413L82.2182 170.424L82.2151 170.422L82.2324 170.434L82.2293 170.432L82.2462 170.445L82.2435 170.442L82.276 170.468L82.3085 170.496L82.3063 170.494L82.3405 170.525L82.3748 170.557L82.4085 170.591L82.4437 170.626L82.4793 170.663L82.5504 170.738L82.6207 170.815L82.6905 170.887L82.7245 170.922L82.7579 170.955L82.7912 170.987L82.8246 171.017L82.8564 171.043L82.8729 171.057L82.8891 171.069L82.9062 171.079L82.9224 171.09L82.9396 171.1L82.9573 171.109L82.9752 171.116L82.9943 171.124L83.0152 171.129L83.0365 171.132L83.0592 171.133L83.0837 171.131L83.1081 171.125L83.1319 171.115L83.1541 171.102L83.1733 171.086L83.1893 171.068L83.2026 171.049L83.2137 171.028L83.2224 171.007L83.23 170.985L83.2349 170.966L83.1646 170.841L83.039 170.911V170.912Z" fill="#2C5DAC"/>
<path fill-rule="evenodd" clip-rule="evenodd" d="M62.3036 114.969C62.8508 114.165 66.0545 112.142 67.0082 111.632C70.2248 109.911 74.752 109.723 76.8183 112.667C79.3419 116.264 79.2844 120.737 75.6606 128.256C74.4156 130.839 69.5435 133.901 68.4654 132.97C67.6238 132.245 62.1757 125.339 61.258 122.017C61.258 122.017 60.26 118.02 62.3036 114.969Z" fill="#F89EA4"/>
<path fill-rule="evenodd" clip-rule="evenodd" d="M73.1899 133.356C65.8339 126.143 76.1113 120.197 75.607 119.24C75.378 118.807 80.9824 130.066 81.3481 133.864C81.3611 134 81.3717 134.137 81.3766 134.273C81.4229 135.343 81.1031 136.342 79.909 137.175C79.3293 137.572 80.3104 138.01 77.9143 137.981C75.2922 137.949 74.3991 134.599 73.2085 133.373C73.2061 133.371 73.2486 133.413 73.1899 133.356Z" fill="#F89EA4"/>
<path fill-rule="evenodd" clip-rule="evenodd" d="M75.4472 130.303C74.2148 131.213 74.5666 143.866 75.1901 144.809C76.7425 147.158 87.9143 173.492 88.8425 173.466C92.7393 173.35 99.4275 171.089 98.2941 168.648C97.9138 167.831 102.413 165.505 88.2141 134.094C87.0008 131.41 83.7609 131.012 82.9617 130.619C81.5352 129.917 76.1303 129.801 75.4472 130.303Z" fill="#F89EA4"/>
<path fill-rule="evenodd" clip-rule="evenodd" d="M62.2266 176.171C55.596 177.052 48.9861 178.815 42.309 179.389C34.0022 180.104 25.3454 181.171 17.1486 182.754C13.4466 183.469 9.55286 183.709 6.01601 184.392C5.54695 184.483 3.31599 184.746 3.16172 185.298C3.08259 185.576 7.17277 186.467 7.65323 186.555C10.3009 187.042 13.0174 186.968 15.6793 187.365C18.3252 187.762 21.1716 188.588 23.838 188.662C28.7081 188.798 33.5725 189.373 38.3583 188.061C39.8606 187.649 41.2678 186.833 42.7632 186.423C43.1697 186.311 43.7879 185.634 44.2075 185.75C50.2531 187.442 58.3723 186.345 64.8695 186.599C73.8207 186.95 83.6116 189.132 92.3137 186.296C95.4517 185.272 100.777 182.04 100.005 178.043C99.7203 176.57 100.202 166.294 99.5406 165.847C98.7034 165.282 67.1726 175.515 62.2266 176.171Z" fill="#F89EA4"/>
<path fill-rule="evenodd" clip-rule="evenodd" d="M80.4565 162.91C80.4565 162.91 79.1816 156.675 78.1487 154.604C77.4145 153.131 73.9851 143.208 74.1414 135.656C74.1739 134.097 79.0046 129.183 81.6557 129.366C91.8696 130.069 96.0786 149.903 96.4084 151.443C96.5723 152.21 99.3948 156.974 99.5851 157.73C101.032 163.465 99.1622 163.418 98.6921 164.297C97.6238 166.296 94.7564 163.796 92.8276 164.603C88.6848 166.336 84.1396 164.809 80.4565 162.91Z" fill="#24253E"/>
<path fill-rule="evenodd" clip-rule="evenodd" d="M81.0419 163.13C81.0419 163.13 82.3885 168.793 82.1528 169.63C81.9949 170.194 70.7886 172.158 65.4213 173.204C56.2156 174.997 46.8603 177.934 37.5504 179.099C33.7978 179.568 21.8341 180.75 20.8669 180.941C20.7645 180.962 22.2525 188.923 22.2525 188.923C22.2525 188.923 31.1684 191.496 42.4819 187.405C42.8525 187.272 43.2282 187.03 43.6165 187.087C45.7796 187.404 65.4449 188.124 75.5026 188.81C102.009 190.616 101.383 178.514 101.179 175.722C101.091 174.521 99.9248 162.995 99.9248 162.995C99.9248 162.995 90.7465 162.255 81.0419 163.13Z" fill="#2C5DAC"/>
<path fill-rule="evenodd" clip-rule="evenodd" d="M94.5723 161.135L94.5656 161.152L94.5669 161.149L94.5596 161.166L94.5612 161.162L94.545 161.197L94.5472 161.193L94.5294 161.228L94.5102 161.263L94.5111 161.261L94.4896 161.298L94.4673 161.334L94.4182 161.413L94.3657 161.494L94.3399 161.535L94.3134 161.577L94.2876 161.62L94.2625 161.663L94.239 161.707L94.216 161.752L94.1956 161.797L94.1858 161.82L94.1765 161.843L94.1682 161.866L94.1602 161.89L94.1536 161.914L94.1469 161.938L94.142 161.963L94.1375 161.988L94.1345 162.013L94.1324 162.036L94.128 162.1L94.1222 162.161L94.1158 162.222L94.1087 162.282L94.1006 162.342L94.0911 162.402L94.0808 162.461L94.0704 162.52L94.0589 162.579L94.0464 162.637L94.0337 162.696L94.0199 162.754L94.009 162.799L94.0059 162.812L93.993 162.871L93.9797 162.928L93.9657 162.987L93.951 163.044L93.9356 163.102L93.9201 163.16L93.9041 163.217L93.8696 163.332L93.8342 163.448L93.7976 163.563L93.7591 163.677L93.7201 163.793L93.6806 163.908L93.599 164.141L93.5174 164.375L93.4771 164.493L93.4373 164.613L93.3975 164.733L93.3599 164.853L93.3233 164.975L93.305 165.037L93.2874 165.099L93.2705 165.161L93.2543 165.223L93.2383 165.286L93.2227 165.349L93.2074 165.413L93.1936 165.477L93.1796 165.542L93.1663 165.606L93.154 165.671L93.1429 165.737L93.132 165.803L93.1218 165.87L93.1169 165.906L93.1125 165.943L93.1096 165.979L93.1064 166.015L93.1047 166.052L93.1031 166.087V166.124L93.1024 166.16L93.1031 166.196L93.1049 166.233L93.108 166.303L93.114 166.373L93.1216 166.443L93.1298 166.513L93.1405 166.583L93.1507 166.651L93.1629 166.719L93.1756 166.788L93.1891 166.855L93.2152 166.988L93.2421 167.12L93.2549 167.184L93.267 167.249L93.2781 167.313L93.2885 167.376L93.2975 167.439L93.3059 167.502L93.3126 167.564L93.3179 167.625L93.3217 167.687L93.3233 167.718V167.714L93.3241 167.746V167.775V167.806L93.3228 167.837L93.3237 167.833L93.3221 167.864L93.3206 167.891L93.3179 167.923L93.3155 167.95L93.3119 167.982L93.2988 168.078L93.2859 168.174L93.2719 168.271L93.2574 168.367L93.2418 168.464L93.2261 168.56L93.2092 168.657L93.1916 168.753L93.1731 168.85L93.1549 168.946L93.136 169.043L93.1162 169.139L93.0958 169.236L93.0746 169.332L93.0531 169.429L93.0313 169.525L92.9937 169.686L92.9864 169.718L92.9412 169.911L92.8941 170.105L92.8458 170.298L92.7958 170.491L92.7444 170.685L92.6924 170.878L92.6388 171.071L92.5843 171.264L92.5291 171.458L92.4743 171.651L92.4182 171.844L92.3052 172.23L92.1929 172.615L92.0813 173.001L92.0261 173.194L91.9719 173.386L91.9183 173.578L91.8654 173.771L91.814 173.964L91.7642 174.155L91.7397 174.251L91.7155 174.348L91.6681 174.546L91.621 174.748L91.5736 174.953L91.4774 175.375L91.4275 175.59L91.3771 175.806L91.3235 176.023L91.297 176.132L91.2692 176.242L91.2405 176.351L91.2118 176.46L91.1818 176.569L91.1516 176.678L91.1202 176.786L91.0884 176.894L91.0555 177.002L91.0217 177.11L90.987 177.216L90.9516 177.322L90.915 177.427L90.8767 177.531L90.8387 177.635L90.798 177.738L90.7577 177.839L90.7148 177.94L90.6715 178.039L90.6274 178.138L90.581 178.236L90.5574 178.283L90.5336 178.331L90.5096 178.378L90.4851 178.425L90.46 178.471L90.4351 178.517L90.4091 178.563L90.3833 178.608L90.3568 178.653L90.3302 178.697L90.303 178.742L90.2756 178.786L90.2476 178.828L90.2198 178.871L90.1909 178.914L90.1622 178.955L90.1327 178.996L90.1026 179.037L90.0729 179.077L90.042 179.117L90.011 179.157L89.9792 179.195L89.9475 179.234L89.915 179.272L89.8827 179.309L89.8494 179.345L89.8162 179.381L89.782 179.417L89.7475 179.452L89.7129 179.486L89.6773 179.52L89.6412 179.553L89.605 179.586L89.5681 179.618L89.5311 179.65L89.4927 179.68L89.4551 179.711L89.416 179.74L89.3768 179.769L89.3368 179.797L89.2961 179.825L89.2557 179.852L89.2143 179.879L89.1723 179.905L89.13 179.93L89.0871 179.954L89.0435 179.978L88.9993 180.001L88.9541 180.024L88.9099 180.045L88.8632 180.066L88.8158 180.086L88.7665 180.106L88.7162 180.125L88.6644 180.143L88.6105 180.161L88.5565 180.179L88.5 180.194L88.4427 180.21L88.3842 180.225L88.325 180.24L88.2643 180.254L88.2029 180.267L88.1403 180.28L88.0764 180.292L88.0115 180.304L87.9464 180.315L87.8797 180.325L87.8134 180.336L87.7451 180.345L87.6771 180.354L87.6077 180.363L87.5381 180.37L87.4687 180.379L87.3975 180.386L87.3266 180.393L87.1832 180.405L87.0388 180.416L86.8932 180.426L86.7466 180.434L86.6003 180.442L86.4538 180.448L86.3079 180.453L86.1629 180.458L86.0188 180.463L85.7347 180.47L85.4587 180.477L85.1939 180.485L85.066 180.49L84.9417 180.496L84.8209 180.501L84.7049 180.509L84.247 180.538L83.7898 180.567L83.3329 180.595L82.8748 180.623L82.4169 180.65L81.9597 180.677L81.0433 180.729L80.1267 180.78L79.2095 180.83L77.3743 180.93L76.4554 180.981L75.5366 181.032L74.618 181.085L74.1579 181.113L73.6976 181.141L73.2384 181.169L72.7781 181.198L72.318 181.227L71.8579 181.258L71.398 181.289L70.9377 181.321L70.4768 181.354L70.0167 181.388L69.465 181.429L68.9133 181.469L68.3612 181.508L67.8095 181.548L67.2586 181.586L66.7074 181.624L65.6045 181.698L64.503 181.771L63.4016 181.842L62.3001 181.912L61.1993 181.981L58.9988 182.118L56.7988 182.255L55.6995 182.324L55.0353 182.364L54.6003 182.392L53.5011 182.463L52.4026 182.535L51.3032 182.608L50.2047 182.682L49.6562 182.72L49.1062 182.759L48.5576 182.798L48.0081 182.838L47.4591 182.879L46.9101 182.92L46.3606 182.961L45.8118 183.004L45.263 183.047L44.7133 183.091L44.1642 183.136L43.616 183.181L43.0666 183.229L42.5173 183.275L41.9685 183.324L41.4197 183.373L40.8698 183.424L40.3211 183.476L39.7717 183.528L39.2224 183.582L38.673 183.637L38.1243 183.693L37.5749 183.75L37.0256 183.808L36.4762 183.868L35.9269 183.929L35.3781 183.991L34.8282 184.055L34.6147 184.08L34.3995 184.105L34.1832 184.128L33.9658 184.15L33.7477 184.172L33.5286 184.194L33.3094 184.215L33.0885 184.237L32.6439 184.278L32.1965 184.317L31.7468 184.356L31.2953 184.393L30.3834 184.47L29.9257 184.508L29.4674 184.547L29.0069 184.588L28.5464 184.63L28.3158 184.651L28.0852 184.673L27.8547 184.696L27.6236 184.718L27.3936 184.742L27.163 184.766L26.9331 184.791L26.7031 184.817L26.4731 184.844L26.2437 184.871L26.0137 184.899L25.7849 184.928L25.5566 184.959L25.3283 184.989L25.1 185.021L24.8735 185.054L24.6463 185.089L24.4197 185.124L24.1943 185.16L23.9689 185.198L23.7446 185.238L23.5203 185.278L23.2972 185.32L23.0757 185.362L22.8531 185.407L22.6334 185.453L22.4137 185.501L22.1945 185.55L21.9765 185.6L21.7601 185.653L21.6514 185.68L21.5433 185.707L21.4362 185.735L21.3286 185.763L21.2216 185.791L21.1152 185.82L21.0087 185.849L20.9125 185.877L20.9023 185.88L20.7964 185.909L20.6905 185.941L20.5857 185.972L20.4804 186.003L20.3666 186.216L20.5789 186.331L20.6831 186.299L20.7867 186.268L20.8909 186.238L20.9951 186.208L21.0047 186.205L21.0992 186.179L21.2045 186.15L21.3099 186.122L21.4157 186.093L21.5216 186.066L21.6275 186.039L21.734 186.012L21.8404 185.986L22.055 185.935L22.2708 185.885L22.4865 185.837L22.704 185.79L22.922 185.745L23.1418 185.701L23.3615 185.659L23.5829 185.618L23.8044 185.579L24.027 185.54L24.2507 185.503L24.4738 185.468L24.6987 185.433L24.9236 185.399L25.149 185.367L25.3755 185.335L25.6027 185.305L25.8293 185.276L26.0575 185.247L26.2852 185.219L26.5135 185.193L26.7424 185.167L26.9718 185.142L27.2006 185.117L27.43 185.094L27.6594 185.07L27.8894 185.047L28.1188 185.026L28.3488 185.004L28.5788 184.983L29.0382 184.942L29.4976 184.903L29.9559 184.864L30.4135 184.827L31.3244 184.753L31.7775 184.715L32.2278 184.677L32.6758 184.639L33.1221 184.598L33.343 184.578L33.5644 184.557L33.7842 184.535L34.0039 184.513L34.2219 184.49L34.4394 184.467L34.6551 184.443L34.8703 184.42L35.4197 184.357L35.9679 184.295L36.5161 184.235L37.0648 184.176L37.6131 184.119L38.1618 184.063L38.7106 184.008L39.2588 183.954L39.8081 183.902L40.3558 183.85L40.9045 183.8L41.4527 183.751L42.0015 183.702L42.5497 183.654L43.0985 183.608L43.6473 183.562L44.1955 183.518L44.7444 183.475L45.2926 183.431L45.8414 183.389L46.3904 183.347L46.939 183.307L47.4871 183.267L48.0361 183.227L48.5852 183.189L49.1338 183.151L49.6828 183.113L50.2318 183.076L51.3299 183.003L52.428 182.932L53.5265 182.863L54.6254 182.794L55.0597 182.768L55.7239 182.727L56.8242 182.66L59.0234 182.527L61.2246 182.393L62.3261 182.326L63.4277 182.257L64.5297 182.187L65.632 182.117L66.7357 182.044L67.2876 182.006L67.8393 181.969L68.391 181.931L68.9435 181.892L69.4957 181.852L70.0483 181.813L70.5075 181.779L70.9673 181.747L71.427 181.716L71.8864 181.686L72.3456 181.656L72.805 181.627L73.2644 181.599L73.7236 181.572L74.1832 181.544L74.6424 181.519L75.5613 181.467L76.4792 181.417L77.3971 181.367L79.2332 181.27L80.1505 181.221L81.068 181.172L81.9853 181.121L82.4432 181.094L82.9017 181.068L83.3595 181.041L83.8174 181.013L84.2755 180.985L84.7324 180.956L84.845 180.95L84.9617 180.944L85.0831 180.938L85.2083 180.935L85.4709 180.927L85.746 180.92L86.0306 180.913L86.1763 180.908L86.3237 180.904L86.4716 180.899L86.621 180.892L86.7707 180.885L86.9199 180.878L87.07 180.867L87.2196 180.857L87.3675 180.843L87.4422 180.837L87.5154 180.83L87.5888 180.821L87.6617 180.813L87.7344 180.805L87.806 180.795L87.8778 180.785L87.949 180.775L88.0197 180.763L88.0893 180.751L88.1587 180.739L88.2276 180.726L88.2959 180.712L88.3631 180.698L88.4296 180.682L88.4954 180.666L88.5606 180.65L88.6246 180.632L88.6875 180.614L88.7498 180.594L88.8111 180.574L88.8718 180.553L88.9307 180.53L88.9893 180.508L89.046 180.484L89.1015 180.459L89.1547 180.433L89.2065 180.407L89.2581 180.381L89.3083 180.353L89.3588 180.325L89.4082 180.295L89.4562 180.265L89.5045 180.235L89.5516 180.204L89.599 180.172L89.6448 180.139L89.6897 180.106L89.7348 180.071L89.7791 180.037L89.8227 180.001L89.8654 179.965L89.9074 179.929L89.9488 179.892L89.9904 179.853L90.0309 179.814L90.0709 179.776L90.1098 179.736L90.1482 179.695L90.1865 179.655L90.2243 179.613L90.2612 179.572L90.2974 179.528L90.3335 179.486L90.3684 179.443L90.4029 179.399L90.4375 179.355L90.4709 179.31L90.504 179.265L90.5369 179.219L90.5687 179.173L90.6007 179.127L90.6314 179.079L90.6623 179.032L90.6926 178.984L90.7222 178.936L90.7515 178.888L90.7805 178.839L90.8087 178.79L90.8365 178.74L90.8636 178.69L90.8912 178.64L90.9177 178.59L90.9434 178.538L90.969 178.487L90.9948 178.435L91.0444 178.332L91.0922 178.228L91.1385 178.122L91.1834 178.015L91.2269 177.908L91.269 177.8L91.3101 177.691L91.3497 177.582L91.388 177.472L91.4253 177.361L91.4616 177.25L91.4969 177.14L91.5314 177.028L91.5643 176.916L91.5966 176.804L91.6283 176.692L91.6584 176.581L91.6884 176.469L91.7178 176.357L91.7464 176.246L91.7742 176.135L91.8278 175.914L91.8798 175.696L91.9296 175.479L92.0273 175.057L92.0742 174.853L92.1218 174.653L92.1687 174.459L92.1922 174.365L92.2156 174.272L92.2654 174.083L92.3168 173.893L92.3691 173.704L92.422 173.514L92.4765 173.322L92.5313 173.131L92.6428 172.747L92.756 172.362L92.8701 171.975L92.9265 171.782L92.9823 171.588L93.0382 171.393L93.0931 171.198L93.1476 171.003L93.2005 170.808L93.2525 170.611L93.3039 170.415L93.3537 170.218L93.4015 170.021L93.4484 169.825L93.4556 169.791L93.4916 169.627L93.512 169.528L93.5327 169.429L93.5523 169.328L93.5712 169.229L93.5896 169.13L93.6079 169.031L93.6254 168.931L93.6421 168.832L93.6583 168.732L93.6737 168.632L93.689 168.532L93.7028 168.432L93.7166 168.332L93.7291 168.232L93.7413 168.132L93.7522 168.032L93.7557 167.995L93.7595 167.957L93.7618 167.919L93.7631 167.882L93.7638 167.845L93.7644 167.808L93.7638 167.771L93.7628 167.734L93.7611 167.697L93.7589 167.66L93.7535 167.589L93.7462 167.517L93.7368 167.446L93.7264 167.375L93.7153 167.306L93.7024 167.237L93.689 167.168L93.6755 167.1L93.6608 167.032L93.6321 166.9L93.6038 166.769L93.5896 166.705L93.5767 166.641L93.565 166.578L93.5538 166.516L93.5441 166.454L93.5351 166.392L93.5274 166.332L93.522 166.271L93.5176 166.209L93.516 166.183L93.5152 166.154L93.5147 166.123V166.127L93.5152 166.095V166.065L93.5165 166.038L93.5178 166.007L93.52 165.982L93.5229 165.951L93.526 165.925L93.5345 165.863L93.5434 165.803L93.5534 165.741L93.5638 165.68L93.575 165.62L93.5872 165.56L93.5996 165.5L93.6121 165.44L93.6261 165.38L93.6399 165.32L93.6546 165.261L93.6699 165.202L93.6855 165.143L93.7017 165.084L93.7355 164.965L93.77 164.848L93.8067 164.731L93.8433 164.614L93.8818 164.498L93.9588 164.264L94.0368 164.029L94.0757 163.911L94.1137 163.793L94.1505 163.674L94.1876 163.555L94.2221 163.435L94.2557 163.315L94.2717 163.254L94.2872 163.193L94.3021 163.132L94.3166 163.071L94.3306 163.009L94.3446 162.947L94.3568 162.885L94.3599 162.871L94.3671 162.822L94.3766 162.758L94.3855 162.696L94.3935 162.632L94.4006 162.568L94.4062 162.503L94.4122 162.439L94.4166 162.375L94.4199 162.309L94.4228 162.244L94.4248 162.178L94.4255 162.113V162.048V162.031L94.4246 162.038L94.426 162.02L94.4255 162.026L94.4273 162.007L94.426 162.013L94.4291 161.993L94.4282 161.998L94.4317 161.979L94.4304 161.984L94.4349 161.964L94.4339 161.968L94.4384 161.948L94.4378 161.952L94.4435 161.932L94.4422 161.936L94.4489 161.915L94.4473 161.919L94.4547 161.898L94.4525 161.902L94.4671 161.864L94.484 161.823L94.4818 161.827L94.5011 161.786L94.5202 161.746L94.5407 161.705L94.5623 161.664L94.585 161.622L94.6305 161.537L94.6757 161.454L94.6979 161.412L94.7184 161.37L94.7375 161.328L94.7551 161.287L94.7706 161.246L94.778 161.226L94.784 161.205L94.7897 161.184L94.7949 161.163L94.7984 161.142L94.8015 161.121L94.8037 161.1L94.8042 161.079V161.056L94.802 161.035L94.7982 161.012L94.7929 160.99L94.7848 160.969L94.776 160.948L94.764 160.927L94.7502 160.907L94.735 160.89L94.7182 160.873L94.6995 160.858L94.6795 160.844L94.659 160.831L94.6395 160.823L94.5023 160.866L94.5451 161.003L94.5549 161.008L94.5632 161.013L94.5689 161.018L94.574 161.023L94.5779 161.026L94.5801 161.03L94.5823 161.033L94.5838 161.037L94.5852 161.04L94.5867 161.044L94.5874 161.048L94.5883 161.055V161.06L94.5874 161.075L94.5883 161.068L94.587 161.084L94.5874 161.077L94.5847 161.093L94.5852 161.087L94.5825 161.102L94.583 161.098L94.5794 161.114L94.5803 161.109L94.5759 161.125L94.5767 161.122L94.5705 161.139L94.5723 161.135Z" fill="#528ACA"/>
<path fill-rule="evenodd" clip-rule="evenodd" d="M85.6088 162.343L85.611 162.358L85.6101 162.354L85.6133 162.384L85.6126 162.38L85.6148 162.413L85.6157 162.446L85.6188 162.518L85.6211 162.555L85.6242 162.592L85.627 162.611L85.6308 162.63L85.6346 162.649L85.64 162.666L85.652 162.708L85.6631 162.749L85.6726 162.79L85.6815 162.83L85.69 162.872L85.6976 162.913L85.7042 162.955L85.71 162.996L85.7153 163.039L85.7204 163.079L85.7244 163.123L85.7282 163.165L85.7311 163.208L85.7342 163.25L85.738 163.336L85.7405 163.423L85.7423 163.511L85.7431 163.599L85.7433 163.687L85.7431 163.866V163.89L85.7447 163.956L85.7471 164.047L85.7516 164.158L85.7587 164.269L85.7669 164.381L85.7769 164.492L85.788 164.605L85.8012 164.718L85.8161 164.831L85.8316 164.944L85.8492 165.057L85.8566 165.099L85.8692 165.169L85.8917 165.282L85.9148 165.394L85.9395 165.507L85.9648 165.619L85.9918 165.731L86.0189 165.842L86.0471 165.954L86.076 166.065L86.106 166.176L86.1118 166.197L86.1394 166.285L86.1746 166.394L86.2094 166.502L86.2446 166.61L86.2808 166.717L86.3531 166.928L86.4269 167.138L86.5005 167.343L86.5741 167.547L86.5899 167.587L86.6077 167.628L86.6264 167.669L86.6464 167.709L86.6678 167.748L86.69 167.787L86.7131 167.824L86.7376 167.861L86.7629 167.897L86.7883 167.934L86.815 167.969L86.8416 168.004L86.869 168.038L86.8966 168.073L86.9522 168.14L87.0077 168.205L87.0642 168.269L87.1723 168.392L87.2243 168.451L87.2732 168.509L87.3191 168.566L87.34 168.592L87.3608 168.62L87.446 168.735L87.5328 168.848L87.6204 168.962L87.7093 169.075L87.8 169.187L87.8912 169.297L87.9379 169.352L87.9846 169.407L88.0313 169.461L88.0787 169.515L88.1271 169.568L88.1752 169.621L88.2241 169.674L88.273 169.727L88.3219 169.779L88.3727 169.829L88.4229 169.881L88.4731 169.931L88.5243 169.981L88.5763 170.031L88.6284 170.08L88.6809 170.128L88.7342 170.175L88.7876 170.224L88.8418 170.27L88.8966 170.316L88.9521 170.362L89.0077 170.407L89.0642 170.451L89.1203 170.494L89.1776 170.537L89.2359 170.579L89.2937 170.621L89.3529 170.662L89.4129 170.702L89.4485 170.725L89.4729 170.741L89.5338 170.78L89.5946 170.818L89.6568 170.855L89.7195 170.891L89.7827 170.927L89.8463 170.961L89.9108 170.995L89.9759 171.028L90.042 171.059L90.1085 171.091L90.176 171.121L90.2432 171.15L90.3121 171.178L90.3818 171.205L90.4513 171.231L90.5223 171.256L90.5943 171.281L90.6659 171.304L90.7395 171.326L90.8083 171.345L90.8125 171.347L90.8868 171.369L90.9621 171.39L90.9881 171.396L91.0148 171.403L91.0422 171.408L91.0702 171.414L91.1267 171.423L91.1849 171.43L91.245 171.436L91.3064 171.441L91.3693 171.445L91.4335 171.448L91.498 171.449L91.563 171.451L91.629 171.45H91.6955L91.7318 171.449L91.8271 171.448L91.9566 171.445L92.0831 171.443L92.2045 171.441L92.2621 171.44H92.3186L92.3715 171.441L92.4226 171.443L92.47 171.444L92.5158 171.448H92.5132L92.5438 171.451L92.5558 171.449L92.5959 171.444L92.5928 171.444L92.6128 171.442H92.6106L92.6299 171.441L92.6268 171.44H92.6455L92.6424 171.44L92.6601 171.44L92.6572 171.44L92.6735 171.44L92.6704 171.44L92.6859 171.442L92.6824 171.44L92.6971 171.443L92.6935 171.441L92.7069 171.444L92.8096 171.407L92.7685 171.305L92.7551 171.297L92.7391 171.287L92.7213 171.278L92.7035 171.27L92.6844 171.261L92.6648 171.253L92.6444 171.245L92.6228 171.238L92.579 171.222L92.5656 171.219L92.531 171.216L92.4805 171.214L92.428 171.213H92.3733L92.317 171.214L92.2587 171.215L92.1987 171.217L92.0762 171.223L91.9495 171.229L91.8207 171.235L91.7267 171.238L91.6906 171.24L91.6261 171.242L91.5628 171.243L91.4996 171.243H91.4376L91.3775 171.242L91.3184 171.24L91.2608 171.237L91.2045 171.233L91.1527 171.227L91.1011 171.219L91.0771 171.216H91.0789L91.0544 171.211L91.0306 171.206L91.01 171.202L90.9381 171.183L90.8661 171.164L90.8616 171.162L90.7967 171.142L90.7271 171.119L90.6591 171.094L90.591 171.069L90.5243 171.042L90.4584 171.014L90.3931 170.987L90.3279 170.957L90.2643 170.928L90.2012 170.897L90.1385 170.865L90.0771 170.832L90.0162 170.799L89.9554 170.764L89.8954 170.729L89.8369 170.693L89.7785 170.656L89.7206 170.619L89.6635 170.581L89.6064 170.542L89.5841 170.526L89.5508 170.502L89.496 170.462L89.4413 170.42L89.3871 170.379L89.3337 170.336L89.2813 170.292L89.2288 170.248L89.1767 170.204L89.1256 170.158L89.0754 170.112L89.0246 170.066L88.9753 170.018L88.9255 169.971L88.877 169.922L88.8289 169.873L88.7809 169.825L88.7333 169.775L88.6866 169.725L88.6406 169.673L88.5946 169.623L88.5488 169.571L88.5034 169.518L88.4589 169.466L88.4144 169.413L88.3707 169.359L88.3271 169.305L88.2839 169.251L88.2426 169.199L88.2408 169.196L88.1977 169.141L88.1554 169.086L88.0718 168.975L87.9893 168.862L87.9079 168.748L87.8274 168.633L87.7482 168.518L87.6689 168.401L87.6473 168.368L87.6235 168.335L87.5759 168.271L87.5266 168.206L87.4749 168.141L87.372 168.012L87.3208 167.947L87.2719 167.882L87.2237 167.818L87.2008 167.787L87.1785 167.755L87.1567 167.724L87.1363 167.692L87.1162 167.662L87.0976 167.631L87.078 167.598L87.0803 167.603L87.0624 167.57L87.0447 167.539L87.0477 167.544L87.0313 167.512L87.0195 167.487L87.0062 167.456L86.9964 167.432L86.9853 167.4L86.919 167.199L86.8521 166.993L86.7856 166.785L86.72 166.575L86.6873 166.469L86.6562 166.362L86.6248 166.256L86.5942 166.15L86.5697 166.062L86.5636 166.043L86.5303 165.936L86.4981 165.829L86.4669 165.723L86.4362 165.615L86.4071 165.508L86.3782 165.401L86.3504 165.293L86.3242 165.186L86.2991 165.079L86.2839 165.012L86.2742 164.972L86.2497 164.866L86.2259 164.759L86.2041 164.653L86.183 164.548L86.1645 164.442L86.1472 164.336L86.1314 164.231L86.1172 164.126L86.1052 164.022L86.0969 163.936L86.0907 163.871L86.0885 163.849L86.0718 163.672L86.0635 163.582L86.0544 163.493L86.0446 163.402L86.034 163.311L86.0222 163.221L86.0151 163.175L86.0078 163.13L85.9995 163.084L85.9913 163.039L85.9824 162.994L85.9726 162.948L85.9622 162.903L85.9511 162.858L85.939 162.813L85.9257 162.768L85.9123 162.723L85.8972 162.678L85.8817 162.634L85.8654 162.591L85.8661 162.593L85.8615 162.581L85.8638 162.588L85.8592 162.574L85.861 162.58L85.857 162.564L85.8579 162.569L85.8547 162.554L85.8556 162.559L85.8498 162.527L85.8503 162.531L85.8459 162.498L85.8383 162.43L85.8338 162.394L85.8292 162.357L85.8234 162.322L85.8189 162.304L85.8145 162.285L85.8092 162.267L85.8032 162.248L85.795 162.23L85.7847 162.211L85.7705 162.192L85.7534 162.173L85.7467 162.168L85.7305 162.156L85.7038 162.143L85.6742 162.136L85.6446 162.135L85.6171 162.139L85.5988 162.145L85.5296 162.271L85.6555 162.339H85.6471L85.6355 162.338L85.6235 162.333L85.6133 162.327L85.6066 162.321L85.603 162.317L85.6012 162.313L85.6022 162.315L85.6057 162.325L85.6035 162.319L85.6066 162.33L85.6053 162.325L85.6079 162.338L85.6075 162.333L85.6097 162.347L85.6088 162.343Z" fill="#528ACA"/>
<path fill-rule="evenodd" clip-rule="evenodd" d="M85.104 165.287L85.1362 165.45L85.1689 165.611L85.2025 165.772L85.237 165.93L85.2736 166.09L85.3101 166.247L85.349 166.406L85.3893 166.565L85.4311 166.722L85.4749 166.88L85.5205 167.038L85.5445 167.117L85.5683 167.196L85.5936 167.276L85.619 167.355L85.6443 167.435L85.671 167.515L85.7002 167.6L85.7299 167.684L85.7604 167.767L85.7906 167.848L85.8227 167.928L85.854 168.006L85.8869 168.083L85.9194 168.159L85.9537 168.234L85.9873 168.307L86.0219 168.379L86.057 168.449L86.0935 168.519L86.1297 168.588L86.152 168.63L86.1662 168.655L86.204 168.722L86.2418 168.788L86.2805 168.852L86.3199 168.916L86.3599 168.978L86.4 169.04L86.4418 169.101L86.4831 169.161L86.5249 169.22L86.5676 169.278L86.6108 169.336L86.6545 169.393L86.699 169.449L86.7435 169.505L86.7895 169.56L86.8356 169.614L86.8814 169.668L86.929 169.722L86.9765 169.775L87.0246 169.828L87.0735 169.881L87.1224 169.932L87.1731 169.983L87.2234 170.035L87.2736 170.085L87.3257 170.136L87.3777 170.187L87.4836 170.287L87.5912 170.387L87.7015 170.487L87.729 170.511L87.814 170.586L87.9292 170.687L88.047 170.788L88.1662 170.89L88.4122 171.098L88.6679 171.313L88.8467 171.465L88.9436 171.547L89.0446 171.631L89.097 171.674L89.1504 171.716L89.1936 171.751L89.2047 171.759L89.2607 171.801L89.3179 171.842L89.375 171.883L89.4335 171.924L89.4929 171.963L89.5527 172.003L89.6136 172.041L89.6743 172.078L89.7364 172.114L89.7987 172.148L89.8618 172.182L89.9245 172.213L89.9587 172.229L89.9883 172.243L90.0528 172.269L90.0853 172.283L90.118 172.294L90.1506 172.306L90.1831 172.317L90.2165 172.328L90.2489 172.338L90.2823 172.347L90.3148 172.355L90.3483 172.363L90.3815 172.37L90.4146 172.377L90.448 172.382L90.4813 172.387L90.5138 172.39L90.7217 172.411L90.9514 172.434L91.0393 172.443L91.0717 172.446L91.1931 172.459L91.3161 172.473L91.4381 172.488L91.5587 172.505L91.6179 172.514L91.6765 172.524L91.7335 172.533L91.7889 172.543L91.8436 172.554L91.8962 172.565L91.948 172.576L91.997 172.588L92.0444 172.6L92.0888 172.613L92.1333 172.627L92.1293 172.626L92.1709 172.64L92.2093 172.655L92.2058 172.653L92.2436 172.669L92.395 172.614L92.3383 172.462L92.2992 172.443L92.2561 172.423L92.2102 172.405L92.1631 172.388L92.1141 172.371L92.063 172.355L92.0103 172.339L91.9556 172.323L91.9 172.308L91.8431 172.294L91.7855 172.28L91.7264 172.267L91.6663 172.253L91.6049 172.241L91.482 172.216L91.3583 172.193L91.2341 172.172L91.1104 172.151L91.0779 172.146L90.9897 172.132L90.7613 172.098L90.5569 172.067L90.5289 172.062H90.5334L90.5058 172.057L90.4786 172.052L90.4822 172.053L90.4546 172.046L90.4275 172.039L90.4311 172.039L90.403 172.031L90.3754 172.022L90.3786 172.023L90.351 172.014L90.323 172.004L90.3259 172.006L90.2978 171.995L90.2703 171.983L90.2725 171.985L90.2454 171.973L90.2169 171.961L90.2191 171.962L90.192 171.949L90.1378 171.923L90.1128 171.91L90.0831 171.895L90.0288 171.866L89.9741 171.835L89.9194 171.803L89.8645 171.768L89.8098 171.733L89.7555 171.697L89.7015 171.659L89.6474 171.62L89.5941 171.581L89.5416 171.54L89.4886 171.499L89.4371 171.459L89.4264 171.451L89.3841 171.419L89.333 171.378L89.2823 171.337L89.1827 171.257L89.0866 171.178L88.9065 171.029L88.647 170.816L88.3995 170.612L88.2794 170.512L88.1622 170.414L88.0482 170.318L87.963 170.244L87.9354 170.221L87.8258 170.126L87.719 170.03L87.6145 169.935L87.5634 169.887L87.5123 169.84L87.4627 169.792L87.4129 169.743L87.3639 169.695L87.3156 169.647L87.2683 169.598L87.2209 169.549L87.1742 169.499L87.1289 169.448L87.0831 169.399L87.0386 169.348L86.9946 169.296L86.951 169.245L86.9078 169.192L86.8647 169.139L86.8233 169.085L86.7818 169.031L86.7411 168.976L86.7001 168.92L86.6601 168.863L86.6207 168.806L86.5821 168.747L86.5434 168.688L86.5058 168.628L86.4687 168.567L86.4315 168.504L86.4173 168.481L86.3951 168.441L86.3586 168.377L86.3239 168.311L86.2881 168.244L86.2538 168.177L86.2196 168.108L86.1856 168.038L86.152 167.966L86.1193 167.893L86.0873 167.818L86.0553 167.743L86.0235 167.665L85.9923 167.586L85.9616 167.506L85.9319 167.424L85.9036 167.347L85.8769 167.269L85.8502 167.191L85.824 167.114L85.7989 167.037L85.7735 166.96L85.725 166.805L85.6788 166.652L85.6339 166.497L85.591 166.343L85.5491 166.188L85.5096 166.033L85.4709 165.877L85.4326 165.719L85.396 165.561L85.3601 165.402L85.3253 165.242L85.2901 165.08L85.2556 164.915L85.2474 164.88L85.237 164.837L85.2123 164.739L85.1989 164.687L85.1847 164.632L85.172 164.577L85.1609 164.524L85.1511 164.472L85.1467 164.447L85.1474 164.449L85.1435 164.425L85.1413 164.401L85.1391 164.381L85.1384 164.363V164.347V164.334L85.1398 164.323L85.1411 164.317L85.142 164.313V164.313L85.1433 164.309L85.1411 164.314L85.142 164.313L85.1411 164.315V164.315L85.1402 164.316L85.1389 164.319L85.1362 164.323L85.1318 164.327L85.1264 164.332L85.1197 164.336L85.1145 164.339L85.172 164.208L85.0402 164.15L85.0284 164.155L85.0115 164.165L84.9966 164.175L84.9841 164.188L84.973 164.201L84.9641 164.214L84.9568 164.228L84.9501 164.242L84.9434 164.262L84.9421 164.266L84.9367 164.293L84.9341 164.318L84.9327 164.343L84.9318 164.369L84.9334 164.395L84.935 164.422L84.9379 164.449L84.941 164.477L84.9454 164.506L84.9545 164.563L84.9656 164.622L84.9786 164.679L84.991 164.736L85.0039 164.791L85.0268 164.888L85.0362 164.927L85.0428 164.96L85.0419 164.959L85.0724 165.124L85.104 165.287Z" fill="#528ACA"/>
<path fill-rule="evenodd" clip-rule="evenodd" d="M96.2827 162.152L96.282 162.153L96.2827 162.151V162.152ZM96.2814 162.153V162.154L96.282 162.15L96.2814 162.153ZM96.1041 163.062L96.0984 163.145L96.0935 163.229L96.0892 163.313L96.0857 163.397L96.0792 163.563L96.0746 163.73L96.0712 163.895L96.0679 164.061L96.0659 164.228L96.0614 164.505L96.0608 164.559L96.0572 164.725L96.0534 164.89L96.0483 165.056L96.0414 165.222L96.0372 165.305L96.0323 165.387L96.0272 165.471L96.0205 165.555L96.005 165.779L96.0019 165.82L95.9983 165.89L95.9927 166L95.9878 166.11L95.9836 166.218L95.9803 166.327L95.9781 166.435L95.9769 166.544L95.9763 166.653L95.9774 166.762L95.9796 166.872L95.9838 166.983L95.9845 166.997L95.9905 167.096L95.9992 167.209L96.0096 167.324L96.0141 167.369L96.0234 167.446L96.0292 167.493L96.0368 167.543L96.0459 167.596L96.0557 167.65L96.0675 167.703L96.0741 167.73L96.0808 167.755L96.0884 167.782L96.0964 167.807L96.1053 167.831L96.1159 167.854L96.127 167.879L96.1413 167.903L96.1568 167.925L96.1693 167.938L96.1813 167.951L96.196 167.963L96.2129 167.975L96.2329 167.985L96.256 167.993L96.2809 167.998L96.3076 167.998L96.3336 167.996L96.3565 167.989L96.3817 167.979L96.4039 167.967L96.4252 167.954L96.4444 167.94L96.463 167.924L96.4799 167.908L96.4962 167.891L96.5117 167.873L96.5255 167.854L96.5389 167.835L96.5522 167.816L96.5649 167.795L96.5765 167.774L96.5876 167.753L96.5987 167.731L96.6098 167.709L96.6296 167.663L96.6487 167.614L96.6663 167.565L96.6841 167.513L96.7001 167.461L96.7157 167.408L96.7297 167.354L96.7435 167.299L96.7566 167.244L96.769 167.19L96.7808 167.135L96.7839 167.123L96.7924 167.08L96.8131 166.975L96.8313 166.874L96.862 166.699L96.8753 166.628L96.8862 166.572L96.9044 166.484L96.9214 166.394L96.9367 166.304L96.9469 166.235L96.9507 166.213L96.9636 166.121L96.9754 166.029L96.9854 165.937L96.9943 165.845L97.0021 165.752L97.0085 165.659L97.0143 165.566L97.017 165.495L97.0192 165.473L97.0256 165.379L97.0308 165.285L97.0356 165.192L97.0399 165.098L97.0434 165.005L97.0463 164.911L97.0481 164.818L97.0501 164.724L97.0521 164.537L97.0532 164.417L97.0537 164.352L97.0554 163.985L97.0557 163.804L97.0581 163.624V163.587L97.0566 163.547L97.0552 163.506L97.0525 163.465L97.0497 163.424L97.0481 163.408L97.043 163.382L97.0265 163.299L96.9912 163.13L96.9743 163.045L96.9585 162.96L96.9509 162.919L96.9451 162.877L96.9389 162.837L96.9376 162.823L96.9336 162.796L96.9291 162.755L96.9298 162.757L96.9262 162.717L96.9236 162.677L96.924 162.68L96.9222 162.641L96.9229 162.602L96.9222 162.605L96.9242 162.566L96.9236 162.569L96.9274 162.531L96.9265 162.535L96.9309 162.497V162.5L96.9336 162.481L96.9331 162.483L96.9367 162.465L96.9358 162.467L96.9403 162.449L96.9396 162.451L96.944 162.434L96.9434 162.436L96.9476 162.418L96.9469 162.421L96.9529 162.403L96.9514 162.405L96.9574 162.388L96.9565 162.391L96.9632 162.374L96.9245 162.267L96.8173 162.307L96.8077 162.323L96.7988 162.342L96.7899 162.362L96.7819 162.38L96.7744 162.4L96.7679 162.419L96.7612 162.439L96.7546 162.46L96.7443 162.501L96.735 162.543L96.7277 162.585L96.7217 162.628L96.7165 162.672L96.713 162.716L96.7101 162.761L96.7088 162.805L96.7083 162.836V162.851V162.896L96.709 162.942L96.7108 162.987L96.7152 163.077L96.7208 163.166L96.7321 163.338L96.7366 163.419L96.7374 163.444L96.739 163.458L96.7443 163.495L96.7488 163.531L96.7523 163.567L96.7519 163.564L96.755 163.599L96.7572 163.631L96.765 163.81L96.7741 163.991L96.7919 164.357L96.8006 164.542L96.8075 164.726L96.8108 164.819L96.8131 164.911L96.8146 165.003L96.8164 165.095L96.8166 165.187L96.8168 165.279L96.8155 165.371L96.8135 165.462L96.8128 165.485L96.8086 165.554L96.8022 165.644L96.7942 165.735L96.7855 165.824L96.7753 165.914L96.7644 166.003L96.7512 166.091L96.7374 166.178L96.7339 166.201L96.7221 166.266L96.7043 166.352L96.6854 166.437L96.6641 166.523L96.6509 166.582L96.6349 166.654L96.5982 166.828L96.5771 166.926L96.5529 167.028L96.5431 167.069L96.5404 167.08L96.5278 167.131L96.514 167.183L96.5 167.235L96.4853 167.286L96.4706 167.336L96.4544 167.384L96.4384 167.431L96.4219 167.476L96.4043 167.52L96.4059 167.516L96.3883 167.557L96.3692 167.597L96.3714 167.593L96.361 167.612L96.3625 167.61L96.3521 167.628L96.3536 167.626L96.3432 167.643L96.3454 167.64L96.341 167.648L96.3396 167.643L96.3298 167.596L96.3216 167.549L96.3141 167.502L96.3081 167.455L96.3027 167.413L96.2952 167.34L96.2916 167.299L96.2829 167.188L96.2754 167.077L96.2707 166.982L96.2694 166.969L96.2631 166.861L96.2585 166.754L96.2547 166.648L96.2513 166.542L96.2505 166.436L96.2493 166.33L96.2498 166.224L96.2513 166.117L96.254 166.01L96.2569 165.901L96.2587 165.832L96.2602 165.791L96.2671 165.568L96.2698 165.482L96.2718 165.398L96.2731 165.313L96.2743 165.228L96.2758 165.06L96.2747 164.892L96.2727 164.725L96.2703 164.558L96.2685 164.505L96.2627 164.227L96.2594 164.061L96.2569 163.896L96.2551 163.73L96.2547 163.566L96.2551 163.401L96.2562 163.319L96.2576 163.235L96.2605 163.152L96.2631 163.07L96.2669 162.988L96.2703 162.904L96.2709 162.888V162.869L96.2703 162.827L96.2676 162.778L96.2647 162.722L96.2571 162.598L96.2493 162.465L96.2471 162.404V162.399L96.252 162.336L96.258 162.277L96.2616 162.25V162.252L96.2651 162.226L96.2696 162.202L96.2687 162.204L96.2731 162.182V162.185L96.2776 162.164L96.2769 162.168L96.2814 162.154V162.156V162.154L96.2827 162.153V162.152L96.288 162.146L96.284 162.149L96.2894 162.141L96.2863 162.145L96.2903 162.138L96.2872 162.144L96.2903 162.134L96.284 162.148L96.2863 162.14L96.2827 162.151L96.2729 162.01L96.1302 162.019L96.1226 162.029L96.1139 162.043L96.1079 162.056L96.1028 162.07L96.097 162.092L96.0935 162.115L96.0912 162.14L96.0904 162.164V162.19L96.0912 162.217L96.0928 162.245L96.095 162.276L96.1004 162.337L96.1073 162.402L96.1079 162.407L96.109 162.469L96.1119 162.604L96.1159 162.729L96.1175 162.783L96.1184 162.83L96.1179 162.869L96.1186 162.868L96.1179 162.882L96.117 162.896V162.894L96.1097 162.978L96.1041 163.062Z" fill="#528ACA"/>
<path fill-rule="evenodd" clip-rule="evenodd" d="M98.8778 167.691H98.8769H98.8778ZM98.8765 167.692L98.8721 167.694L98.8765 167.692ZM98.8289 162.48L98.8254 162.515L98.8211 162.551L98.8118 162.629L98.8 162.708L98.7876 162.789L98.7744 162.868L98.7502 163.019L98.7395 163.086L98.7313 163.146L98.7255 163.197L98.7233 163.221V163.241L98.7222 163.433L98.7228 163.624L98.7224 163.816L98.7213 164.008L98.7202 164.2L98.7177 164.391L98.7135 164.583L98.7108 164.679L98.7095 164.724L98.7079 164.774L98.7046 164.869L98.7006 164.964L98.6962 165.059L98.6906 165.154L98.6846 165.248L98.6775 165.343L98.6701 165.437L98.6617 165.531L98.6521 165.625L98.6421 165.718L98.6306 165.81L98.6179 165.902L98.605 165.995L98.6041 166L98.591 166.086L98.5765 166.178L98.5596 166.27L98.5465 166.344L98.5334 166.427L98.52 166.517L98.5138 166.565L98.5078 166.613L98.502 166.664L98.4971 166.715L98.4927 166.766L98.4885 166.82L98.4849 166.873L98.4827 166.928L98.4807 166.98L98.4811 166.982L98.4851 167.038L98.4905 167.092L98.4965 167.146L98.504 167.202L98.512 167.255L98.5218 167.31L98.5323 167.362L98.5452 167.414L98.5594 167.466L98.575 167.516L98.5839 167.541L98.5928 167.565L98.6023 167.59L98.6121 167.613L98.6223 167.636L98.6335 167.66L98.6455 167.682L98.6575 167.704L98.6699 167.726L98.6833 167.747L98.6975 167.768L98.7117 167.788L98.7273 167.808L98.7442 167.828L98.7613 167.846L98.774 167.858L98.7851 167.868L98.7976 167.876L98.8109 167.884L98.8256 167.892L98.8411 167.898L98.8576 167.902L98.8741 167.905L98.891 167.906H98.9079L98.9243 167.903L98.9397 167.899L98.9546 167.894L98.9699 167.887L98.9855 167.879L98.9921 167.875L99.0144 167.86L99.0335 167.843L99.0504 167.825L99.0668 167.806L99.0822 167.786L99.0964 167.765L99.1102 167.743L99.1236 167.72L99.1367 167.696L99.1493 167.671L99.162 167.644L99.1745 167.617L99.1869 167.589L99.2112 167.531L99.2347 167.469L99.2576 167.403L99.2794 167.336L99.3015 167.268L99.3135 167.231L99.3228 167.198L99.3435 167.129L99.3633 167.058L99.3824 166.989L99.4006 166.92L99.4177 166.855L99.4484 166.73L99.4749 166.619L99.4871 166.567L99.4947 166.527L99.5071 166.459L99.5136 166.418L99.5369 166.276L99.559 166.135L99.5792 165.994L99.5983 165.853L99.6163 165.712L99.6326 165.571L99.6475 165.43L99.6619 165.289L99.6746 165.149L99.6868 165.009L99.6968 164.869L99.7013 164.813L99.7062 164.727L99.7139 164.587L99.7204 164.447L99.726 164.307L99.7306 164.166L99.7348 164.026L99.7382 163.885L99.7408 163.744L99.742 163.604L99.7435 163.463L99.7446 163.323L99.7442 163.183L99.744 163.074L99.7417 163.041L99.7262 162.759L99.7102 162.475L99.693 162.193L99.677 161.908L99.6125 161.832L99.5501 161.91L99.5403 162.194L99.5289 162.477L99.5147 162.759L99.4974 163.04L99.4956 163.072L99.4934 163.18L99.49 163.32L99.4867 163.459L99.4825 163.599L99.4773 163.738L99.4713 163.877L99.4649 164.016L99.4578 164.154L99.45 164.293L99.4404 164.431L99.4313 164.569L99.4204 164.708L99.4133 164.792L99.4089 164.846L99.3973 164.985L99.3844 165.123L99.3706 165.26L99.3559 165.399L99.3401 165.537L99.3226 165.675L99.3046 165.813L99.2839 165.951L99.2628 166.09L99.2403 166.229L99.2167 166.367L99.2094 166.405L99.1969 166.471L99.1898 166.51L99.1816 166.562L99.1634 166.67L99.1422 166.794L99.1298 166.86L99.1167 166.927L99.1027 166.995L99.0889 167.064L99.0735 167.132L99.066 167.164L99.0575 167.2L99.0404 167.266L99.0235 167.331L99.0059 167.392L98.9881 167.45L98.9692 167.506L98.9708 167.503L98.961 167.529L98.9514 167.554L98.9523 167.552L98.9425 167.576L98.9332 167.598L98.9336 167.595L98.9234 167.617L98.9256 167.614L98.9147 167.635L98.9168 167.631L98.9065 167.65L98.9087 167.647L98.9065 167.65L98.9014 167.641L98.9036 167.644L98.8941 167.626L98.8963 167.629L98.8874 167.61L98.8887 167.613L98.8807 167.594L98.8821 167.597L98.8745 167.577L98.8763 167.58L98.8687 167.56L98.8701 167.562L98.8634 167.541L98.8652 167.545L98.8589 167.523L98.8598 167.526L98.8536 167.504L98.8554 167.507L98.85 167.485L98.8509 167.488L98.8463 167.467L98.8425 167.445L98.8434 167.449L98.8374 167.411L98.8365 167.405L98.8311 167.36L98.832 167.364L98.828 167.318L98.8258 167.27V167.275L98.8251 167.227L98.8256 167.179L98.8269 167.132L98.8291 167.084L98.8329 167.035L98.8378 166.986V166.985L98.8385 166.938L98.8391 166.889L98.8411 166.84L98.8443 166.792L98.8469 166.744L98.8511 166.697L98.8556 166.651L98.86 166.605L98.8652 166.562L98.8754 166.476L98.8863 166.398L98.8978 166.326L98.9123 166.231L98.9263 166.136L98.9379 166.044L98.9388 166.04L98.9488 165.943L98.959 165.847L98.9668 165.749L98.9741 165.653L98.9803 165.556L98.9864 165.459L98.9904 165.362L98.9946 165.264L98.9975 165.167L98.9997 165.07L99.0015 164.973L99.0021 164.876L99.0026 164.779L99.0024 164.727L99.0015 164.681L99.0008 164.584L98.9975 164.39L98.9924 164.197L98.9868 164.004L98.9803 163.812L98.9735 163.62L98.967 163.43L98.961 163.239V163.243L98.9608 163.227L98.9614 163.213L98.9643 163.172L98.9701 163.116L98.9781 163.052L98.997 162.901L99.0075 162.82L99.0175 162.737L99.0264 162.654L99.0342 162.573L99.037 162.534L99.0399 162.496L99.0413 162.459L99.0426 162.423L99.0433 162.388L99.0426 162.356L99.0411 162.325L99.0379 162.295L99.0348 162.279L99.0335 162.268L99.0297 162.252L99.0259 162.238L99.0208 162.224L99.0141 162.209L99.0059 162.193L98.9986 162.183L98.8574 162.159L98.8323 162.3L98.8309 162.297L98.8296 162.295L98.8287 162.293L98.8296 162.294L98.8287 162.293L98.8309 162.298L98.8318 162.302L98.8331 162.318L98.8347 162.337L98.8354 162.359L98.8347 162.387L98.8334 162.416L98.834 162.414L98.832 162.446L98.8289 162.48Z" fill="#528ACA"/>
<path fill-rule="evenodd" clip-rule="evenodd" d="M91.0849 163.898L91.1025 163.833L91.1216 163.762L91.1663 163.609L91.1892 163.529L91.2119 163.447L91.233 163.365L91.2428 163.324L91.2521 163.282L91.261 163.242L91.2684 163.201L91.2755 163.16L91.2815 163.12L91.286 163.081L91.2895 163.042L91.2917 163.004L91.2922 162.967L91.2906 162.929L91.2884 162.894L91.2853 162.876V162.875L91.283 162.857L91.2795 162.84L91.2755 162.824L91.1541 162.747L91.0774 162.868L91.0796 162.882L91.0791 162.878L91.0814 162.892L91.0804 162.888L91.0827 162.903L91.082 162.9L91.0827 162.91L91.0843 162.935V162.962L91.0829 162.991L91.0794 163.025L91.0798 163.021L91.0758 163.055L91.0698 163.09L91.0705 163.087L91.064 163.123L91.056 163.159L91.0564 163.157L91.048 163.195L91.0382 163.232L91.028 163.269L91.0175 163.307L90.9942 163.385L90.9693 163.463L90.9435 163.541L90.8928 163.691L90.8692 163.764L90.8481 163.833L90.8383 163.866L90.8296 163.899L90.8223 163.93L90.8156 163.96L90.8056 164.011L90.7967 164.06L90.7878 164.11L90.7805 164.16L90.7734 164.211L90.7674 164.26L90.7638 164.293L90.7616 164.31L90.7567 164.36L90.748 164.46L90.7416 164.56L90.7349 164.66L90.7302 164.759L90.7202 164.956L90.7151 165.054L90.7093 165.151L90.7022 165.247L90.6993 165.275L90.6944 165.342L90.69 165.388L90.6849 165.435L90.6791 165.482L90.6733 165.528L90.6651 165.585L90.6557 165.646L90.6462 165.711L90.6368 165.778L90.6282 165.849L90.621 165.92L90.6179 165.957L90.6151 165.994L90.6128 166.031L90.6115 166.068L90.611 166.106V166.143L90.6126 166.181L90.6148 166.219L90.6157 166.228L90.6179 166.257L90.6233 166.294L90.6291 166.332L90.6373 166.37L90.6462 166.407L90.6573 166.444L90.6702 166.481L90.6844 166.516L90.7013 166.553L90.72 166.586L90.7311 166.604L90.7413 166.621L90.7533 166.637L90.7667 166.654L90.7852 166.678L90.8074 166.7L90.8312 166.72L90.857 166.739L90.8859 166.755L90.9179 166.768L90.9513 166.776L90.9859 166.779L91.0198 166.778L91.0524 166.772L91.0829 166.762L91.1109 166.75L91.1361 166.735L91.1587 166.719L91.1796 166.701L91.1987 166.683L91.2159 166.664L91.2328 166.644L91.2484 166.623L91.263 166.601L91.277 166.58L91.2908 166.557L91.3042 166.534L91.3166 166.509L91.3293 166.485L91.3417 166.46L91.3649 166.409L91.3867 166.356L91.4082 166.3L91.4278 166.243L91.4478 166.187L91.4663 166.13L91.4823 166.078L91.4838 166.073L91.4998 166.016L91.5161 165.959L91.5441 165.853L91.5684 165.755L91.5888 165.671L91.6153 165.556L91.6399 165.455L91.6651 165.351L91.69 165.245L91.7142 165.138L91.7385 165.03L91.7625 164.921L91.7851 164.811L91.8052 164.715L91.8087 164.699L91.8298 164.586L91.8519 164.474L91.8723 164.36L91.8921 164.245L91.9119 164.13L91.9308 164.015L91.9481 163.899L91.9657 163.783L91.9819 163.667L91.9971 163.552L92.0115 163.435L92.0255 163.32L92.0378 163.204L92.0487 163.089L92.0587 162.974L92.068 162.86L92.076 162.746L92.0825 162.633L92.088 162.522L92.0894 162.482L92.0856 162.41L92.0787 162.3L92.072 162.191L92.0636 162.083L92.0545 161.977L91.9922 161.908L91.9308 161.978L91.923 162.083L91.9135 162.188L91.9012 162.295L91.8865 162.401L91.8763 162.471L91.8743 162.51L91.8663 162.619L91.857 162.729L91.8463 162.841L91.8345 162.952L91.8214 163.065L91.8076 163.177L91.7923 163.29L91.7756 163.404L91.7587 163.517L91.7407 163.632L91.7209 163.744L91.7011 163.859L91.6806 163.971L91.6586 164.085L91.6366 164.197L91.6133 164.31L91.5897 164.421L91.5655 164.532L91.5408 164.643L91.5372 164.658L91.5156 164.751L91.4907 164.86L91.4652 164.967L91.4396 165.073L91.4138 165.178L91.3873 165.282L91.3604 165.384L91.3331 165.486L91.3044 165.6L91.283 165.682L91.2575 165.777L91.2281 165.879L91.2128 165.931L91.1965 165.984L91.1943 165.99L91.1788 166.038L91.1614 166.09L91.1436 166.143L91.1243 166.193L91.1061 166.241L91.0863 166.287L91.0662 166.329L91.0569 166.349L91.0471 166.368L91.0375 166.385L91.028 166.401L91.0193 166.416L91.0104 166.43L91.0015 166.442L90.997 166.448L90.9926 166.44L90.9882 166.433L90.9775 166.413L90.9686 166.393L90.9597 166.373L90.9526 166.35L90.9457 166.327L90.9406 166.303L90.9353 166.277L90.9308 166.251L90.9279 166.223L90.9257 166.202L90.9248 166.194L90.9226 166.163L90.9217 166.135L90.9208 166.103V166.074L90.9214 166.041L90.9228 166.011L90.9241 165.978L90.9263 165.947L90.9324 165.881L90.9395 165.816L90.9475 165.752L90.9553 165.688L90.9641 165.626L90.9715 165.566L90.9773 165.516L90.9824 165.466L90.9869 165.416L90.9908 165.366L90.9953 165.296L90.9969 165.265L91.0009 165.166L91.0038 165.066L91.0058 164.967L91.0091 164.769L91.0109 164.671L91.0137 164.574L91.0173 164.477L91.0224 164.381L91.026 164.334L91.0273 164.316L91.0296 164.286L91.0329 164.239L91.0373 164.192L91.0424 164.145L91.0482 164.099L91.0549 164.052L91.0613 164.007L91.0664 163.981L91.0658 163.984L91.0709 163.956L91.0774 163.927V163.929L91.0849 163.898Z" fill="#528ACA"/>
<path fill-rule="evenodd" clip-rule="evenodd" d="M81.86 133.379C77.0432 133.499 69.5165 144.222 65.5548 146.609C64.0813 147.497 65.5125 130.417 63.8359 128.212C63.0587 127.19 59.5008 137.475 58.6247 145.703C58.1168 150.473 59.7558 154.942 60.1225 155.107C62.3113 156.087 66.4236 155.747 78.0895 148.398C87.7375 142.318 88.2974 133.217 81.86 133.379Z" fill="#F89EA4"/>
<path fill-rule="evenodd" clip-rule="evenodd" d="M62.973 112.241C62.973 112.241 51.7836 115.908 60.4258 124.915C62.8351 127.426 65.8627 122.793 68.5727 123.574C68.5727 123.574 71.6563 123.919 71.3639 126.415C71.3639 126.415 73.1385 124.924 71.4786 122.69C71.4786 122.69 70.3295 121.222 71.6466 120.283C72.9634 119.346 75.1104 122.217 73.4642 123.639C73.4642 123.639 74.9187 123.867 74.3361 127.046C73.2245 133.117 81.7842 133.925 81.7842 133.925C81.7842 133.925 77.8782 141.308 87.3147 144.166C91.7641 145.513 89.58 150.237 97.2248 150.544C101.255 150.705 104.404 140.911 97.1472 138.17C94.763 137.269 97.9117 133.773 96.569 129.987C95.3778 126.628 90.5777 126.684 90.8942 124.174C91.2742 121.16 92.2613 119.187 85.8508 115.724C81.1771 113.199 84.5633 106.738 72.1422 107.713C69.0268 107.959 65.643 110.478 62.973 112.241Z" fill="#6C3B48"/>
<path fill-rule="evenodd" clip-rule="evenodd" d="M61.1027 134.013C60.9277 135.337 64.3137 134.728 64.5227 133.625C64.9388 131.425 64.9768 128.307 64.7206 127.262C64.3508 125.757 63.9183 122.934 63.4782 122.812C63.0684 122.698 63.4264 125.373 63.309 125.161C62.4209 123.556 61.573 121.653 61.0144 120.622C61.0144 120.622 60.4182 120.005 60.9305 121.443C61.4033 122.771 61.7713 124.21 61.7713 124.21C61.7713 124.21 60.4851 121.377 59.8378 120.474C59.5399 120.058 59.4489 120.611 59.7531 121.403C60.2021 122.572 60.6506 123.51 61.1816 125.133C61.1816 125.133 59.5966 122.024 58.9239 120.952C58.5127 120.297 59.0197 122.659 60.6097 125.679C60.6097 125.679 59.2639 123.464 58.3891 122.379C57.8939 121.763 57.3882 122.138 60.1271 126.348C60.4044 126.773 61.6077 130.191 61.1027 134.013Z" fill="#F89EA4"/>
<path fill-rule="evenodd" clip-rule="evenodd" d="M5.92812 184.593C6.21845 184.581 7.93478 184.532 6.24008 183.427C5.37252 182.862 3.18426 180.676 2.72202 177.094C2.50798 175.434 2.39639 175.167 1.63529 174.47C1.10815 173.987 0.512127 174.469 -0.000212189 174.418C1.5647 184.525 4.67289 188.103 5.08447 188.477C6.48714 187.904 6.2156 187.281 6.93515 187.343C7.23743 187.019 6.34767 185.206 5.92812 184.593Z" fill="#131112"/>
<path d="M221.057 141.5C221.057 141.5 220.329 125.907 220.378 124.767C220.568 120.356 220.562 116.455 217.884 114.775C216.39 113.837 212.796 112.549 210.514 111.907C208.362 111.302 198.51 113.431 199.49 118.569L199.418 138.06C201.619 142.171 218.371 144.267 221.057 141.5Z" fill="#F79383"/>
<path d="M200.413 142.702C198.038 149.909 197.449 155.416 200.143 158.39C200.143 158.39 224.163 156.275 223.11 143.708C221.78 127.837 203.089 131.28 203.089 131.28C202.333 135.459 201.306 139.99 200.413 142.702Z" fill="#F79383"/>
<path d="M208.83 117.658C211.121 116.941 212.629 115.028 212.2 113.384L210.729 107.757C210.3 106.113 208.095 105.363 205.804 106.079C203.514 106.796 202.005 108.709 202.434 110.353L203.905 115.981C204.334 117.624 206.539 118.375 208.83 117.658Z" fill="#F79383"/>
<path fill-rule="evenodd" clip-rule="evenodd" d="M198.891 154.138C191.995 152.831 198.891 170.278 198.891 170.278L219.569 169.967C219.569 169.967 224.064 155.349 223.189 154.734C221.608 153.625 200.798 154.499 198.891 154.138Z" fill="#25284A"/>
<path d="M203.132 112.61C203.132 112.61 202.967 114.552 204.209 115.744C209.166 120.503 212.763 111.424 212.763 111.424C214.627 111.685 217.662 112.694 218.715 113.166C220.737 114.072 222.423 115.54 222.929 117.462C223.148 118.297 223.104 119.146 223.068 119.983C222.578 131.27 223.822 142.75 226.757 154.014C226.885 154.507 226.989 155.095 226.591 155.415C226.386 155.58 226.092 155.63 225.811 155.671C215.154 157.227 204.741 158.728 194.022 155.732C194.493 146.286 195.089 137.194 195.56 127.749C195.601 126.936 195.786 125.082 196.031 123.243C196.276 121.403 196.581 119.577 196.859 118.82C197.942 115.866 198.571 114.393 201.462 112.709L203.132 112.61Z" fill="#FDE7E0"/>
<path fill-rule="evenodd" clip-rule="evenodd" d="M190.733 147.698C190.733 147.698 186.45 148.035 185.14 153.812C183.831 159.588 186.032 170.196 189.47 183.661L194.655 207.477L200.624 207.116C200.624 207.116 202.716 182.169 203.646 170.408C204.417 160.678 195.117 146.738 190.733 147.698Z" fill="#2E3F78"/>
<path fill-rule="evenodd" clip-rule="evenodd" d="M197.276 153.057L197.341 153.23L197.368 153.359L197.415 153.583L197.433 153.666L197.496 153.974L197.559 154.281L197.624 154.588L197.689 154.894L197.755 155.202L197.82 155.507L197.953 156.119L198.087 156.73L198.222 157.339L198.357 157.949L198.628 159.167L198.762 159.776L198.896 160.384L198.969 160.717L199.029 160.992L199.095 161.297L199.16 161.602L199.225 161.907L199.29 162.211L199.354 162.516L199.418 162.821L199.48 163.127L199.542 163.432L199.604 163.738L199.665 164.044L199.725 164.349L199.783 164.656L199.842 164.963L199.899 165.27L199.955 165.577L200.011 165.885L200.065 166.193L200.118 166.501L200.17 166.81L200.221 167.119L200.271 167.428L200.32 167.738L200.367 168.049L200.413 168.359L200.457 168.671L200.5 168.983L200.542 169.296L200.582 169.609L200.621 169.922L200.639 170.08L200.658 170.237L200.675 170.394L200.692 170.551L200.71 170.709L200.726 170.867L200.742 171.025L200.755 171.148L200.759 171.183L200.774 171.342L200.788 171.5L200.803 171.658L200.816 171.817L200.83 171.976L200.843 172.135L200.855 172.295L200.867 172.454L200.879 172.613L200.889 172.773L200.908 173.048L200.925 173.323L200.941 173.597L200.957 173.872L200.972 174.146L200.986 174.421L201 174.696L201.013 174.97L201.025 175.245L201.037 175.52L201.047 175.795L201.058 176.069L201.067 176.344L201.076 176.619L201.082 176.811L201.084 176.894L201.091 177.169L201.098 177.444L201.105 177.719L201.11 177.994L201.115 178.268L201.12 178.543L201.124 178.818L201.128 179.093L201.13 179.368L201.133 179.643L201.135 179.918L201.137 180.194L201.138 180.469L201.139 180.743V181.019L201.138 181.569L201.136 182.118L201.136 182.261L201.132 182.668L201.125 183.218L201.117 183.769L201.108 184.319L201.099 184.869L201.088 185.418L201.076 185.968L201.064 186.519L201.051 187.068L201.049 187.147L201.035 187.618L201.018 188.168L200.983 189.267L200.949 190.365L200.924 191.126L200.911 191.464L200.868 192.562L200.863 192.685L200.844 193.11L200.82 193.659L200.797 194.207L200.796 194.233L200.771 194.756L200.745 195.304L200.72 195.852L200.697 196.4L200.675 196.948L200.663 197.253L200.652 197.497L200.628 198.044L200.606 198.593L200.596 198.867L200.587 199.141L200.577 199.414L200.568 199.688L200.56 199.962L200.557 200.087L200.552 200.236L200.543 200.51L200.535 200.785L200.527 201.058L200.521 201.332L200.515 201.606L200.509 201.88L200.505 202.155L200.5 202.428L200.498 202.633L200.497 202.702L200.492 202.977L200.489 203.251L200.486 203.524L200.485 203.8L200.484 204.073V204.347L200.484 204.622L200.486 204.896L200.489 205.17L200.492 205.444L200.497 205.718L200.502 205.992L200.508 206.267L200.513 206.458L200.515 206.541L200.523 206.814L200.531 207.089L200.54 207.364L200.551 207.638L200.563 207.912L200.495 208L200.417 207.922L200.394 207.648L200.371 207.375L200.35 207.1L200.328 206.826L200.308 206.552L200.302 206.468L200.288 206.278L200.27 206.004L200.252 205.729L200.235 205.454L200.218 205.181L200.201 204.906L200.185 204.632L200.169 204.357L200.154 204.082L200.14 203.808L200.125 203.533L200.112 203.259L200.098 202.984L200.086 202.709L200.082 202.639L200.074 202.434L200.064 202.159L200.053 201.885L200.044 201.61L200.035 201.335L200.026 201.059L200.018 200.785L200.01 200.51L200.002 200.234L199.998 200.085L199.996 199.959L199.99 199.684L199.985 199.409L199.981 199.134L199.977 198.859L199.973 198.584L199.966 198.033L199.961 197.483L199.958 197.239V196.932L199.96 196.383L199.962 195.832L199.966 195.282L199.97 194.731L199.975 194.207V194.181L199.986 193.631L199.997 193.081L200.006 192.653L200.009 192.53L200.041 191.432L200.051 191.093L200.08 190.332L200.121 189.234L200.163 188.136L200.183 187.587L200.2 187.117L200.204 187.038L200.226 186.489L200.247 185.941L200.268 185.393L200.288 184.845L200.307 184.296L200.324 183.749L200.341 183.201L200.357 182.652L200.367 182.247L200.371 182.105L200.385 181.558L200.397 181.01L200.403 180.737L200.408 180.462L200.413 180.189L200.417 179.916L200.42 179.642L200.424 179.368L200.426 179.094L200.429 178.821L200.43 178.548L200.431 178.274L200.432 178V177.727L200.431 177.453L200.43 177.18L200.428 176.907L200.428 176.824L200.426 176.633L200.424 176.36L200.42 176.087L200.417 175.813L200.412 175.54L200.406 175.267L200.4 174.993L200.394 174.72L200.387 174.446L200.378 174.174L200.369 173.901L200.359 173.627L200.349 173.355L200.338 173.081L200.326 172.808L200.318 172.65L200.31 172.492L200.302 172.334L200.293 172.176L200.283 172.019L200.273 171.861L200.263 171.704L200.252 171.547L200.241 171.389L200.229 171.233L200.226 171.199L200.217 171.076L200.205 170.92L200.191 170.763L200.178 170.607L200.164 170.45L200.15 170.294L200.135 170.138L200.12 169.982L200.089 169.671L200.056 169.359L200.022 169.048L199.986 168.738L199.948 168.428L199.909 168.118L199.869 167.809L199.827 167.5L199.784 167.192L199.74 166.883L199.694 166.575L199.647 166.268L199.6 165.96L199.55 165.653L199.5 165.346L199.449 165.039L199.397 164.732L199.344 164.426L199.29 164.12L199.236 163.814L199.18 163.508L199.124 163.202L199.067 162.897L199.009 162.592L198.95 162.286L198.892 161.981L198.832 161.675L198.772 161.37L198.711 161.065L198.656 160.789L198.589 160.454L198.465 159.844L198.34 159.234L198.089 158.012L197.962 157.4L197.837 156.788L197.712 156.174L197.588 155.56L197.526 155.253L197.465 154.945L197.404 154.637L197.343 154.329L197.283 154.02L197.224 153.712L197.208 153.628L197.167 153.402L197.144 153.272L197.139 153.086L197.194 153L197.276 153.057Z" fill="#2C5DAC"/>
<path fill-rule="evenodd" clip-rule="evenodd" d="M227.848 147.719C227.848 147.719 232.665 148.239 234.046 154.077C235.429 159.916 220.91 206.952 220.91 206.952L215.244 205.486C215.244 205.486 213.807 181.712 212.947 169.9C212.235 160.128 222.928 146.571 227.848 147.719Z" fill="#2E3F78"/>
<path fill-rule="evenodd" clip-rule="evenodd" d="M222.986 150.011L223.118 150.106L223.139 150.138L223.028 150.27L222.911 150.414L222.795 150.558L222.68 150.704L222.567 150.85L222.455 150.998L222.344 151.147L222.235 151.296L222.127 151.447L222.021 151.6L221.918 151.749L221.916 151.753L221.81 151.906L221.705 152.06L221.602 152.215L221.5 152.371L221.399 152.528L221.299 152.687L221.201 152.846L221.104 153.006L221.008 153.167L220.913 153.329L220.819 153.491L220.727 153.654L220.636 153.819L220.546 153.985L220.457 154.15L220.369 154.318L220.282 154.486L220.197 154.654L220.113 154.823L220.029 154.994L219.948 155.164L219.867 155.336L219.786 155.509L219.708 155.681L219.63 155.855L219.554 156.03L219.478 156.206L219.404 156.381L219.33 156.557L219.258 156.734L219.187 156.912L219.116 157.09L219.047 157.269L218.979 157.448L218.912 157.628L218.845 157.809L218.78 157.99L218.717 158.171L218.654 158.353L218.591 158.535L218.565 158.613L218.53 158.718L218.469 158.901L218.41 159.084L218.351 159.268L218.293 159.453L218.237 159.638L218.181 159.823L218.126 160.009L218.072 160.195L218.019 160.38L217.966 160.567L217.915 160.753L217.865 160.941L217.816 161.127L217.767 161.315L217.719 161.503L217.672 161.691L217.627 161.879L217.581 162.067L217.537 162.256L217.493 162.445L217.45 162.633L217.409 162.822L217.367 163.012L217.327 163.2L217.288 163.39L217.271 163.471L217.249 163.579L217.21 163.769L217.172 163.957L217.135 164.147L217.099 164.336L217.063 164.526L217.028 164.715L216.995 164.904L216.961 165.093L216.929 165.283L216.897 165.471L216.866 165.66L216.835 165.849L216.805 166.037L216.776 166.227L216.747 166.415L216.719 166.604L216.692 166.791L216.666 166.979L216.64 167.167L216.615 167.354L216.591 167.542L216.566 167.728L216.543 167.915L216.526 168.059L216.52 168.101L216.497 168.287L216.475 168.473L216.453 168.658L216.432 168.843L216.411 169.027L216.392 169.212L216.371 169.396L216.353 169.579L216.317 169.945L216.283 170.308L216.251 170.671L216.221 171.031L216.192 171.388L216.166 171.743L216.142 172.096L216.119 172.446L216.099 172.794L216.083 173.075L216.067 173.355L216.053 173.636L216.038 173.917L216.025 174.197L216.012 174.478L215.999 174.759L215.987 175.039L215.964 175.602L215.943 176.163L215.925 176.693L215.924 176.725L215.906 177.286L215.89 177.848L215.875 178.41L215.862 178.971L215.851 179.534L215.841 180.096L215.833 180.657L215.827 181.219L215.82 181.781L215.817 182.344L215.814 182.906L215.812 183.468L215.811 184.03V184.593L215.813 185.155L215.815 185.717L215.818 186.28L215.822 186.843L215.827 187.405L215.827 187.435L215.832 187.967L215.837 188.53L215.843 189.093L215.85 189.655L215.864 190.781L215.88 191.906L215.896 193.032L215.93 195.283L215.946 196.41L215.961 197.535L215.963 197.762L215.973 198.662L215.979 199.225L215.983 199.788L215.987 200.351L215.991 200.914L215.992 201.478L215.994 202.04L215.995 202.604V203.167L215.994 203.73L215.992 204.293L215.989 204.856L215.987 205.166L215.977 205.42L215.952 205.982L215.928 206.545L215.904 207.108L215.901 207.159L215.874 207.671L215.844 208.234L215.815 208.796L215.601 209L215.397 208.788L215.39 208.226L215.382 207.664L215.371 207.153L215.37 207.102L215.361 206.539L215.348 205.978L215.335 205.416L215.328 205.163L215.33 204.853L215.331 204.291L215.332 203.729V203.167L215.33 202.605L215.328 202.043L215.325 201.48L215.32 200.918L215.316 200.355L215.31 199.793L215.304 199.23L215.297 198.669L215.285 197.77L215.283 197.543L215.268 196.418L215.252 195.292L215.219 193.04L215.202 191.915L215.186 190.788L215.172 189.662L215.165 189.099L215.159 188.536L215.154 187.973L215.149 187.44L215.149 187.409L215.145 186.846L215.142 186.283L215.14 185.719L215.139 185.156L215.139 184.593L215.139 184.029L215.141 183.466L215.144 182.903L215.148 182.339L215.153 181.777L215.16 181.213L215.168 180.649L215.177 180.086L215.188 179.522L215.2 178.959L215.214 178.396L215.23 177.832L215.247 177.268L215.266 176.705L215.268 176.673L215.288 176.142L215.311 175.579L215.337 175.015L215.351 174.733L215.364 174.452L215.379 174.17L215.394 173.889L215.41 173.606L215.426 173.326L215.443 173.044L215.46 172.762L215.483 172.412L215.506 172.059L215.533 171.704L215.561 171.346L215.591 170.986L215.623 170.624L215.657 170.26L215.692 169.893L215.731 169.525L215.751 169.34L215.771 169.155L215.792 168.969L215.814 168.784L215.836 168.597L215.858 168.41L215.882 168.223L215.906 168.035L215.911 167.993L215.931 167.848L215.957 167.66L215.984 167.471L216.011 167.284L216.039 167.095L216.067 166.906L216.097 166.717L216.127 166.527L216.157 166.338L216.188 166.149L216.22 165.958L216.253 165.767L216.286 165.578L216.321 165.387L216.355 165.197L216.39 165.007L216.427 164.816L216.463 164.625L216.501 164.434L216.539 164.244L216.578 164.054L216.618 163.863L216.658 163.672L216.7 163.482L216.724 163.373L216.743 163.291L216.786 163.101L216.831 162.91L216.875 162.719L216.921 162.53L216.969 162.34L217.016 162.15L217.064 161.96L217.113 161.77L217.164 161.582L217.215 161.393L217.266 161.204L217.319 161.014L217.372 160.826L217.427 160.639L217.482 160.45L217.538 160.263L217.595 160.075L217.653 159.889L217.712 159.702L217.772 159.515L217.833 159.33L217.894 159.144L217.957 158.959L218.02 158.774L218.084 158.59L218.123 158.485L218.15 158.406L218.217 158.223L218.285 158.04L218.354 157.858L218.423 157.676L218.494 157.494L218.565 157.314L218.638 157.133L218.712 156.954L218.786 156.775L218.862 156.596L218.939 156.418L219.017 156.241L219.096 156.064L219.176 155.889L219.256 155.714L219.338 155.539L219.422 155.365L219.506 155.192L219.591 155.019L219.678 154.847L219.765 154.676L219.853 154.507L219.943 154.336L220.034 154.168L220.126 154.001L220.219 153.834L220.313 153.668L220.409 153.503L220.505 153.338L220.603 153.174L220.702 153.012L220.802 152.851L220.904 152.69L221.006 152.53L221.11 152.372L221.215 152.214L221.321 152.057L221.428 151.901L221.537 151.747L221.647 151.593L221.649 151.589L221.76 151.442L221.874 151.291L221.99 151.143L222.106 150.994L222.224 150.847L222.343 150.701L222.464 150.557L222.585 150.413L222.708 150.271L222.833 150.13L222.948 150L222.986 150.011Z" fill="#2C5DAC"/>
<path fill-rule="evenodd" clip-rule="evenodd" d="M216.947 205.842C216.845 205.445 219.127 202.409 220.728 206.04C221.319 207.381 224.857 207.325 226.113 208.069C226.985 208.585 226.575 209.591 226.855 210.262C217.623 210.763 214.839 208.954 214.165 208.55C214.364 206.415 215.32 206.527 214.94 205.578C215.256 205.035 215.946 205.526 216.947 205.842Z" fill="#131113"/>
<path fill-rule="evenodd" clip-rule="evenodd" d="M198.495 205.842C198.596 205.445 196.314 202.409 194.714 206.04C194.123 207.381 190.585 207.325 189.329 208.069C188.457 208.585 188.866 209.591 188.587 210.262C197.819 210.763 200.603 208.954 201.277 208.55C201.078 206.415 200.122 206.527 200.502 205.578C200.186 205.035 199.496 205.526 198.495 205.842Z" fill="#131113"/>
<path fill-rule="evenodd" clip-rule="evenodd" d="M187.823 141.586C187.991 144.907 190.175 150.686 191.895 147.651C195.955 140.483 198.392 126.986 198.503 124.632C198.882 116.549 187.232 129.951 187.823 141.586Z" fill="#F79383"/>
<path fill-rule="evenodd" clip-rule="evenodd" d="M227.879 121.69C227.879 121.008 228.992 123.786 229.103 124.078C229.73 125.734 230.228 127.434 230.852 129.083C232.633 133.787 234.588 140.071 233.651 145.022C233.414 146.271 233.685 148.836 231.989 149.334C229.693 150.008 227.707 146.009 227.091 144.791C224.337 139.332 221.11 132.303 222.107 126.156C222.43 124.169 225.711 120.012 228.141 122.152" fill="#F79383"/>
<path fill-rule="evenodd" clip-rule="evenodd" d="M201.527 112.683C201.527 112.683 198.207 114.443 196.719 115.476C192.069 118.704 191.293 123.804 188.662 131.147C188.475 131.672 190.949 134.828 193.846 136.236C194.206 136.412 196.29 137.305 196.719 136.887C197.126 136.491 197.283 134.313 197.485 133.723C198.458 130.886 199.183 127.942 200.071 125.064C201.144 121.588 203.703 112.384 201.527 112.683Z" fill="#FDE7E0"/>
<path fill-rule="evenodd" clip-rule="evenodd" d="M218.904 113.224C218.904 113.224 222.636 115.348 223.681 116.073C228.331 119.302 229.48 123.59 232.214 130.236C232.425 130.751 228.542 134.828 225.645 136.236C225.285 136.412 223.201 137.305 222.772 136.887C222.365 136.491 222.208 134.313 222.006 133.723C221.033 130.886 220.308 127.942 219.42 125.064C218.347 121.588 218.549 113.569 218.904 113.224Z" fill="#FDE7E0"/>
<path d="M208.338 123.34C209.13 125.16 214.182 120.771 215.845 119.593C217.509 118.414 219.168 116.73 219.354 114.532C219.392 114.08 219.369 113.607 219.541 113.194C219.728 112.749 220.107 112.456 220.452 112.156C222.642 110.254 224.294 101.614 219.939 98.9224C215.474 96.1615 210.853 98.1112 206.16 95.8148C204.788 95.1431 201.158 91.6261 198.383 94.8277C195.509 98.1431 198.479 100.544 199.39 100.901C197.435 101.5 196.34 104.192 196.766 106.416C197.192 108.641 198.789 110.342 200.582 111.323C201.919 112.054 203.425 112.486 204.531 113.602C206.434 115.524 207.206 120.737 208.338 123.34Z" fill="#25253F"/>
<path d="M200.202 123.333C200.768 124.85 211.368 126.252 212.841 124.862C214.783 123.029 217.054 119.591 218.307 115.931C218.777 114.556 218.616 110.976 218.414 111.65C217.117 116 216.345 118.987 215.312 115.097C214.142 110.688 215.65 108.239 215.383 106.288C215.152 104.606 213.264 104.095 212.522 104.225C210.171 104.638 208.582 106.392 204.804 106.264C202.836 106.197 201.74 104.156 201.572 104.67C200.16 108.988 198.946 119.961 200.202 123.333Z" fill="#F79383"/>
<path fill-rule="evenodd" clip-rule="evenodd" d="M220.443 113.874L216.521 119.244L217.649 114.043L211.64 118.044L202.969 117.501L199.817 111.718L194.253 113.874V131.904H220.443V113.874Z" fill="#ED8278"/>
<path fill-rule="evenodd" clip-rule="evenodd" d="M198.227 120.034C198.227 120.034 186.545 137.473 188.665 146.036C188.665 146.036 189.037 150.497 192.08 148.923C195.124 147.349 198.485 144.681 200.74 138.278C202.994 131.876 202.287 121.811 202.287 121.811C202.287 121.811 199.198 118.507 198.227 120.034Z" fill="#F79383"/>
<path d="M217.754 112.917C217.538 114.354 217.194 116.028 217.194 116.028C217.194 116.028 221.235 117.266 222.362 113.808C222.811 112.428 221.809 111.235 220.493 111.056C219.176 110.878 217.97 111.48 217.754 112.917Z" fill="#F79383"/>
<path d="M218.898 112.954C218.697 113.723 218.306 114.943 218.306 114.943C218.306 114.943 220.299 116.044 221.211 114.058C221.531 113.361 221.013 112.646 220.375 112.341C219.736 112.035 219.101 112.183 218.898 112.954Z" fill="#F57A67"/>
<path fill-rule="evenodd" clip-rule="evenodd" d="M215.587 120.499C215.587 120.499 233.442 136.653 233.757 145.463C233.757 145.463 234.634 149.853 231.229 149.17C227.824 148.488 223.803 146.84 219.824 141.301C215.846 135.762 212.967 123.569 212.967 123.569C212.967 123.569 214.217 119.295 215.587 120.499Z" fill="#F79383"/>
<path fill-rule="evenodd" clip-rule="evenodd" d="M202.377 122.004C202.377 122.004 202.94 120.116 201.189 117.823C199.437 115.532 200.185 112.553 200.529 110.619C200.529 110.619 200.549 108.658 199.714 110.625C198.88 112.592 197.099 116.573 198.294 119.045L197.167 123.513C197.167 123.513 201.729 125.93 202.377 122.004Z" fill="#F79383"/>
<path fill-rule="evenodd" clip-rule="evenodd" d="M216.2 123.314C216.2 123.314 217.353 117.176 218.815 112.711C218.815 112.711 218.923 111.65 218.121 113.275C217.319 114.901 216.352 117.077 216.352 117.077C216.352 117.077 217.438 112.66 217.824 111.281C218.21 109.903 216.303 112.935 215.59 116.511C215.59 116.511 216.436 112.254 216.61 110.646C216.715 109.664 215.42 112.12 214.645 116.311C214.645 116.311 215.045 113.037 215.04 111.193C215.037 110.148 214.282 109.885 213.692 116.308C213.632 116.958 213.671 117.564 213.317 118.241C213.317 118.241 213.185 116.757 212.019 116.266C212.019 116.266 211.592 116.513 211.898 117.127C212.166 117.662 212.428 118.596 212.192 120.002C211.956 121.408 212.014 122.215 212.464 123.836C212.915 125.456 216.2 123.314 216.2 123.314Z" fill="#F79383"/>
</svg>
