<svg width="17" height="17" viewBox="0 0 17 17" xmlns="http://www.w3.org/2000/svg">
<path d="M15.3352 8.51106L15.3352 8.51106L15.3352 8.5081C15.3351 8.24952 15.2323 8.00159 15.0494 7.81875C14.8666 7.63591 14.6187 7.53312 14.3601 7.53295L14.3589 7.53296L9.49657 7.54109L9.50978 2.67534L9.50978 2.67534L9.50978 2.67398C9.50978 2.41498 9.40689 2.16658 9.22375 1.98344C9.0406 1.80029 8.79221 1.6974 8.5332 1.6974C8.2742 1.6974 8.0258 1.80029 7.84266 1.98344C7.65969 2.16641 7.55682 2.4145 7.55663 2.67324C7.55663 2.67349 7.55663 2.67373 7.55663 2.67398L7.54442 7.54429L2.67352 7.5565C2.67347 7.5565 2.67343 7.5565 2.67338 7.5565C2.41458 7.55684 2.1665 7.65996 1.98371 7.84318C1.80088 8.02644 1.69834 8.27481 1.69865 8.53367C1.69895 8.79253 1.80208 9.04066 1.98533 9.22348C2.16859 9.4063 2.41696 9.50884 2.67582 9.50853L2.67648 9.50853L7.54079 9.49634L7.52859 14.3629V14.3641C7.52859 14.6231 7.63148 14.8715 7.81463 15.0547C7.99777 15.2378 8.24617 15.3407 8.50517 15.3407C8.76418 15.3407 9.01257 15.2378 9.19571 15.0547C9.37879 14.8716 9.48167 14.6233 9.48175 14.3644C9.48175 14.3643 9.48175 14.3642 9.48175 14.3641L9.49294 9.49281L14.3654 9.48162L14.3654 9.48164L14.3693 9.4816C14.6255 9.47903 14.8704 9.3758 15.0511 9.19422C15.2318 9.01263 15.3339 8.76725 15.3352 8.51106Z"/>
</svg>
