<svg width="18" height="21" viewBox="0 0 18 21" fill="none" xmlns="http://www.w3.org/2000/svg">
<path fill-rule="evenodd" clip-rule="evenodd" d="M9.68 5.38953C10.38 5.16156 10.9 4.53463 10.98 3.83171C11.03 3.38526 10.93 2.96731 10.7 2.62535L9.42 0.516592C9.23 0.203128 8.75 0.203128 8.55 0.516592L7.27 2.62535C7.1 2.91032 7 3.24278 7 3.60374C7 4.8576 8.3 5.83598 9.68 5.38953ZM13.53 14.9264L12.53 13.9766L11.45 14.9929C10.15 16.2278 7.87 16.2373 6.56 14.9929L5.49 13.9766L4.4 14.9929C3.75 15.6104 2.88 15.9523 1.96 15.9523C1.23 15.9523 0.56 15.7339 0 15.3729V18.802C0 19.8469 0.9 20.7018 2 20.7018H16C17.1 20.7018 18 19.8469 18 18.802V15.3729C17.25 15.8573 16.29 16.0853 15.26 15.8668C14.6 15.7339 14.01 15.3824 13.53 14.9264ZM15 8.3532H10V7.4033C10 6.88086 9.55 6.45341 9 6.45341C8.45 6.45341 8 6.88086 8 7.4033V8.3532H3C1.34 8.3532 0 9.62605 0 11.2029V12.5897C0 13.3971 0.5 14.176 1.31 14.4325C2.04 14.6605 2.83 14.4895 3.34 13.9956L5.48 11.9723L7.61 13.9956C8.37 14.7175 9.62 14.7175 10.38 13.9956L12.52 11.9723L14.65 13.9956C15.08 14.404 15.68 14.594 16.3 14.518C17.29 14.3945 17.99 13.5111 17.99 12.5612V11.2124C18 9.62605 16.66 8.3532 15 8.3532Z" fill="#6F2D8D"/>
</svg>
