<svg width="18" height="19" viewBox="0 0 18 19" fill="none" xmlns="http://www.w3.org/2000/svg">
<path d="M9 0.112549C4.05 0.112549 0 4.16963 0 9.1283C0 14.087 4.05 18.144 9 18.144C13.95 18.144 18 14.087 18 9.1283C18 4.16963 13.95 0.112549 9 0.112549ZM15.21 5.522H12.6C12.33 4.34995 11.88 3.35822 11.34 2.27633C12.96 2.90743 14.4 3.98932 15.21 5.522ZM9 1.9157C9.72 2.99759 10.35 4.16963 10.71 5.522H7.29C7.65 4.25979 8.28 2.99759 9 1.9157ZM2.07 10.9314C1.89 10.3905 1.8 9.7594 1.8 9.1283C1.8 8.49719 1.89 7.86609 2.07 7.32515H5.13C5.04 7.95625 5.04 8.49719 5.04 9.1283C5.04 9.7594 5.13 10.3003 5.13 10.9314H2.07ZM2.79 12.7346H5.4C5.67 13.9066 6.12 14.8984 6.66 15.9803C5.04 15.3492 3.6 14.2673 2.79 12.7346ZM5.4 5.522H2.79C3.69 3.98932 5.04 2.90743 6.66 2.27633C6.12 3.35822 5.67 4.34995 5.4 5.522ZM9 16.3409C8.28 15.259 7.65 14.087 7.29 12.7346H10.71C10.35 13.9968 9.72 15.259 9 16.3409ZM11.07 10.9314H6.93C6.84 10.3003 6.75 9.7594 6.75 9.1283C6.75 8.49719 6.84 7.95625 6.93 7.32515H11.16C11.25 7.95625 11.34 8.49719 11.34 9.1283C11.34 9.7594 11.16 10.3003 11.07 10.9314ZM11.34 15.9803C11.88 14.9885 12.33 13.9067 12.6 12.7346H15.21C14.4 14.2673 12.96 15.3492 11.34 15.9803ZM12.96 10.9314C13.05 10.3003 13.05 9.7594 13.05 9.1283C13.05 8.49719 12.96 7.95625 12.96 7.32515H16.02C16.2 7.86609 16.29 8.49719 16.29 9.1283C16.29 9.7594 16.2 10.3905 16.02 10.9314H12.96Z" fill="#6F2D8D"/>
</svg>
