<svg width="139" height="155" viewBox="0 0 139 155" fill="none" xmlns="http://www.w3.org/2000/svg">
<path d="M105.792 143.925H43.0194C37.934 143.925 33.8115 138.306 33.8115 131.375V125.473H115V131.375C115 138.306 110.877 143.925 105.792 143.925Z" fill="#9151AE"/>
<path d="M115 14.7615H33.8115V125.473H115V14.7615Z" fill="url(#paint0_linear)"/>
<path d="M103.413 0H45.3989C38.9994 0 33.8115 4.32511 33.8115 9.6604V14.7615H115V9.66036C115 4.32508 109.812 0 103.413 0Z" fill="#9151AE"/>
<path d="M74.4057 140.235C77.4629 140.235 79.9413 137.756 79.9413 134.699C79.9413 131.642 77.4629 129.164 74.4057 129.164C71.3485 129.164 68.8701 131.642 68.8701 134.699C68.8701 137.756 71.3485 140.235 74.4057 140.235Z" fill="white"/>
<path d="M91.0132 9.22603C92.0322 9.22603 92.8584 8.39991 92.8584 7.38084C92.8584 6.36176 92.0322 5.53564 91.0132 5.53564C89.9941 5.53564 89.168 6.36176 89.168 7.38084C89.168 8.39991 89.9941 9.22603 91.0132 9.22603Z" fill="white"/>
<path d="M65.1797 7.38086H82.6736" stroke="white" stroke-width="1.7" stroke-miterlimit="10" stroke-linecap="round" stroke-linejoin="round"/>
<path d="M57.8239 26.5643L44.3379 38.6981" stroke="#9151AE" stroke-width="0.7" stroke-miterlimit="10" stroke-linecap="round" stroke-linejoin="round"/>
<path d="M60.3133 32.6323L51.9092 40.1938" stroke="#9151AE" stroke-width="0.7" stroke-miterlimit="10" stroke-linecap="round" stroke-linejoin="round"/>
<path opacity="0.15" d="M104 151.5C104 153.434 90.5534 155 73.9706 155C57.3878 155 44 153.434 44 151.5C44 149.566 57.4466 148 74.0294 148C90.6122 148 104 149.566 104 151.5Z" fill="#020202"/>
<path d="M30.4031 24.5718C30.4031 24.5718 36.7596 24.2907 39.2348 28.9033C41.7097 33.5159 39.6847 43.5285 39.6847 43.5285C39.6847 43.5285 38.4962 43.866 35.4342 43.5285C35.4342 43.5285 34.5098 51.6284 34.1723 56.1286C33.8345 60.6289 34.8473 73.5665 33.9472 75.4791C33.9472 75.4791 34.2847 72.7791 28.2097 73.904C22.1344 75.0289 14.2592 74.4666 13.022 72.7791C13.022 72.7791 14.9346 62.879 15.6096 55.1161C16.2846 47.3537 16.1718 42.1785 18.4219 38.0158C20.672 33.8534 23.5408 29.5783 23.5408 29.5783L30.4031 24.5718Z" fill="#7BB3D1"/>
<path d="M25.3972 20.6343C25.3972 20.6343 27.3098 23.2783 28.0972 23.5594C28.8849 23.8405 30.4033 24.5719 30.4033 24.5719C30.4033 24.5719 28.6038 29.4656 23.2599 31.1535L23.541 29.5784L22.9223 29.0157C22.9223 29.0157 21.1225 31.2658 19.9409 31.1535C18.7596 31.0407 16.7592 29.4096 14.8907 27.3282C13.0222 25.2469 10.8281 19.9029 10.8281 19.9029C10.8281 19.9029 13.3593 20.1844 16.7907 18.047C16.7907 18.047 18.197 19.1719 20.6159 21.478L21.6284 20.8594C21.6284 20.8594 19.8849 19.5654 20.3347 18.047C20.7846 16.5283 22.4934 15.544 24.3847 17.8783C25.7065 19.5094 25.3972 20.6343 25.3972 20.6343Z" fill="#DC9082"/>
<path d="M11.1095 15.2343C13.3593 14.6717 12.6283 13.0406 15.3286 11.5215C18.0282 10.0031 20.1096 9.10299 21.8535 12.7591C21.8535 12.7591 23.541 11.9153 24.4407 13.3217C25.3408 14.7281 26.7472 19.1719 26.4097 21.478C26.3942 21.5853 26.349 21.6851 26.2771 21.7776C25.7824 21.1662 25.3972 20.6343 25.3972 20.6343C25.3972 20.6343 25.7065 19.5094 24.3847 17.8783C22.4931 15.544 20.7846 16.5283 20.3347 18.047C19.8848 19.5654 21.6283 20.8594 21.6283 20.8594L20.6158 21.478C18.197 19.1719 16.7906 18.047 16.7906 18.047C13.3593 20.1844 10.8281 19.9029 10.8281 19.9029C10.8281 19.9029 11.3227 21.1069 12.0415 22.5935C11.3506 22.535 8.24081 22.1411 8.24081 19.7905C8.24081 17.1469 8.85944 15.7969 11.1095 15.2343Z" fill="#35201E"/>
<path d="M22.9217 29.0157C22.9217 29.0157 23.6245 28.0875 23.9902 26.6251C23.9902 26.6251 24.1311 27.9751 23.5403 29.5784L22.9217 29.0157Z" fill="#9A4942"/>
<path d="M29.4472 37.0597C29.2485 37.8655 29.1607 38.6788 29.0982 39.494C29.0469 40.3103 29.023 41.1281 29.1094 41.9534C29.3088 41.1476 29.397 40.3342 29.4584 39.519C29.5087 38.703 29.5329 37.885 29.4472 37.0597Z" fill="#5AB0A6"/>
<path d="M6.27148 46.5378L0.562204 43.5567L-5.40492e-05 44.541L5.79342 47.6348L6.27148 46.5378Z" fill="#1F1E30"/>
<path d="M39.6846 43.5285C39.6846 43.5285 37.7723 51.966 36.422 55.2286C35.072 58.4912 34.9596 60.0663 29.672 59.1662C24.3844 58.2664 9.75926 52.8661 9.75926 52.8661C9.75926 52.8661 7.84666 53.4851 6.44066 52.2475C5.03394 51.0099 4.52805 48.7597 4.52805 48.7597C4.52805 48.7597 3.17807 48.3099 2.95259 47.5225C2.72783 46.7348 3.34645 46.6224 4.07818 46.6224C4.80918 46.6224 7.28441 46.6788 7.28441 46.6788C7.28441 46.6788 7.1153 45.6099 7.84667 45.3848C8.57803 45.16 10.8278 44.9909 11.2216 45.216C11.6155 45.4411 13.359 49.6035 13.359 49.6035C13.359 49.6035 17.1282 50.6724 20.6156 51.1222C24.1033 51.5725 27.8718 51.4727 27.8718 51.4727L29.1094 41.9534C29.1094 41.9534 32.4847 44.0348 39.6846 43.5285Z" fill="#DC9082"/>
<path d="M8.80273 46.7347C8.55449 46.5829 8.30263 46.5417 8.05005 46.5262C7.79674 46.5222 7.54236 46.545 7.284 46.6787C7.53152 46.8312 7.78375 46.8723 8.03669 46.8872C8.28999 46.8904 8.54401 46.868 8.80273 46.7347Z" fill="#9A4942"/>
<path d="M10.8094 85.2665C12.5309 80.7902 14.0063 75.7902 14.605 73.6875C17.4911 74.6274 23.4107 74.7925 28.2097 73.904C33.9859 72.834 33.9649 75.2207 33.949 75.4585L33.9472 75.4787C33.9472 75.4787 32.4097 82.4166 27.9095 89.4668C23.4096 96.5167 22.3595 98.6169 22.3595 98.6169C22.3595 98.6169 27.1597 104.767 30.4598 111.367C33.7597 117.967 36.0098 123.367 36.0098 123.367C36.0098 123.367 33.4597 127.567 30.1596 126.967C30.1596 126.967 15.0094 110.017 10.8094 104.167C6.6095 98.3169 8.55933 91.1168 10.8094 85.2665Z" fill="#1E2D30"/>
<path d="M27.0459 123.456L25.7346 130.117C22.4347 131.842 19.8847 130.117 19.8847 130.117L16.7761 111.595C20.2753 115.745 24.3253 120.373 27.0459 123.456Z" fill="#1F1E30"/>
<path d="M36.0102 123.367L37.285 125.767C37.285 125.767 37.7349 128.692 36.0102 129.518C34.2847 130.342 31.8102 129.518 31.8102 129.518L30.16 126.967C33.4602 127.567 36.0102 123.367 36.0102 123.367Z" fill="#DC9082"/>
<path d="M29.1095 138.085C30.6098 134.259 30.2344 130.209 31.0597 129.684C31.1406 129.633 31.2668 129.558 31.4261 129.467L31.8098 130.06C31.8098 130.06 34.2843 130.884 36.0098 130.06C37.7345 129.234 37.2846 126.31 37.2846 126.309L40.8099 130.06C40.9599 134.034 30.5347 144.234 29.0347 144.384C27.5348 144.534 26.9345 143.784 26.5598 142.884C26.1844 141.985 27.6095 141.91 29.1095 138.085Z" fill="#1F1E30"/>
<path d="M25.7344 130.117L25.3593 134.017C25.3593 134.017 23.4846 135.142 21.5344 134.467C19.5843 133.793 19.5843 132.4 19.5843 132.4L19.8845 130.117C19.8845 130.117 22.4346 131.842 25.7344 130.117Z" fill="#DC9082"/>
<path d="M9.23427 138.076C11.1093 137.318 14.4095 136.287 15.9094 134.815C17.4094 133.342 18.1592 132.133 19.5843 132.4C19.5843 132.4 19.5843 133.793 21.5345 134.467C23.4847 135.142 25.3594 134.017 25.3594 134.017V140.392C25.3594 140.392 22.0592 141.968 16.4345 141.968C10.8094 141.968 9.45903 142.342 8.8592 141.968C8.25936 141.593 7.35924 138.834 9.23427 138.076Z" fill="#1F1E30"/>
<path fill-rule="evenodd" clip-rule="evenodd" d="M138.743 100.129C139.014 99.1618 139.128 97.9356 138.797 96.3643C138.204 93.542 137.437 90.7752 135.917 87.6746C131.71 79.0874 126.687 89.1104 126.687 89.1104C126.687 89.1104 131.614 99.2521 131.829 99.9949C132.044 100.737 131.973 101.627 130.825 103.965C125.583 114.642 125.936 127.159 121.445 137.59L121.066 138.102C120.702 139.495 121.947 142.297 122.345 142.701C122.742 143.104 124.212 143.275 124.627 143.165C125.042 143.055 124.626 142.424 124.626 142.424C124.626 142.424 124.086 141.391 124.154 140.347C124.541 134.491 136.229 109.096 138.743 100.129Z" fill="#F4A175"/>
<path fill-rule="evenodd" clip-rule="evenodd" d="M138 91.082C137.535 89.6101 136.95 88.1014 136.172 86.5067C135.93 86.0103 135.685 85.5775 135.439 85.1978L126.905 87.7442C126.826 87.8886 126.784 87.9731 126.784 87.9731C126.784 87.9731 131.795 98.3306 132.014 99.0892C132.233 99.8468 132.16 100.756 130.992 103.144C125.661 114.048 126.02 126.831 121.453 137.484L121.067 138.007C120.697 139.43 121.963 142.292 122.368 142.704C122.641 142.981 123.409 143.152 124.01 143.198C124.439 142.96 124.717 142.613 124.737 142.504C124.709 142.453 124.688 142.421 124.688 142.421C124.688 142.421 124.465 141.992 124.321 141.406C123.906 141.41 123.294 141.396 123.224 141.174C123.133 140.89 122.476 138.143 122.695 137.385C122.914 136.627 124.738 130.866 126.707 122.984C128.677 115.101 131.778 104.756 132.434 103.088C133.091 101.42 134.185 98.9946 133.894 98.3509C133.602 97.7064 131.449 93.9547 131.924 93.348C132.398 92.7421 135.481 90.6764 136.776 90.7147C137.223 90.7277 137.643 90.8836 138 91.082Z" fill="#EF7164"/>
<path fill-rule="evenodd" clip-rule="evenodd" d="M120.837 137.351C120.837 137.351 120.543 137.147 120.267 137.21C119.993 137.273 118.541 137.979 118.019 139.012C118.019 139.012 117.92 139.297 118.175 139.588C118.43 139.88 121.339 142.935 121.339 142.935C121.339 142.935 121.712 143.198 122.36 143.198C123.008 143.198 127.725 143.198 127.725 143.198C127.725 143.198 128.063 143.023 127.99 142.833C127.916 142.643 127.852 142.51 127.067 142.368C126.28 142.226 124.806 141.872 124.375 141.069C124.375 141.069 124.207 141.014 123.923 141.061C123.637 141.108 122.606 141.344 122.331 141.32C122.056 141.297 120.445 139.052 120.837 137.351Z" fill="#3D3D3D"/>
<path fill-rule="evenodd" clip-rule="evenodd" d="M118.292 138.198C118.187 138.342 118.094 138.495 118.019 138.654C118.019 138.654 117.92 138.963 118.175 139.279C118.43 139.596 121.339 142.913 121.339 142.913C121.339 142.913 121.712 143.198 122.36 143.198C123.008 143.198 127.725 143.198 127.725 143.198C127.725 143.198 128.063 143.009 127.99 142.802C127.615 142.785 122.176 142.57 121.913 142.379C121.65 142.188 118.296 138.202 118.292 138.198Z" fill="#3D3D3D"/>
<path fill-rule="evenodd" clip-rule="evenodd" d="M125.01 24.9163L126.279 25.1834C126.279 25.1834 125.35 27.1808 126.209 30.315C127.067 33.4496 127.515 34.9244 126.022 35.7357C126.022 35.7357 128.374 41.5986 121.468 42.1521C114.563 42.7048 109.582 38.2157 113.229 29.822C116.876 21.4283 125.01 24.9163 125.01 24.9163Z" fill="#141518"/>
<path fill-rule="evenodd" clip-rule="evenodd" d="M111.79 88.1253C111.79 88.1253 112.964 92.9518 112.918 97.4241C112.917 97.5718 113.366 100.311 113.337 100.458C111.55 109.406 111.634 138.524 111.623 138.81C111.608 139.198 111 139.659 111 139.659L111.109 140.602C111.109 140.602 112.632 141.859 113.495 142.026C114.358 142.193 115.598 142.266 116.007 142.118C116.415 141.97 116.364 141.68 116.364 141.68C116.364 141.68 114.444 140.382 113.848 139.421C113.251 138.459 118.997 100.654 118.997 100.395C118.997 100.292 119.118 86.7095 117.931 84.9121C116.134 82.1899 111.79 88.1253 111.79 88.1253Z" fill="#F4A175"/>
<path fill-rule="evenodd" clip-rule="evenodd" d="M112.354 91.1978C112.648 92.9685 112.941 95.3311 112.918 97.6019C112.917 97.7491 113.366 100.477 113.337 100.623C111.55 109.536 111.634 138.538 111.623 138.823C111.608 139.21 111 139.669 111 139.669L111.109 140.609C111.109 140.609 112.632 141.86 113.496 142.026C114.358 142.193 115.598 142.265 116.007 142.119C116.415 141.971 116.365 141.682 116.365 141.682C116.365 141.682 116.153 141.539 115.848 141.314C115.441 141.428 114.695 141.637 114.453 141.526C114.127 141.377 112.744 140.015 112.646 139.624C112.549 139.232 112.595 137.798 112.402 135.296C112.21 132.794 114.291 101.649 114.714 100.866C115.137 100.083 117.156 99.0003 117.905 98.8513C118.177 98.7968 118.587 98.9163 119 99.0893C118.997 97.314 118.967 94.2148 118.822 91.369L112.354 91.1978Z" fill="#EF7164"/>
<path fill-rule="evenodd" clip-rule="evenodd" d="M109.787 143.198H120.685C120.685 143.198 121.07 143.048 120.989 142.745C120.908 142.443 120.615 142.2 120.391 142.165C120.169 142.131 118.204 142.07 116.584 141.049C116.584 141.049 114.761 141.413 114.416 141.448C114.072 141.482 111.125 140.634 109.464 139.198C109.464 139.198 109.119 139.501 109.059 139.751C108.998 140.002 108.795 142.156 109.787 143.198Z" fill="#3D3D3D"/>
<path fill-rule="evenodd" clip-rule="evenodd" d="M124 38.1978C128.931 40.817 130.043 44.2498 131.784 49.159C132.73 51.8274 130.334 56.5463 129.192 60.0313C127.206 66.101 124.876 71.4843 125.017 68.2029L125.691 52.5555L124 38.1978Z" fill="#EF7164"/>
<path fill-rule="evenodd" clip-rule="evenodd" d="M113.768 65.6229C107.494 74.2177 110.21 90.5621 108 102.25C116.576 110.257 133.049 90.7229 139 94.8258C139 94.8258 136.042 86.5375 134.237 81.1422C132.432 75.7465 127.825 68.5675 127.472 65.1978H116.646L113.768 65.6229Z" fill="#161A2A"/>
<path fill-rule="evenodd" clip-rule="evenodd" d="M122.051 96.6973C121.937 93.6631 121.473 84.8232 119.781 77.8311C117.984 70.3987 122.044 84.7096 129 93.2567C126.782 94.3582 124.417 95.6201 122.051 96.6973ZM113.763 65.5684C107.494 73.0618 110.209 87.3116 108 97.5015C109.919 99.0653 112.236 99.4218 114.74 99.0776C112.026 93.265 111.887 76.8575 113.18 73.6162C114.562 70.1536 117.709 69.0997 122.084 67.5946C124.07 66.9114 126.261 66.9412 128.061 67.1776C127.741 66.4216 127.523 65.7508 127.457 65.1978H116.639L113.763 65.5684Z" fill="#141518"/>
<path fill-rule="evenodd" clip-rule="evenodd" d="M127.834 62.1978C125.576 62.7813 119.538 64.0988 114.575 62.9939C114.396 64.3087 114.173 65.4368 114 66.2148C116.181 67.1148 120.657 68.0648 128 65.7703C127.887 64.5868 127.837 63.3862 127.834 62.1978Z" fill="#B0C4E6"/>
<path fill-rule="evenodd" clip-rule="evenodd" d="M122.88 37.2348C123.093 37.2725 123.472 37.4077 123.913 37.631C124.636 37.999 126.426 40.9349 127.677 43.2596C129.466 46.5849 129.178 47.5574 128.347 50.6417L128.345 50.6472C128.196 51.2053 128.028 51.832 127.85 52.5548C127.823 52.7786 127.797 53.01 127.775 53.2473C127.314 55.665 126.768 59.45 126.92 63.2359C125.357 63.6234 123.656 63.9461 121.905 64.1135C119.333 64.359 117.035 64.0377 115.168 63.5413C115.629 60.8767 115.978 56.8154 114.567 54.0283C112.304 49.5558 112.304 44.5611 112.304 44.5611C112.304 44.5611 111.832 44.7803 111.101 45.1918L111 44.5928C111.426 44.3474 111.92 44.7149 111.395 43.1839C110.871 41.6528 111.292 39.3644 111.299 39.354C112.061 38.7577 112.956 38.2998 113.557 38.0285C113.724 37.9531 121.568 37.0002 122.88 37.2348Z" fill="white"/>
<path fill-rule="evenodd" clip-rule="evenodd" d="M128.929 46.7816C129.146 48.0567 128.843 49.1368 128.347 50.9621L128.345 50.9675C128.267 51.2547 128.185 51.56 128.099 51.8873C127.25 51.7779 125.763 51.9116 123.2 52.5771C117.157 54.1461 117.098 61.5305 117.28 64.1978C116.527 64.0843 115.821 63.9335 115.168 63.761C115.629 61.1172 115.978 57.0876 114.567 54.3222C112.304 49.8846 112.304 44.9288 112.304 44.9288C112.304 44.9288 111.832 45.1463 111.101 45.5547L111 44.9604C111.426 44.7168 111.92 45.0815 111.395 43.5624C110.871 42.0432 111.292 39.7727 111.299 39.7623C112.061 39.1707 112.956 38.7164 113.557 38.4472C113.607 38.4247 114.358 38.3229 115.416 38.1978L115.846 38.5615L116.957 40.6394C116.957 40.6394 116 40.3184 115.571 40.3922C115.143 40.4661 114.886 42.0748 114.8 42.5187C114.714 42.9622 115.382 45.181 116.548 47.696C117.636 50.0422 125.876 49.5632 128.929 46.7816Z" fill="white"/>
<path fill-rule="evenodd" clip-rule="evenodd" d="M116.68 37.1157C116.691 36.5676 116.765 32.9602 116.765 32.9602L116.729 31.1978C116.729 31.1978 122.413 32.3908 121.819 33.1446C121.25 33.8684 121.04 36.296 121.749 37.5177C122.163 38.2309 122.612 38.1299 123.279 38.4439L123.28 38.4526L123.283 38.4536C123.956 40.0487 124.238 42.3791 123.766 43.9299C122.355 48.5639 115.5 38.9893 113 39.1852C113.906 38.7901 116.659 38.1175 116.68 37.1157Z" fill="#F4A175"/>
<path fill-rule="evenodd" clip-rule="evenodd" d="M116.737 36.8323C116.748 36.2751 116.823 32.6079 116.823 32.6079L116.81 31.9668C117.43 31.6322 117.988 31.3594 118.415 31.1978C120.071 31.6181 122.346 32.3 121.956 32.7954C121.534 33.3324 121.305 34.7932 121.495 36.0262C120.06 36.6003 116.664 37.9571 116.171 38.1384C115.74 38.2968 116.066 39.8063 116.706 41.1978C115.222 39.9366 113.858 38.8686 113 38.9361C113.92 38.5344 116.716 37.8507 116.737 36.8323Z" fill="#E54D48"/>
<path fill-rule="evenodd" clip-rule="evenodd" d="M116.317 32.0034L116.315 32.0423L116.314 32.051L116.313 32.0807L116.31 32.1196L116.308 32.1589L116.305 32.1891L116.304 32.1978L116.3 32.1763C116.308 32.1177 116.314 32.0601 116.317 32.0034ZM111.495 20.2231C112.412 16.3154 117.021 14.3288 118.722 16.1869C118.722 16.1869 120.472 13.7756 123.005 16.4827C125.815 19.4861 125.573 27.0761 122.804 29.1377C118.732 30.7621 116.615 30.6684 116.368 30.6501C116.341 28.7783 115.724 27.8918 113.105 27.4844C110.433 27.0693 110.971 22.8767 111.213 21.538C111.302 21.0831 111.396 20.6433 111.495 20.2231Z" fill="#161A2A"/>
<path fill-rule="evenodd" clip-rule="evenodd" d="M116.318 32.0024L116.315 32.0415L116.315 32.0502L116.313 32.0801L116.311 32.1191H116.31L116.308 32.1587L116.305 32.189L116.305 32.1978L116.3 32.1757C116.308 32.1173 116.314 32.0594 116.318 32.0024ZM124.944 21.5646C125.221 24.6192 124.469 27.8748 122.804 29.121C118.732 30.7543 116.616 30.6596 116.369 30.6417C116.342 28.7597 115.725 27.8684 113.105 27.4588C111.205 27.1618 110.928 24.9452 111.013 23.2048C117.303 26.4971 120.077 21.1978 120.077 21.1978C123.943 26.0507 124.825 22.2201 124.944 21.5646Z" fill="#141518"/>
<path fill-rule="evenodd" clip-rule="evenodd" d="M123.463 27.1984C124.292 27.1711 124.979 28.0444 125 29.1489C125.02 30.2533 124.365 31.1703 123.537 31.1971C122.708 31.225 122.021 30.351 122 29.2466C121.98 28.1428 122.635 27.2251 123.463 27.1984Z" fill="#DD413D"/>
<path fill-rule="evenodd" clip-rule="evenodd" d="M117.306 19.1995C120.297 19.1203 122.804 21.6856 122.877 24.8995L122.998 30.2094C123.072 33.4234 120.685 36.1172 117.694 36.196C114.703 36.2747 112.196 33.7104 112.123 30.496L112.002 25.1861C111.928 21.9722 114.315 19.2783 117.306 19.1995Z" fill="#F4A175"/>
<path fill-rule="evenodd" clip-rule="evenodd" d="M124 27.4632L122.002 26.1978C122.002 26.1978 121.891 28.6374 123.211 29.1978L123.191 28.3795C123.182 27.9685 123.367 27.4794 124 27.4632Z" fill="#141518"/>
<path fill-rule="evenodd" clip-rule="evenodd" d="M122.041 26.6586C122.069 26.6695 122.098 26.6795 122.127 26.6875L122.802 27.1978L122.797 26.8177L123.865 25.9718L124 19.6817L120.509 18.6766L118.629 17.1978L114.714 17.9325C114.714 17.9325 112.635 19.6233 112.444 19.9794C112.377 20.1051 112.191 20.7431 111.979 21.5137L111 22.8409L111.355 23.8594C111.217 24.3896 111.123 24.7572 111.123 24.7572L111.921 25.479C111.921 25.479 116.468 24.845 117.49 24.5393C118.513 24.233 119.539 23.1726 119.765 22.0125C119.765 22.0125 119.853 25.8924 122.041 26.6586Z" fill="#161A2A"/>
<path fill-rule="evenodd" clip-rule="evenodd" d="M122.101 26.705C122.129 26.7151 122.158 26.7242 122.188 26.7315L122.866 27.1978L122.861 26.8504L123.935 26.0774L124 23.3317C123.222 23.5879 121.494 23.371 119.643 21.1978C119.643 21.1978 117.36 26.0136 111.012 23.2009L111 23.2164L111.357 24.1472C111.218 24.6317 111.124 24.9676 111.124 24.9676L111.926 25.6271C111.926 25.6271 116.497 25.0478 117.525 24.7684C118.554 24.4885 119.585 23.5195 119.813 22.4594C119.813 22.4594 119.901 26.005 122.101 26.705Z" fill="#141518"/>
<path fill-rule="evenodd" clip-rule="evenodd" d="M123 15.6117C120.94 20.8437 114.995 24.2895 111 20.7587C111.082 20.4158 111.168 20.0834 111.259 19.7633C111.444 19.1007 111.766 18.4985 112.179 17.9662C115.744 20.8589 121.238 19.6851 121.991 15.1978C122.306 15.2726 122.643 15.4049 123 15.6117Z" fill="#262A42"/>
<path fill-rule="evenodd" clip-rule="evenodd" d="M113.575 44.1674C113.522 48.2878 111.651 56.6977 111.61 57.1671C111.571 57.636 111.61 58.2224 112.213 58.5744C112.816 58.9258 125.779 55.4642 126.382 55.3079C126.984 55.1516 126.748 55.9135 126.908 57.3989C126.908 57.3989 129.429 57.0014 126.809 57.9889C124.189 58.9759 113.679 62.7563 112.194 63.1083C110.707 63.4606 107.213 62.8738 107.013 59.5122C106.812 56.1506 109.022 43.9066 109.242 42.8857C110.214 38.3759 113.626 40.0471 113.575 44.1674Z" fill="#F4A175"/>
<path fill-rule="evenodd" clip-rule="evenodd" d="M126.892 57.2487C124.714 58.1178 114.943 61.6502 112.682 62.2544C111.143 62.6658 109.276 62.4228 108 61.8721C109.191 63.145 111.186 63.3527 112.216 63.1084C113.699 62.7564 124.194 58.9758 126.811 57.9888C129.427 57.0013 126.91 57.3988 126.91 57.3988C126.905 57.3474 126.899 57.2974 126.892 57.2487ZM113.595 44.1668C113.543 48.2873 111.674 56.6976 111.633 57.167C111.594 57.6359 111.633 58.2223 112.235 58.5743C112.313 58.6203 112.589 58.6047 113.006 58.5435L113.004 58.5439C110.897 59.2697 110.829 57.4033 110.904 56.7061C110.979 56.0089 112.372 47.3155 112.56 43.7568C112.745 40.2562 110.642 40.4308 110.574 40.4375C111.915 39.5425 113.631 41.2339 113.595 44.1668Z" fill="#F4A175"/>
<path fill-rule="evenodd" clip-rule="evenodd" d="M130.581 57.3381C130.489 57.7685 130.305 57.8224 129.696 57.8133C129.317 57.8077 128.693 57.7914 128.192 57.7888L127.638 58.1978C127.496 58.0781 127.158 57.8418 127.082 57.7247C127.022 57.6304 126.959 57.6539 127.035 57.387C127.111 57.1207 128.775 49.8125 128.836 49.6689C128.898 49.5258 129.083 49.1494 129.691 49.2029C130.27 49.2543 130.595 49.2075 132.197 49.2187C132.314 49.2197 132.47 49.2268 132.571 49.3098L133 49.6622C131.666 52.4331 131.252 54.218 130.581 57.3381Z" fill="#131214"/>
<path fill-rule="evenodd" clip-rule="evenodd" d="M133 51.4865C133 51.6571 131.448 57.4783 131.367 57.8199C131.285 58.1619 131.121 58.204 130.585 58.1971C130.047 58.1898 128.955 58.1615 128.642 58.1898C128.329 58.2185 127.914 58.0192 128.016 57.699C128.118 57.3788 129.553 51.6854 129.607 51.5718C129.662 51.4578 129.825 51.1591 130.363 51.2019C130.875 51.2424 131.162 51.2056 132.578 51.2145C132.745 51.2153 133 51.2298 133 51.4865Z" fill="#141518"/>
<path fill-rule="evenodd" clip-rule="evenodd" d="M128 57.099C128.203 56.4655 129.598 51.6406 129.653 51.5405C129.71 51.4361 129.882 51.1623 130.446 51.2016C130.984 51.2386 131.285 51.2049 132.772 51.2131C132.841 51.2131 132.925 51.2156 133 51.2327C132.741 52.1985 131.407 56.5692 131.329 56.8515C131.244 57.1649 131.072 57.2035 130.507 57.1972C129.943 57.1905 128.797 57.1646 128.467 57.1905C128.313 57.2031 128.135 57.169 128 57.099Z" fill="#161A2A"/>
<path fill-rule="evenodd" clip-rule="evenodd" d="M131.273 52.1978C131.805 52.1978 132.112 52.4214 131.962 52.6976C131.809 52.9738 131.258 53.1978 130.727 53.1978C130.195 53.1978 129.888 52.9738 130.038 52.6976C130.19 52.4214 130.743 52.1978 131.273 52.1978Z" fill="#262A43"/>
<path fill-rule="evenodd" clip-rule="evenodd" d="M116.034 37.3794C115.992 37.3407 115.988 37.2748 116.027 37.2323C116.065 37.1894 116.13 37.1861 116.172 37.2243C116.179 37.2315 118.727 39.578 120.555 40.9893L120.803 41.1818C121.363 41.6185 121.8 41.9585 122.106 41.9875C122.433 42.0186 122.637 41.6399 122.742 40.5178C122.829 39.5729 122.79 38.4411 122.753 37.8569C122.745 37.7341 122.736 37.6375 122.73 37.5728C122.728 37.5551 122.73 37.5387 122.736 37.524C122.722 37.5059 122.713 37.4824 122.713 37.4572C122.713 37.4 122.759 37.3529 122.816 37.3529C122.88 37.3538 122.922 37.424 122.935 37.5513C122.942 37.6224 122.95 37.7224 122.958 37.8438C122.996 38.4331 123.035 39.5767 122.946 40.5367C122.827 41.8123 122.55 42.2385 122.087 42.1947C121.722 42.1599 121.265 41.8039 120.678 41.3466L120.431 41.1549C118.593 39.736 116.042 37.3861 116.034 37.3794Z" fill="#141518"/>
<path fill-rule="evenodd" clip-rule="evenodd" d="M122.5 43.1978C122.775 43.1978 123 42.9728 123 42.6976C123 42.4223 122.775 42.1978 122.5 42.1978C122.225 42.1978 122 42.4223 122 42.6976C122 42.9728 122.225 43.1978 122.5 43.1978Z" fill="#141518"/>
<path fill-rule="evenodd" clip-rule="evenodd" d="M125 55.1876C125.876 54.868 126.263 54.3998 126.759 53.9427C127.371 53.3791 127.455 53.1553 127.93 52.4195C128.189 52.0176 128.523 52.2118 128.605 52.606C128.692 53.0239 128.519 53.6635 128.414 53.9297C128.414 53.9297 128.107 54.3672 128.454 54.4461C128.603 54.4795 128.885 54.4839 129 54.46L128.954 56.8062C128.376 56.8071 128.475 56.5873 127.909 56.7052C127.452 56.7997 127.112 56.9168 126.755 57.1978L125 55.1876Z" fill="#F4A175"/>
<path fill-rule="evenodd" clip-rule="evenodd" d="M125.176 56.7936C125.682 56.7535 126.536 57.2312 127.081 57.1959C130.19 56.9928 131.412 55.8794 131.576 55.5395C131.784 55.1107 131.415 55.1561 131.415 55.1561C131.415 55.1561 132.088 54.4899 131.99 54.2419C131.893 53.9939 131.644 54.048 131.67 53.9397C131.696 53.831 132.013 53.4166 131.999 53.186C131.983 52.9554 131.425 53.1 131.425 53.1C131.425 53.1 131.737 52.0093 131.057 52.2263C130.377 52.4434 128.948 53.5307 128.084 53.4166C127.22 53.3025 127.592 53.4287 127.592 53.4287C127.592 53.4287 124.2 56.0544 125.176 56.7936Z" fill="#F4A175"/>
<defs>
<linearGradient id="paint0_linear" x1="74.4058" y1="14.7615" x2="74.4058" y2="125.473" gradientUnits="userSpaceOnUse">
<stop stop-color="#CFCFCF"/>
<stop offset="1" stop-color="#E1E0E0" stop-opacity="0.52"/>
</linearGradient>
</defs>
</svg>
