<svg width="161" height="155" viewBox="0 0 161 155" fill="none" xmlns="http://www.w3.org/2000/svg">
<path fill-rule="evenodd" clip-rule="evenodd" d="M160.743 99.9309C161.014 98.964 161.128 97.7379 160.797 96.1666C160.204 93.3442 159.437 90.5775 157.917 87.4768C153.71 78.8896 148.687 88.9126 148.687 88.9126C148.687 88.9126 153.614 99.0544 153.829 99.7971C154.044 100.539 153.973 101.429 152.825 103.767C147.583 114.445 147.936 126.961 143.445 137.392L143.066 137.904C142.702 139.297 143.947 142.1 144.345 142.503C144.742 142.907 146.212 143.077 146.627 142.967C147.042 142.858 146.626 142.226 146.626 142.226C146.626 142.226 146.086 141.193 146.154 140.149C146.541 134.294 158.229 108.898 160.743 99.9309Z" fill="#F4A175"/>
<path fill-rule="evenodd" clip-rule="evenodd" d="M160 90.8843C159.535 89.4124 158.95 87.9036 158.172 86.309C157.93 85.8125 157.685 85.3797 157.439 85L148.905 87.5465C148.826 87.6909 148.784 87.7753 148.784 87.7753C148.784 87.7753 153.795 98.1329 154.014 98.8914C154.233 99.6491 154.16 100.558 152.992 102.946C147.661 113.851 148.02 126.633 143.453 137.286L143.067 137.809C142.697 139.232 143.963 142.094 144.368 142.506C144.641 142.784 145.409 142.954 146.01 143C146.439 142.762 146.717 142.415 146.737 142.306C146.709 142.255 146.688 142.223 146.688 142.223C146.688 142.223 146.465 141.794 146.321 141.208C145.906 141.213 145.294 141.198 145.224 140.976C145.133 140.692 144.476 137.945 144.695 137.187C144.914 136.429 146.738 130.669 148.707 122.786C150.677 114.903 153.778 104.558 154.434 102.89C155.091 101.222 156.185 98.7968 155.894 98.1532C155.602 97.5086 153.449 93.7569 153.924 93.1502C154.398 92.5444 157.481 90.4787 158.776 90.517C159.223 90.5299 159.643 90.6859 160 90.8843Z" fill="#EF7164"/>
<path fill-rule="evenodd" clip-rule="evenodd" d="M142.837 137.154C142.837 137.154 142.543 136.949 142.267 137.012C141.993 137.075 140.541 137.781 140.019 138.814C140.019 138.814 139.92 139.099 140.175 139.39C140.43 139.682 143.339 142.737 143.339 142.737C143.339 142.737 143.712 143 144.36 143C145.008 143 149.725 143 149.725 143C149.725 143 150.063 142.826 149.99 142.636C149.916 142.445 149.852 142.313 149.067 142.17C148.28 142.028 146.806 141.674 146.375 140.871C146.375 140.871 146.207 140.816 145.923 140.863C145.637 140.91 144.606 141.147 144.331 141.123C144.056 141.099 142.445 138.855 142.837 137.154Z" fill="#3D3D3D"/>
<path fill-rule="evenodd" clip-rule="evenodd" d="M140.292 138C140.187 138.144 140.094 138.297 140.019 138.456C140.019 138.456 139.92 138.765 140.175 139.082C140.43 139.399 143.339 142.715 143.339 142.715C143.339 142.715 143.712 143 144.36 143C145.008 143 149.725 143 149.725 143C149.725 143 150.063 142.811 149.99 142.605C149.615 142.588 144.176 142.373 143.913 142.182C143.65 141.991 140.296 138.004 140.292 138Z" fill="#3D3D3D"/>
<path fill-rule="evenodd" clip-rule="evenodd" d="M147.01 24.7185L148.279 24.9857C148.279 24.9857 147.35 26.9831 148.209 30.1172C149.067 33.2518 149.515 34.7266 148.022 35.5379C148.022 35.5379 150.374 41.4008 143.468 41.9544C136.563 42.507 131.582 38.0179 135.229 29.6243C138.876 21.2306 147.01 24.7185 147.01 24.7185Z" fill="#141518"/>
<path fill-rule="evenodd" clip-rule="evenodd" d="M133.79 87.9276C133.79 87.9276 134.964 92.7541 134.918 97.2263C134.917 97.374 135.366 100.113 135.337 100.26C133.55 109.208 133.634 138.326 133.623 138.612C133.608 139 133 139.461 133 139.461L133.109 140.404C133.109 140.404 134.632 141.661 135.495 141.828C136.358 141.995 137.598 142.068 138.007 141.921C138.415 141.772 138.364 141.482 138.364 141.482C138.364 141.482 136.444 140.185 135.848 139.223C135.251 138.261 140.997 100.456 140.997 100.197C140.997 100.094 141.118 86.5118 139.931 84.7143C138.134 81.9922 133.79 87.9276 133.79 87.9276Z" fill="#F4A175"/>
<path fill-rule="evenodd" clip-rule="evenodd" d="M134.354 91C134.648 92.7708 134.941 95.1333 134.918 97.4042C134.917 97.5513 135.366 100.279 135.337 100.426C133.55 109.339 133.634 138.341 133.623 138.625C133.608 139.012 133 139.471 133 139.471L133.109 140.411C133.109 140.411 134.632 141.662 135.496 141.829C136.358 141.995 137.598 142.068 138.007 141.921C138.415 141.773 138.365 141.484 138.365 141.484C138.365 141.484 138.153 141.341 137.848 141.116C137.441 141.23 136.695 141.439 136.453 141.328C136.127 141.179 134.744 139.818 134.646 139.426C134.549 139.034 134.595 137.6 134.402 135.098C134.21 132.596 136.291 101.452 136.714 100.669C137.137 99.8848 139.156 98.8025 139.905 98.6536C140.177 98.5991 140.587 98.7185 141 98.8916C140.997 97.1162 140.967 94.017 140.822 91.1712L134.354 91Z" fill="#EF7164"/>
<path fill-rule="evenodd" clip-rule="evenodd" d="M131.787 143H142.685C142.685 143 143.07 142.85 142.989 142.547C142.908 142.245 142.615 142.002 142.391 141.968C142.169 141.933 140.204 141.872 138.584 140.852C138.584 140.852 136.761 141.215 136.416 141.25C136.072 141.284 133.125 140.436 131.464 139C131.464 139 131.119 139.303 131.059 139.553C130.998 139.805 130.795 141.959 131.787 143Z" fill="#3D3D3D"/>
<path fill-rule="evenodd" clip-rule="evenodd" d="M146 38C150.931 40.6193 152.043 44.052 153.784 48.9613C154.73 51.6297 152.334 56.3486 151.192 59.8336C149.206 65.9033 146.876 71.2866 147.017 68.0052L147.691 52.3577L146 38Z" fill="#EF7164"/>
<path fill-rule="evenodd" clip-rule="evenodd" d="M135.768 65.4252C129.494 74.0199 132.21 90.3643 130 102.052C138.576 110.06 155.049 90.5252 161 94.6281C161 94.6281 158.042 86.3397 156.237 80.9445C154.432 75.5487 149.825 68.3698 149.472 65H138.646L135.768 65.4252Z" fill="#161A2A"/>
<path fill-rule="evenodd" clip-rule="evenodd" d="M144.051 96.4996C143.937 93.4654 143.473 84.6254 141.781 77.6334C139.984 70.201 144.044 84.5118 151 93.059C148.782 94.1605 146.417 95.4223 144.051 96.4996ZM135.763 65.3707C129.494 72.864 132.209 87.1139 130 97.3037C131.919 98.8675 134.236 99.224 136.74 98.8799C134.026 93.0672 133.887 76.6597 135.18 73.4184C136.562 69.9558 139.709 68.902 144.084 67.3968C146.07 66.7137 148.261 66.7434 150.061 66.9799C149.741 66.2238 149.523 65.553 149.457 65H138.639L135.763 65.3707Z" fill="#141518"/>
<path fill-rule="evenodd" clip-rule="evenodd" d="M149.834 62C147.576 62.5835 141.538 63.9011 136.575 62.7961C136.396 64.111 136.173 65.239 136 66.017C138.181 66.917 142.657 67.867 150 65.5725C149.887 64.389 149.837 63.1885 149.834 62Z" fill="#B0C4E6"/>
<path fill-rule="evenodd" clip-rule="evenodd" d="M144.88 37.0371C145.093 37.0747 145.472 37.21 145.913 37.4332C146.636 37.8012 148.426 40.7372 149.677 43.0619C151.466 46.3872 151.178 47.3596 150.347 50.444L150.345 50.4494C150.196 51.0076 150.028 51.6342 149.85 52.3571C149.823 52.5808 149.797 52.8122 149.775 53.0496C149.314 55.4673 148.768 59.2523 148.92 63.0381C147.357 63.4257 145.656 63.7483 143.905 63.9157C141.333 64.1612 139.035 63.84 137.168 63.3435C137.629 60.6789 137.978 56.6176 136.567 53.8305C134.304 49.3581 134.304 44.3633 134.304 44.3633C134.304 44.3633 133.832 44.5825 133.101 44.9941L133 44.3951C133.426 44.1496 133.92 44.5172 133.395 42.9861C132.871 41.4551 133.292 39.1667 133.299 39.1562C134.061 38.56 134.956 38.1021 135.557 37.8307C135.724 37.7554 143.568 36.8025 144.88 37.0371Z" fill="white"/>
<path fill-rule="evenodd" clip-rule="evenodd" d="M150.929 46.5838C151.146 47.8589 150.843 48.939 150.347 50.7643L150.345 50.7697C150.267 51.0569 150.185 51.3622 150.099 51.6895C149.25 51.5801 147.763 51.7138 145.2 52.3793C139.157 53.9484 139.098 61.3328 139.28 64C138.527 63.8865 137.821 63.7357 137.168 63.5633C137.629 60.9195 137.978 56.8898 136.567 54.1244C134.304 49.6869 134.304 44.7311 134.304 44.7311C134.304 44.7311 133.832 44.9485 133.101 45.3569L133 44.7626C133.426 44.519 133.92 44.8837 133.395 43.3646C132.871 41.8455 133.292 39.5749 133.299 39.5646C134.061 38.973 134.956 38.5187 135.557 38.2494C135.607 38.2269 136.358 38.1252 137.416 38L137.846 38.3638L138.957 40.4416C138.957 40.4416 138 40.1206 137.571 40.1945C137.143 40.2683 136.886 41.877 136.8 42.321C136.714 42.7644 137.382 44.9832 138.548 47.4983C139.636 49.8445 147.876 49.3654 150.929 46.5838Z" fill="white"/>
<path fill-rule="evenodd" clip-rule="evenodd" d="M138.68 36.918C138.691 36.3698 138.765 32.7624 138.765 32.7624L138.729 31C138.729 31 144.413 32.1931 143.819 32.9468C143.25 33.6706 143.04 36.0983 143.749 37.32C144.163 38.0331 144.612 37.9322 145.279 38.2461L145.28 38.2549L145.283 38.2558C145.956 39.8509 146.238 42.1813 145.766 43.7321C144.355 48.3662 137.5 38.7915 135 38.9874C135.906 38.5924 138.659 37.9197 138.68 36.918Z" fill="#F4A175"/>
<path fill-rule="evenodd" clip-rule="evenodd" d="M138.737 36.6345C138.748 36.0773 138.823 32.4102 138.823 32.4102L138.81 31.7691C139.43 31.4344 139.988 31.1617 140.415 31C142.071 31.4204 144.346 32.1023 143.956 32.5976C143.534 33.1347 143.305 34.5955 143.495 35.8285C142.06 36.4026 138.664 37.7593 138.171 37.9407C137.74 38.0991 138.066 39.6086 138.706 41C137.222 39.7389 135.858 38.6708 135 38.7383C135.92 38.3367 138.716 37.6529 138.737 36.6345Z" fill="#E54D48"/>
<path fill-rule="evenodd" clip-rule="evenodd" d="M138.317 31.8057L138.315 31.8446L138.314 31.8532L138.313 31.883L138.31 31.9218L138.308 31.9611L138.305 31.9913L138.304 32L138.3 31.9785C138.308 31.92 138.314 31.8624 138.317 31.8057ZM133.495 20.0253C134.412 16.1176 139.021 14.1311 140.722 15.9891C140.722 15.9891 142.472 13.5778 145.005 16.2849C147.815 19.2883 147.573 26.8784 144.804 28.9399C140.732 30.5644 138.615 30.4706 138.368 30.4524C138.341 28.5806 137.724 27.694 135.105 27.2867C132.433 26.8715 132.971 22.679 133.213 21.3403C133.302 20.8853 133.396 20.4455 133.495 20.0253Z" fill="#161A2A"/>
<path fill-rule="evenodd" clip-rule="evenodd" d="M138.318 31.8046L138.315 31.8437L138.315 31.8524L138.313 31.8823L138.311 31.9214H138.31L138.308 31.9609L138.305 31.9913L138.305 32L138.3 31.9779C138.308 31.9196 138.314 31.8616 138.318 31.8046ZM146.944 21.3668C147.221 24.4215 146.469 27.677 144.804 28.9233C140.732 30.5566 138.616 30.4619 138.369 30.4439C138.342 28.562 137.725 27.6706 135.105 27.261C133.205 26.9641 132.928 24.7474 133.013 23.007C139.303 26.2994 142.077 21 142.077 21C145.943 25.853 146.825 22.0224 146.944 21.3668Z" fill="#141518"/>
<path fill-rule="evenodd" clip-rule="evenodd" d="M145.463 27.0006C146.292 26.9733 146.979 27.8467 147 28.9511C147.02 30.0555 146.365 30.9726 145.537 30.9994C144.708 31.0272 144.021 30.1533 144 29.0489C143.98 27.945 144.635 27.0274 145.463 27.0006Z" fill="#DD413D"/>
<path fill-rule="evenodd" clip-rule="evenodd" d="M139.306 19.0018C142.297 18.9226 144.804 21.4878 144.877 24.7018L144.5 30.5C143.502 33.9884 143.5 34.4999 140 35.9999C137.5 35.4999 136 33.5 135 30.0001L134.002 24.9884C133.928 21.7744 136.315 19.0806 139.306 19.0018Z" fill="#F4A175"/>
<path fill-rule="evenodd" clip-rule="evenodd" d="M146 27.2654L144.002 26C144.002 26 143.891 28.4396 145.211 29L145.191 28.1817C145.182 27.7708 145.367 27.2817 146 27.2654Z" fill="#141518"/>
<path fill-rule="evenodd" clip-rule="evenodd" d="M144.041 26.4608C144.069 26.4718 144.098 26.4818 144.127 26.4898L144.802 27L144.797 26.6199L145.865 25.774L146 19.4839L142.509 18.4789L140.629 17L136.714 17.7347C136.714 17.7347 134.635 19.4256 134.444 19.7817C134.377 19.9074 134.191 20.5453 133.979 21.3159L133 22.6432L133.355 23.6617C133.217 24.1919 133.123 24.5595 133.123 24.5595L133.921 25.2812C133.921 25.2812 138.468 24.6473 139.49 24.3415C140.513 24.0353 141.539 22.9749 141.765 21.8147C141.765 21.8147 141.853 25.6947 144.041 26.4608Z" fill="#161A2A"/>
<path fill-rule="evenodd" clip-rule="evenodd" d="M144.101 26.5073C144.129 26.5173 144.158 26.5264 144.188 26.5337L144.866 27L144.861 26.6527L145.935 25.8797L146 23.134C145.222 23.3901 143.494 23.1732 141.643 21C141.643 21 139.36 25.8159 133.012 23.0032L133 23.0187L133.357 23.9494C133.218 24.4339 133.124 24.7698 133.124 24.7698L133.926 25.4294C133.926 25.4294 138.497 24.85 139.525 24.5706C140.554 24.2908 141.585 23.3218 141.813 22.2616C141.813 22.2616 141.901 25.8072 144.101 26.5073Z" fill="#141518"/>
<path fill-rule="evenodd" clip-rule="evenodd" d="M145 15.414C142.94 20.6459 136.995 24.0918 133 20.5609C133.082 20.218 133.168 19.8856 133.259 19.5655C133.444 18.9029 133.766 18.3008 134.179 17.7684C137.744 20.6612 143.238 19.4873 143.991 15C144.306 15.0748 144.643 15.2072 145 15.414Z" fill="#262A42"/>
<path fill-rule="evenodd" clip-rule="evenodd" d="M135.575 43.9697C135.522 48.09 133.651 56.5 133.61 56.9694C133.571 57.4383 133.61 58.0247 134.213 58.3766C134.816 58.7281 147.779 55.2665 148.382 55.1102C148.984 54.9538 148.748 55.7158 148.908 57.2011C148.908 57.2011 151.429 56.8037 148.809 57.7911C146.189 58.7781 135.679 62.5586 134.194 62.9105C132.707 63.2629 129.213 62.676 129.013 59.3145C128.812 55.9529 131.022 43.7089 131.242 42.6879C132.214 38.1781 135.626 39.8493 135.575 43.9697Z" fill="#F4A175"/>
<path fill-rule="evenodd" clip-rule="evenodd" d="M148.892 57.051C146.714 57.9201 136.943 61.4524 134.682 62.0567C133.143 62.468 131.276 62.225 130 61.6744C131.191 62.9472 133.186 63.1549 134.216 62.9106C135.699 62.5587 146.194 58.778 148.811 57.791C151.427 56.8035 148.91 57.201 148.91 57.201C148.905 57.1497 148.899 57.0996 148.892 57.051ZM135.595 43.969C135.543 48.0896 133.674 56.4998 133.633 56.9692C133.594 57.4382 133.633 58.0246 134.235 58.3765C134.313 58.4225 134.589 58.4069 135.006 58.3457L135.004 58.3462C132.897 59.0719 132.829 57.2055 132.904 56.5083C132.979 55.8112 134.372 47.1177 134.56 43.559C134.745 40.0584 132.642 40.2331 132.574 40.2398C133.915 39.3448 135.631 41.0361 135.595 43.969Z" fill="#EF7164"/>
<path fill-rule="evenodd" clip-rule="evenodd" d="M152.581 57.1404C152.489 57.5707 152.305 57.6247 151.696 57.6155C151.317 57.6099 150.693 57.5936 150.192 57.5911L149.638 58C149.496 57.8803 149.158 57.644 149.082 57.5269C149.022 57.4327 148.959 57.4561 149.035 57.1893C149.111 56.9229 150.775 49.6147 150.836 49.4711C150.898 49.328 151.083 48.9517 151.691 49.0052C152.27 49.0566 152.595 49.0097 154.197 49.0209C154.314 49.022 154.47 49.0291 154.571 49.1121L155 49.4645C153.666 52.2353 153.252 54.0202 152.581 57.1404Z" fill="#131214"/>
<path fill-rule="evenodd" clip-rule="evenodd" d="M155 51.2888C155 51.4594 153.448 57.2805 153.367 57.6222C153.285 57.9642 153.121 58.0062 152.585 57.9993C152.047 57.9921 150.955 57.9638 150.642 57.9921C150.329 58.0208 149.914 57.8215 150.016 57.5013C150.118 57.1811 151.553 51.4877 151.607 51.3741C151.662 51.2601 151.825 50.9613 152.363 51.0042C152.875 51.0446 153.162 51.0078 154.578 51.0167C154.745 51.0175 155 51.0321 155 51.2888Z" fill="#141518"/>
<path fill-rule="evenodd" clip-rule="evenodd" d="M150 56.9012C150.203 56.2677 151.598 51.4428 151.653 51.3428C151.71 51.2383 151.882 50.9646 152.446 51.0038C152.984 51.0409 153.285 51.0072 154.772 51.0153C154.841 51.0153 154.925 51.0179 155 51.0349C154.741 52.0007 153.407 56.3715 153.329 56.6538C153.244 56.9672 153.072 57.0057 152.507 56.9994C151.943 56.9927 150.797 56.9668 150.467 56.9927C150.313 57.0053 150.135 56.9712 150 56.9012Z" fill="#161A2A"/>
<path fill-rule="evenodd" clip-rule="evenodd" d="M153.273 52C153.805 52 154.112 52.2236 153.962 52.4998C153.809 52.776 153.258 53 152.727 53C152.195 53 151.888 52.776 152.038 52.4998C152.19 52.2236 152.743 52 153.273 52Z" fill="#262A43"/>
<path fill-rule="evenodd" clip-rule="evenodd" d="M138.034 37.1817C137.992 37.143 137.988 37.077 138.027 37.0346C138.065 36.9917 138.13 36.9883 138.172 37.0266C138.179 37.0337 140.727 39.3802 142.555 40.7916L142.803 40.9841C143.363 41.4208 143.8 41.7608 144.106 41.7898C144.433 41.8209 144.637 41.4422 144.742 40.32C144.829 39.3752 144.79 38.2433 144.753 37.6591C144.745 37.5364 144.736 37.4397 144.73 37.375C144.728 37.3573 144.73 37.341 144.736 37.3262C144.722 37.3082 144.713 37.2846 144.713 37.2594C144.713 37.2023 144.759 37.1552 144.816 37.1552C144.88 37.156 144.922 37.2262 144.935 37.3536C144.942 37.4246 144.95 37.5246 144.958 37.6461C144.996 38.2353 145.035 39.379 144.946 40.3389C144.827 41.6145 144.55 42.0407 144.087 41.997C143.722 41.9621 143.265 41.6061 142.678 41.1488L142.431 40.9572C140.593 39.5383 138.042 37.1884 138.034 37.1817Z" fill="#141518"/>
<path fill-rule="evenodd" clip-rule="evenodd" d="M144.5 43C144.775 43 145 42.7751 145 42.4998C145 42.2245 144.775 42 144.5 42C144.225 42 144 42.2245 144 42.4998C144 42.7751 144.225 43 144.5 43Z" fill="#141518"/>
<path fill-rule="evenodd" clip-rule="evenodd" d="M147 54.9898C147.876 54.6703 148.263 54.202 148.759 53.745C149.371 53.1813 149.455 52.9576 149.93 52.2218C150.189 51.8198 150.523 52.0141 150.605 52.4082C150.692 52.8262 150.519 53.4657 150.414 53.732C150.414 53.732 150.107 54.1695 150.454 54.2484C150.603 54.2818 150.885 54.2861 151 54.2623L150.954 56.6085C150.376 56.6093 150.475 56.3895 149.909 56.5074C149.452 56.602 149.112 56.719 148.755 57L147 54.9898Z" fill="#F4A175"/>
<path fill-rule="evenodd" clip-rule="evenodd" d="M147.176 56.5959C147.682 56.5558 148.536 57.0334 149.081 56.9981C152.19 56.7951 153.412 55.6817 153.576 55.3418C153.784 54.9129 153.415 54.9584 153.415 54.9584C153.415 54.9584 154.088 54.2922 153.99 54.0441C153.893 53.7961 153.644 53.8503 153.67 53.742C153.696 53.6332 154.013 53.2189 153.999 52.9883C153.983 52.7577 153.425 52.9022 153.425 52.9022C153.425 52.9022 153.737 51.8115 153.057 52.0286C152.377 52.2457 150.948 53.333 150.084 53.2189C149.22 53.1048 149.592 53.231 149.592 53.231C149.592 53.231 146.2 55.8567 147.176 56.5959Z" fill="#F4A175"/>
<path d="M125.188 14.7615L44 14.7615L44 125.473L125.188 125.473L125.188 14.7615Z" fill="url(#paint0_linear)"/>
<path opacity="0.15" d="M114.188 151.5C114.188 153.434 100.742 155 84.1591 155C67.5763 155 54.1885 153.434 54.1885 151.5C54.1885 149.566 67.6351 148 84.2179 148C100.801 148 114.188 149.566 114.188 151.5Z" fill="#020202"/>
<path d="M113.601 6.48977e-07L55.5873 1.08043e-07C49.1878 4.83726e-08 44 4.32511 44 9.6604L44 14.7615L125.188 14.7615L125.188 9.66036C125.188 4.32508 120.001 7.08647e-07 113.601 6.48977e-07Z" fill="#9151AE"/>
<path d="M101.201 9.22603C102.22 9.22603 103.046 8.39991 103.046 7.38084C103.046 6.36176 102.22 5.53564 101.201 5.53564C100.182 5.53564 99.3555 6.36176 99.3555 7.38084C99.3555 8.39991 100.182 9.22603 101.201 9.22603Z" fill="white"/>
<path d="M75.3691 7.38086L92.863 7.38086" stroke="white" stroke-width="1.7" stroke-miterlimit="10" stroke-linecap="round" stroke-linejoin="round"/>
<path d="M108.49 19L121.976 31.1338" stroke="#9151AE" stroke-width="0.7" stroke-miterlimit="10" stroke-linecap="round" stroke-linejoin="round"/>
<path d="M106 25.0679L114.404 32.6293" stroke="#9151AE" stroke-width="0.7" stroke-miterlimit="10" stroke-linecap="round" stroke-linejoin="round"/>
<g opacity="0.21">
<path d="M77.5498 103.964C76.413 103.444 75.6927 103.591 75.6927 103.591C75.1625 102.638 73.9178 102.359 72.9682 102.98L72.2956 103.419C71.417 103.993 71.1128 105.133 71.6022 106.014L71.6304 106.065C71.6304 106.065 72.2702 108.917 74.3708 111.693C77.0841 115.28 80.0817 115.62 81.1713 114.649C82.2012 113.731 79.2286 109.334 78.1452 107.686L80.114 108.565C80.3641 108.677 80.6647 108.61 80.8566 108.401C81.0625 108.177 81.0901 107.846 80.9223 107.606L79.5914 105.708C79.0701 104.964 78.3803 104.344 77.5498 103.964Z" fill="#AD5849"/>
<path d="M106.241 120.776L74.2412 120.776L75.2885 104.776L104.845 104.776L106.241 120.776Z" fill="#1F1E30"/>
<path d="M74.2116 117.155L73.2447 134.852C73.1295 136.451 75.8847 137.776 79.3243 137.776C82.4384 137.776 85.0496 136.682 85.3745 135.242L89.1993 117.637C89.6652 115.573 86.1854 113.776 81.7239 113.776C77.6706 113.776 74.3473 115.271 74.2116 117.155Z" fill="#1F1E30"/>
<path d="M106.271 117.155L107.238 134.852C107.353 136.451 104.597 137.776 101.157 137.776C98.0439 137.776 95.4327 136.682 95.1079 135.242L91.283 117.637C90.8175 115.573 94.2966 113.776 98.7584 113.776C102.811 113.776 106.135 115.271 106.271 117.155Z" fill="#1F1E30"/>
<path d="M76.234 105.39L69.1339 88.8037C68.5171 87.3353 66.3824 87.7711 64.6007 89.729C62.991 91.4974 62.3083 93.8203 63.0682 94.9412L72.7362 109.039L76.234 105.39Z" fill="#AD5849"/>
<path d="M68.5479 66.703C67.3039 72.6191 64.3326 86.3185 63.0205 92.3571C62.659 94.0217 64.0444 95.5789 66.202 95.933C68.4894 96.3081 70.7998 95.1986 71.3579 93.4567L79.5566 67.8667C80.1223 65.4626 77.9042 63.2545 74.7106 63.0427C71.7382 62.8456 69.0199 64.4596 68.5479 66.703Z" fill="#AD5849"/>
<path d="M82.2412 69.2375C82.2412 65.1171 78.8968 61.7761 74.7713 61.7761C71.1111 61.7761 68.0714 64.4077 67.431 67.8783L67.4253 67.8769L64.2412 82.4212L78.7348 85.7761L81.9024 71.4653C82.1223 70.7615 82.2412 70.0135 82.2412 69.2375Z" fill="#7BB3D1"/>
<path d="M109.329 114.989C109.913 113.818 110.573 113.472 110.573 113.472C110.412 112.336 111.228 111.295 112.36 111.192L113.16 111.119C114.208 111.024 115.144 111.772 115.294 112.822L115.303 112.882C115.303 112.882 116.536 115.664 116.567 119.334C116.605 124.076 114.438 126.308 112.981 126.21C111.605 126.119 111.277 120.536 111.13 118.465L110.106 120.475C109.976 120.73 109.697 120.87 109.417 120.822C109.117 120.769 108.893 120.513 108.88 120.205L108.776 117.764C108.735 116.808 108.903 115.844 109.329 114.989Z" fill="#AD5849"/>
<path d="M110.844 112.853L107.126 95.69C106.787 94.177 108.752 93.3479 111.299 93.9292C113.6 94.4539 115.469 95.9326 115.495 97.2469L115.733 113.838L110.844 112.853Z" fill="#AD5849"/>
<path d="M110.919 68.3892C111.89 74.7251 114.229 89.3989 115.261 95.867C115.546 97.65 114.147 99.2743 112.049 99.5972C109.825 99.939 107.636 98.6981 107.165 96.8277L100.239 69.3506C99.7857 66.7744 102.014 64.4775 105.108 64.3327C107.986 64.1979 110.55 65.9866 110.919 68.3892Z" fill="#AD5849"/>
<path d="M97.2412 69.2375C97.2412 65.1171 100.586 61.7761 104.711 61.7761C108.372 61.7761 111.411 64.4077 112.051 67.8783L112.058 67.8769L115.241 82.4212L100.748 85.7761L97.5806 71.4653C97.3605 70.7615 97.2412 70.0135 97.2412 69.2375Z" fill="#7BB3D1"/>
<path d="M95.7007 56.7761L90.1679 56.8565L84.7813 56.7761L73.2412 61.765L75.4432 104.776L90.1679 104.776L105.039 104.776L107.241 61.765L95.7007 56.7761Z" fill="#7BB3D1"/>
<path d="M99.2412 58.5602L95.4922 56.7761L90.1566 56.861L84.99 56.7761L81.2412 58.5602C81.2412 58.5602 81.5422 63.7255 90.153 63.7746L90.153 63.7761L90.2926 63.7761L90.2926 63.7746C98.9039 63.7255 99.2412 58.5602 99.2412 58.5602Z" fill="#AD5849"/>
<path d="M90.2409 62.7761C86.9277 62.7761 84.2412 60.0567 84.2412 56.7027L84.2412 43.7761L96.2412 43.7761L96.2412 56.7027C96.2412 60.0567 93.5548 62.7761 90.2409 62.7761Z" fill="#AD5849"/>
<path d="M80.989 39.6772L80.3678 33.153C79.5681 28.9814 82.7111 26.7761 85.4595 26.7761L94.9795 26.7761C97.8946 26.7761 101.367 28.965 99.889 33.6664L99.0391 40.7761L80.989 39.6772Z" fill="#AEAE8B"/>
<path d="M97.1613 42.8038C99.0401 44.1793 102.29 37.9237 100.459 36.4424C98.6282 34.9604 97.4178 37.6768 97.4178 37.6768L97.3723 39.9768L97.1037 42.1312L97 42.7946L97.1613 42.8038Z" fill="#AD5849"/>
<path d="M99.8581 38.0547C99.843 38.0496 99.6745 38.0002 99.4107 38.0002C98.8267 37.9922 97.7782 38.2722 97.0206 39.729C96.9709 39.8228 97.0144 39.9362 97.1171 39.9813C97.2201 40.0264 97.344 39.9872 97.3937 39.8926C98.1134 38.5442 98.957 38.3864 99.4107 38.3791C99.514 38.3791 99.5966 38.3886 99.6523 38.398L99.7134 38.4104L99.7269 38.414C99.8358 38.4467 99.9534 38.3936 99.9891 38.294C100.026 38.1951 99.9669 38.0882 99.8581 38.0547Z" fill="#5C4C4F"/>
<path d="M98.0815 39.2975L98.1048 39.3115C98.163 39.3467 98.3179 39.45 98.451 39.6C98.5856 39.7512 98.693 39.9414 98.6924 40.1564C98.6918 40.3191 98.6344 40.5111 98.4507 40.7413C98.3967 40.8093 98.4061 40.9089 98.472 40.9642C98.5376 41.0194 98.6344 41.0097 98.6889 40.9423C98.9071 40.6708 99.0006 40.4017 99 40.1564C98.9988 39.7828 98.7947 39.4992 98.6074 39.3115C98.4177 39.1232 98.2345 39.023 98.2268 39.0188C98.1517 38.9775 98.0584 39.0066 98.0182 39.0837C97.9782 39.1603 98.0064 39.2562 98.0815 39.2975Z" fill="#6C494F"/>
<path d="M83.0802 42.5798C81.2017 43.956 77.9515 37.6974 79.7821 36.2154C81.6131 34.7327 82.7625 37.4788 82.7625 37.4788L82.8692 39.7514L83.1378 41.907L83.2412 42.5706L83.0802 42.5798Z" fill="#AD5849"/>
<path d="M80.5137 38.1901L80.5143 38.1901C80.5311 38.185 80.65 38.1545 80.8307 38.1552C81.2839 38.1625 82.1279 38.3203 82.8479 39.6687C82.8975 39.7633 83.021 39.8025 83.1241 39.7574C83.2268 39.7124 83.2703 39.5989 83.2207 39.5051C82.4632 38.0483 81.4142 37.7683 80.8307 37.7763C80.5665 37.7763 80.3982 37.8257 80.3827 37.8308C80.2744 37.8636 80.2156 37.9712 80.252 38.0701C80.288 38.1698 80.4053 38.2228 80.5137 38.1901Z" fill="#605355"/>
<path d="M82.0146 38.7949C82.007 38.7991 81.8237 38.8994 81.6341 39.0876C81.4465 39.2753 81.2426 39.5596 81.2412 39.9325C81.2408 40.1779 81.3343 40.4469 81.5525 40.7184C81.6066 40.7858 81.7036 40.7956 81.7694 40.7403C81.8349 40.685 81.8445 40.5854 81.7904 40.5174C81.607 40.2872 81.5498 40.0959 81.549 39.9325C81.5479 39.6877 81.6899 39.4727 81.8484 39.3148C81.9266 39.2371 82.0063 39.1757 82.0657 39.1338L82.1363 39.0876L82.1599 39.0737C82.2347 39.0324 82.2632 38.9364 82.2229 38.8599C82.1827 38.7827 82.0897 38.7536 82.0146 38.7949Z" fill="#695155"/>
<path d="M98.235 35.3177C98.235 39.1716 97.7332 42.4971 97.2319 44.8573C96.7415 47.1681 95.3606 49.1854 93.4099 50.4851L93.0542 50.7222C90.99 52.0973 88.3228 52.1291 86.2267 50.804C84.1129 49.4676 82.6324 47.3021 82.177 44.8227C81.3487 40.3126 81.2582 35.3177 81.2582 35.3177C81.2582 35.3177 80.4699 25.5897 89.6254 25.7788C98.7811 25.9679 98.235 35.3177 98.235 35.3177Z" fill="black"/>
<path d="M99.2346 34.9507C99.2346 38.6564 98.7033 41.854 98.1726 44.1234C97.6533 46.3453 96.1912 48.285 94.1257 49.5347L93.7491 49.7627C91.5635 51.085 88.7394 51.1155 86.52 49.8414C84.2818 48.5564 82.7142 46.4742 82.2321 44.0901C81.3551 39.7535 81.2592 34.9507 81.2592 34.9507C81.2592 34.9507 80.4245 25.5969 90.1186 25.7787C99.8128 25.9606 99.2346 34.9507 99.2346 34.9507Z" fill="#AD5849"/>
<path d="M95.5 24.6684C92.4618 22.5558 90.1788 23.1945 86.9071 24.6684C86.9756 23.7076 86 25 86 25C80.2454 26.5201 82.13 29.7892 82.13 29.7892L82.1855 29.8162C81.5839 31.0985 80.8035 33.8306 81.5416 38.7761C81.5416 38.7761 83.0669 33.4247 83.109 30.2327C85.6618 31.339 92.6592 34.0293 97.2227 32.5242C97.6737 35.2499 98.8702 38.7761 98.8702 38.7761C99.3483 35.5714 99.1477 33.2856 98.8237 31.7379C99.104 31.5434 99.3717 31.3298 99.6142 31.08C99.6142 31.08 100.305 27.661 96 24.6684" fill="#AEAE8B"/>
<path d="M88.2115 35.5575L88.2412 33.7761L85.3724 33.835C85.01 33.8429 84.661 33.9931 84.3832 34.261L83.2412 35.7761L85.1419 35.4502L88.2115 35.5575Z" fill="#1E1C20"/>
<path d="M92.2709 35.5575L92.2412 33.7761L95.1103 33.835C95.4724 33.8429 95.8215 33.9931 96.0992 34.261L97.2412 35.7761L95.3405 35.4502L92.2709 35.5575Z" fill="#1E1C20"/>
<path d="M97.2412 35.7761L95.1161 35.4902L92.2412 35.569C92.905 35.0739 93.7566 34.7761 94.6847 34.7761C95.4998 34.7761 96.2555 35.0055 96.8771 35.3968L97.2412 35.7761Z" fill="#3F3E47"/>
<path d="M83.2412 35.7761C83.9155 35.1571 84.8324 34.7761 85.8427 34.7761C86.7548 34.7761 87.5911 35.0867 88.2412 35.6036L85.1024 35.5123L83.2412 35.7761Z" fill="#3F3E47"/>
</g>
<path d="M8.59323 118.438C8.22074 117.245 7.63049 116.807 7.63049 116.807C7.9854 115.776 7.36199 114.663 6.26561 114.371L5.48914 114.164C4.47538 113.893 3.4239 114.428 3.09465 115.381L3.0758 115.436C3.0758 115.436 1.38088 117.817 0.717563 121.235C-0.139728 125.65 1.60954 128.108 3.0604 128.27C4.43123 128.424 5.71842 123.274 6.2206 121.368L6.88178 123.42C6.96562 123.681 7.21609 123.86 7.49952 123.863C7.8044 123.866 8.06911 123.666 8.13512 123.381L8.65907 121.122C8.8644 120.238 8.86544 119.31 8.59323 118.438Z" fill="#DC9082"/>
<path d="M74.3728 112.46L43.9951 122.52L39.9595 107.001L68.0178 97.71L74.3728 112.46Z" fill="#1F1E30"/>
<path d="M42.8295 119.092L47.4747 136.195C47.8679 137.749 50.9001 138.141 54.1653 137.06C57.1216 136.081 59.2565 134.221 59.1121 132.752L57.2089 114.837C57.0024 112.732 53.134 112.119 48.8986 113.522C45.0508 114.796 42.3659 117.26 42.8295 119.092Z" fill="#1F1E30"/>
<path d="M73.2627 109.014L79.7439 125.509C80.3555 126.99 78.1566 129.115 74.8909 130.196C71.9353 131.175 69.1127 130.957 68.3515 129.692L59.1864 114.182C58.0957 112.37 60.8334 109.57 65.069 108.167C68.9165 106.893 72.5418 107.267 73.2627 109.014Z" fill="#1F1E30"/>
<path d="M8.01197 116.737L17.8176 101.592C18.6923 100.261 17.1397 98.732 14.5209 98.3455C12.1553 97.9959 9.8465 98.725 9.34014 99.981L3.03251 115.869L8.01197 116.737Z" fill="#DC9082"/>
<path d="M20.7214 76.1211C18.0919 81.5648 11.9152 94.1485 9.19029 99.6947C8.4393 101.224 9.4098 103.068 11.4191 103.931C13.5492 104.844 16.0586 104.323 17.019 102.766L31.1277 79.8965C32.2547 77.6989 30.6323 75.0224 27.5832 74.0492C24.7452 73.1435 21.7187 74.0569 20.7214 76.1211Z" fill="#DC9082"/>
<path d="M35.6048 74.5163C36.6497 70.5306 34.2619 66.4507 30.2713 65.4045C26.7307 64.4762 23.1231 66.2509 21.6234 69.4457L21.6182 69.4429L14.8498 82.7042L28.0188 89.625L34.712 76.5853C35.1032 75.9603 35.408 75.2669 35.6048 74.5163Z" fill="#7BB3D1"/>
<path d="M75.4843 105.996C75.6706 104.701 76.1887 104.164 76.1887 104.164C75.6787 103.136 76.1258 101.891 77.1677 101.438L77.9051 101.117C78.869 100.698 79.993 101.113 80.466 102.062L80.4933 102.117C80.4933 102.117 82.5385 104.371 83.7213 107.845C85.2483 112.334 83.8921 115.134 82.4782 115.5C81.1435 115.845 79.077 110.649 78.2864 108.729L77.9461 110.959C77.9031 111.242 77.6821 111.463 77.4016 111.505C77.0997 111.549 76.8069 111.376 76.6975 111.088L75.8315 108.804C75.4918 107.909 75.3484 106.941 75.4843 105.996Z" fill="#DC9082"/>
<path d="M76.251 103.492L67.3261 88.3674C66.5285 87.0377 68.1337 85.6328 70.7342 85.384C73.0831 85.1588 75.3231 85.9748 75.7608 87.2143L81.2018 102.89L76.251 103.492Z" fill="#DC9082"/>
<path d="M62.3456 61.2584C65.2599 66.9676 72.0927 80.1624 75.1061 85.9779C75.9365 87.5812 75.1193 89.5629 73.2297 90.5287C71.2254 91.5525 68.7572 91.0627 67.7221 89.4352L52.5093 65.5284C51.2696 63.2251 52.6629 60.3442 55.5543 59.2342C58.2446 58.2012 61.2403 59.0935 62.3456 61.2584Z" fill="#DC9082"/>
<path d="M49.6271 66.3633C48.3318 62.4518 50.4565 58.2288 54.3727 56.932C57.8478 55.7812 61.5606 57.3238 63.2592 60.4173L63.2648 60.414L70.859 73.2201L58.155 80.9611L50.6496 68.3715C50.2194 67.7726 49.871 67.1 49.6271 66.3633Z" fill="#7BB3D1"/>
<path d="M44.2472 55.0181L39.0202 56.8336L33.8815 58.4507L24.4947 66.8144L40.106 106.953L54.0842 102.324L68.2013 97.6491L56.771 56.1262L44.2472 55.0181Z" fill="#7BB3D1"/>
<path d="M48.1695 55.5985L44.0497 55.0834L39.0113 56.8413L34.0799 58.3849L31.082 61.257C31.082 61.257 32.9915 66.0658 41.1812 63.4056L41.1817 63.407L41.3142 63.3631L41.3137 63.3617C49.4731 60.608 48.1695 55.5985 48.1695 55.5985Z" fill="#DC9082"/>
<path d="M40.9514 62.4301C37.8061 63.4716 34.401 61.7346 33.3466 58.5506L29.283 46.2794L40.6747 42.5071L44.7383 54.7783C45.7926 57.9623 44.0973 61.3883 40.9514 62.4301Z" fill="#DC9082"/>
<path d="M24.9064 43.4107L22.2658 37.4125C20.1952 33.7038 22.4856 30.6223 25.0947 29.7583L34.132 26.7656C36.8994 25.8492 40.8843 26.8354 40.9587 31.7632L42.3869 38.7797L24.9064 43.4107Z" fill="#1E1C20"/>
<path d="M42.3492 40.692C44.5653 41.4072 45.6836 34.4471 43.4799 33.6165C41.2762 32.7851 40.9811 35.7443 40.9811 35.7443L41.6608 37.942L42.0831 40.0717L42.1932 40.7339L42.3492 40.692Z" fill="#DC9082"/>
<path d="M43.4171 35.3359C43.4011 35.3358 43.2257 35.3418 42.9753 35.4248C42.4184 35.6008 41.511 36.1962 41.2497 37.8173C41.2321 37.922 41.309 38.016 41.4207 38.0265C41.5327 38.0369 41.638 37.9607 41.6554 37.8554C41.9147 36.349 42.666 35.934 43.0944 35.7845C43.1924 35.752 43.2739 35.735 43.3296 35.7265L43.3916 35.719L43.4056 35.7182C43.5192 35.7151 43.6141 35.6277 43.6167 35.5219C43.6203 35.4165 43.5309 35.3335 43.4171 35.3359Z" fill="#5C4C4F"/>
<path d="M42.1213 37.0743L42.1478 37.0802C42.2141 37.0954 42.3936 37.1447 42.5671 37.2453C42.7425 37.3465 42.9042 37.4932 42.9712 37.6975C43.0218 37.8522 43.0277 38.0525 42.9256 38.3288C42.8957 38.4103 42.936 38.5019 43.0159 38.5337C43.0956 38.5655 43.1844 38.5258 43.2149 38.4447C43.3368 38.1184 43.3409 37.8336 43.2632 37.6008C43.1447 37.2466 42.8618 37.0415 42.6249 36.9222C42.3856 36.8031 42.1802 36.7656 42.1716 36.764C42.0873 36.7484 42.0079 36.8054 41.9939 36.8913C41.98 36.9765 42.037 37.0587 42.1213 37.0743Z" fill="#6C494F"/>
<path d="M26.8551 45.8231C25.5045 47.7201 20.4516 42.8005 21.7235 40.8181C22.9956 38.835 24.9499 41.0806 24.9499 41.0806L25.7657 43.2045L26.6983 45.1663L27.0051 45.7638L26.8551 45.8231Z" fill="#DC9082"/>
<path d="M23.0384 42.4627L23.039 42.4625C23.0533 42.4524 23.1566 42.386 23.3283 42.3299C23.7609 42.1943 24.6117 42.0788 25.7191 43.1326C25.7959 43.2067 25.9255 43.2052 26.0092 43.13C26.0926 43.0549 26.0982 42.9335 26.0215 42.86C24.8445 41.7152 23.7607 41.7792 23.2092 41.9702C22.9585 42.0532 22.8142 42.1531 22.8011 42.1628C22.7086 42.2279 22.6867 42.3486 22.7522 42.4311C22.8178 42.5143 22.9458 42.5278 23.0384 42.4627Z" fill="#605355"/>
<path d="M24.6534 42.565C24.6475 42.5715 24.5049 42.7242 24.3841 42.9626C24.2651 43.1997 24.1609 43.5336 24.2768 43.8881C24.3535 44.1212 24.5269 44.3472 24.8194 44.5363C24.8919 44.5833 24.987 44.5621 25.0321 44.4889C25.077 44.4158 25.0547 44.3183 24.982 44.2707C24.7356 44.1098 24.6211 43.9462 24.569 43.7913C24.491 43.5593 24.5582 43.3106 24.659 43.1109C24.7089 43.0125 24.7652 42.9292 24.8084 42.8707L24.8609 42.8047L24.8789 42.784C24.937 42.7213 24.9338 42.6213 24.8716 42.5612C24.8092 42.5007 24.7117 42.5022 24.6534 42.565Z" fill="#695155"/>
<path d="M39.9076 33.8507C41.1192 37.5092 41.6882 40.8239 41.9543 43.222C42.2151 45.5698 41.5384 47.9189 40.0951 49.7659L39.832 50.1028C38.3048 52.0572 35.7828 52.9258 33.3764 52.3268C30.9496 51.7227 28.8634 50.1324 27.6517 47.9218C25.4476 43.9007 23.7915 39.1875 23.7915 39.1875C23.7915 39.1875 19.9851 30.2005 28.7358 27.5019C37.4868 24.8033 39.9076 33.8507 39.9076 33.8507Z" fill="black"/>
<path d="M40.7411 33.1881C41.9061 36.706 42.4068 39.9085 42.6164 42.2297C42.8219 44.5022 42.0437 46.8032 40.4758 48.6388L40.1899 48.9737C38.5309 50.916 35.8595 51.8327 33.3521 51.3209C30.8234 50.8046 28.6807 49.3208 27.4736 47.2092C25.2778 43.368 23.677 38.8389 23.677 38.8389C23.677 38.8389 19.9442 30.2217 29.2039 27.3469C38.4639 24.472 40.7411 33.1881 40.7411 33.1881Z" fill="#DC9082"/>
<path d="M37.232 22.6355C33.6836 21.5851 28.4495 24.8747 25.807 27.3024C25.57 26.3688 25.0322 26.6575 25.0322 26.6575C20.0471 29.9095 22.8819 33.6653 22.8819 33.6653L22.9431 33.6735C22.7751 35.0799 22.8931 37.9189 25.1485 42.3816C25.1485 42.3816 24.9142 36.822 23.9506 33.7786C26.7219 34.0264 34.2102 34.3805 38.0692 31.5171C39.3542 33.9629 41.5985 36.9342 41.5985 36.9342C41.045 33.7416 40.136 31.6348 39.3418 30.2674C39.5469 29.9947 39.7338 29.7078 39.8855 29.3944C39.8855 29.3944 42.2596 24.123 37.232 22.6355Z" fill="#1E1C20"/>
<path d="M30.468 37.2293L29.9362 35.5289L27.2313 36.4866C26.8898 36.608 26.6056 36.8604 26.4262 37.202L25.8184 38.9993L27.5202 38.0924L30.468 37.2293Z" fill="#1E1C20"/>
<path d="M34.3208 35.9533L33.7326 34.2716L36.4747 33.4255C36.8209 33.3192 37.1996 33.3521 37.5474 33.5191L39.1078 34.5984L37.2011 34.8865L34.3208 35.9533Z" fill="#1E1C20"/>
<path d="M39.1078 34.5984L37.0005 34.995L34.2962 35.9735C34.7707 35.2948 35.4855 34.7445 36.3666 34.4527C37.1404 34.1965 37.9299 34.1767 38.6429 34.3527L39.1078 34.5984Z" fill="#3F3E47"/>
<path d="M25.8184 38.9993C26.2639 38.1997 27.0145 37.5498 27.9736 37.2322C28.8395 36.9454 29.731 36.9774 30.5106 37.2637L27.5022 38.1637L25.8184 38.9993Z" fill="#3F3E47"/>
<path d="M115.981 143.925L53.2079 143.925C48.1225 143.925 44 138.306 44 131.375L44 125.473L125.188 125.473L125.188 131.375C125.188 138.306 121.066 143.925 115.981 143.925Z" fill="#9151AE"/>
<path d="M84.5942 140.235C87.6514 140.235 90.1297 137.756 90.1297 134.699C90.1297 131.642 87.6514 129.164 84.5942 129.164C81.537 129.164 79.0586 131.642 79.0586 134.699C79.0586 137.756 81.537 140.235 84.5942 140.235Z" fill="white"/>
<g filter="url(#filter0_d)">
<circle cx="48.2843" cy="78.2843" r="20" transform="rotate(-45 48.2843 78.2843)" fill="#00E291"/>
</g>
<path d="M47.983 66.0033C47.973 66.0033 47.969 66.0033 47.965 66.0033C47.957 66.0033 47.957 66.0033 47.955 66.0033C47.955 66.0033 47.955 66.0033 47.952 66.0033C47.949 66.0033 47.945 66.0033 47.941 66.0033C47.939 66.0033 47.939 66.0033 47.939 66.0033C47.939 66.0033 47.939 66.0033 47.935 66.0033C47.908 65.9973 47.9 66.0013 47.88 66.0013C44.677 66.0013 41.561 67.2713 39.258 69.5043L36.726 66.9333C36.603 66.8133 36.417 66.7753 36.265 66.8393C36.106 66.9073 36 67.0593 36 67.2333V75.5813C36 75.8163 36.191 76.0063 36.423 76.0063H44.669C44.674 76.0063 44.683 76.0063 44.689 76.0063C44.923 76.0063 45.113 75.8173 45.113 75.5813C45.113 75.4253 45.028 75.2873 44.901 75.2143L42.4 72.6833C43.883 71.2513 45.818 70.4673 47.94 70.4673C52.27 70.4953 55.797 74.0403 55.797 78.4423C55.764 82.7683 52.217 86.2893 47.817 86.2893L47.827 90.7573H47.888C54.667 90.7573 60.221 85.2393 60.265 78.3813C60.265 71.6063 54.761 66.0603 47.983 66.0033Z" fill="white"/>
<defs>
<filter id="filter0_d" x="12" y="42" width="72.5685" height="72.5685" filterUnits="userSpaceOnUse" color-interpolation-filters="sRGB">
<feFlood flood-opacity="0" result="BackgroundImageFix"/>
<feColorMatrix in="SourceAlpha" type="matrix" values="0 0 0 0 0 0 0 0 0 0 0 0 0 0 0 0 0 0 127 0"/>
<feOffset/>
<feGaussianBlur stdDeviation="4"/>
<feColorMatrix type="matrix" values="0 0 0 0 0 0 0 0 0 0 0 0 0 0 0 0 0 0 0.25 0"/>
<feBlend mode="normal" in2="BackgroundImageFix" result="effect1_dropShadow"/>
<feBlend mode="normal" in="SourceGraphic" in2="effect1_dropShadow" result="shape"/>
</filter>
<linearGradient id="paint0_linear" x1="84.5942" y1="14.7615" x2="84.5942" y2="125.473" gradientUnits="userSpaceOnUse">
<stop stop-color="#CFCFCF"/>
<stop offset="1" stop-color="#E1E0E0" stop-opacity="0.52"/>
</linearGradient>
</defs>
</svg>
