<svg width="214" height="166" viewBox="0 0 214 166" fill="none" xmlns="http://www.w3.org/2000/svg">
<path opacity="0.15" d="M178.537 160.615C178.235 162.525 164.708 161.968 148.33 159.374C131.951 156.78 118.973 153.139 119.276 151.229C119.578 149.319 133.104 149.875 149.483 152.469C165.862 155.063 178.84 158.705 178.537 160.615Z" fill="#020202"/>
<path fill-rule="evenodd" clip-rule="evenodd" d="M161.473 43.5821L159.664 43.6734C159.664 43.6734 160.509 46.6326 158.638 50.7697C156.769 54.9076 155.829 56.8447 157.712 58.2906C157.712 58.2906 153.185 65.8667 162.594 68.1399C172.002 70.4117 179.856 65.3058 176.657 52.9263C173.459 40.5468 161.473 43.5821 161.473 43.5821Z" fill="#3A3A3A"/>
<path fill-rule="evenodd" clip-rule="evenodd" d="M159.964 62.1299C152.587 64.6665 150.303 69.1604 146.827 75.5541C144.939 79.0295 147.214 86.0647 148.027 91.1231C149.442 99.9328 151.481 107.87 152.002 103.312L154.493 81.5726L159.964 62.1299Z" fill="#3A3A3A"/>
<path fill-rule="evenodd" clip-rule="evenodd" d="M167.55 102.134C174.697 112.637 168.222 129.433 169.281 142.344C156.183 149.001 136.906 124.648 128.061 127.721C128.061 127.721 133.51 119.547 136.892 114.199C140.274 108.852 147.795 102.216 148.846 98.7078L163.678 101.057L167.55 102.134Z" fill="#3A3A3A"/>
<path fill-rule="evenodd" clip-rule="evenodd" d="M151.894 128.153C152.473 125.428 154.332 117.517 157.489 111.527C160.843 105.159 153.621 117.299 143.539 123.636C146.206 125.081 149.035 126.7 151.894 128.153ZM166.91 101.636C173.817 109.686 168.317 122.042 169.667 131.715C166.999 132.744 163.999 132.599 160.86 131.783C165.149 127.066 167.679 112.237 166.497 109.041C165.235 105.627 161.379 104.038 156.025 101.793C153.594 100.774 150.801 100.359 148.475 100.21C148.991 99.59 149.364 99.0264 149.528 98.539L163.301 100.72L166.91 101.636Z" fill="#3A3A3A"/>
<path fill-rule="evenodd" clip-rule="evenodd" d="M149.428 94.4094C152.417 95.7082 160.461 98.8459 167.55 98.4058C167.51 100.259 167.571 101.865 167.64 102.976C164.433 103.741 158.05 104.074 148.418 99.3028C148.833 97.6944 149.165 96.0488 149.428 94.4094Z" fill="#3A3A3A"/>
<path fill-rule="evenodd" clip-rule="evenodd" d="M161.719 61.0458C161.417 61.0513 160.865 61.1551 160.208 61.3669C159.13 61.7166 156.018 65.3767 153.784 68.3112C150.588 72.5086 150.773 73.9135 151.246 78.3512L151.247 78.359C151.332 79.162 151.426 80.0634 151.513 81.0996C151.502 81.4144 151.487 81.7394 151.466 82.0717C151.573 85.5086 151.5 90.8508 150.463 96.0417C152.535 96.918 154.812 97.7351 157.191 98.3488C160.687 99.2497 163.928 99.3086 166.613 99.0316C166.558 95.2538 166.965 89.5736 169.521 86.036C173.621 80.3591 174.713 73.4669 174.713 73.4669C174.713 73.4669 175.315 73.8723 176.234 74.6L176.505 73.7956C175.97 73.3637 175.209 73.763 176.268 71.7651C177.326 69.767 177.244 66.5171 177.237 66.5012C176.317 65.5119 175.181 64.6844 174.411 64.1786C174.197 64.0382 163.581 61.0089 161.719 61.0458Z" fill="#3A3A3A"/>
<path fill-rule="evenodd" clip-rule="evenodd" d="M151.286 72.8974C150.709 74.6095 150.891 76.1662 151.176 78.7932L151.177 78.801C151.222 79.2145 151.269 79.6537 151.316 80.1241C152.512 80.1588 154.534 80.6682 157.926 82.1467C165.921 85.6325 164.389 95.8352 163.554 99.4757C164.618 99.4838 165.625 99.43 166.565 99.3348C166.505 95.5857 166.906 89.9492 169.457 86.4416C173.549 80.8128 174.633 73.9743 174.633 73.9743C174.633 73.9743 175.235 74.3774 176.155 75.1007L176.425 74.3028C175.89 73.8735 175.129 74.2688 176.185 72.2874C177.241 70.3057 177.155 67.0805 177.148 67.0647C176.226 66.0819 175.09 65.2593 174.319 64.7564C174.255 64.7144 173.241 64.4098 171.808 64.0058L171.137 64.414L169.149 67.0384C169.149 67.0384 170.54 66.8046 171.116 67.0002C171.69 67.1957 171.694 69.4718 171.715 70.1031C171.736 70.7338 170.329 73.6494 168.171 76.8651C166.158 79.8649 154.891 77.4029 151.286 72.8974Z" fill="#3A3A3A"/>
<path fill-rule="evenodd" clip-rule="evenodd" d="M170.302 62.2367C170.406 61.4779 171.092 56.4838 171.092 56.4838L171.527 54.0598C171.527 54.0598 163.423 54.4638 164.077 55.6337C164.705 56.7568 164.464 60.1527 163.219 61.6835C162.492 62.5772 161.894 62.3396 160.905 62.6271L160.901 62.6389L160.898 62.6396C159.621 64.6936 158.722 67.8477 159.034 70.0907C159.969 76.7937 171.521 65.0799 174.927 65.8965C173.763 65.1534 170.111 63.6235 170.302 62.2367Z" fill="#3A3A3A"/>
<path fill-rule="evenodd" clip-rule="evenodd" d="M170.285 61.8332C170.392 61.0618 171.089 55.985 171.089 55.985L171.248 55.1033C170.465 54.5061 169.755 54.0077 169.201 53.6913C166.823 53.9093 163.535 54.3531 163.966 55.122C164.431 55.9553 164.426 58.0209 163.896 59.681C165.75 60.7867 170.14 63.4011 170.781 63.7591C171.341 64.0719 170.561 66.0836 169.373 67.8637C171.697 66.4479 173.812 65.272 174.981 65.5528C173.8 64.7975 170.091 63.2429 170.285 61.8332Z" fill="#3A3A3A"/>
<path fill-rule="evenodd" clip-rule="evenodd" d="M171.919 55.2615L171.913 55.3155L171.913 55.3277L171.908 55.369L171.904 55.4233L171.898 55.478L171.894 55.5324L171.906 55.5038C171.907 55.4212 171.912 55.3405 171.919 55.2615ZM181.149 40.0599C180.736 34.467 174.811 30.7186 172.058 32.9108C172.058 32.9108 170.17 29.201 166.083 32.383C161.549 35.9131 160.224 46.4394 163.595 49.8894C168.859 53.0209 171.8 53.3541 172.144 53.3829C172.591 50.8059 173.636 49.7174 177.339 49.7278C181.117 49.7388 181.292 43.8361 181.25 41.9358C181.227 41.2888 181.193 40.6612 181.149 40.0599Z" fill="#3A3A3A"/>
<path fill-rule="evenodd" clip-rule="evenodd" d="M171.918 55.2598L171.913 55.3143L171.913 55.3266L171.908 55.369L171.902 55.4225L171.904 55.4233L171.898 55.478L171.894 55.5324L171.906 55.5038C171.907 55.4214 171.912 55.3394 171.918 55.2598ZM162.297 38.9716C161.247 43.1262 161.573 47.7828 163.598 49.8663C168.86 53.0101 171.801 53.342 172.146 53.3712C172.594 50.7801 173.641 49.685 177.345 49.6924C180.032 49.6979 180.898 46.6996 181.161 44.2794C171.763 47.4479 169.093 39.5291 169.093 39.5291C162.698 45.3808 162.317 39.902 162.297 38.9716Z" fill="#3A3A3A"/>
<path fill-rule="evenodd" clip-rule="evenodd" d="M163.109 47.0692C161.971 46.8505 160.832 47.9054 160.562 49.4249C160.293 50.9444 160.996 52.353 162.133 52.5709C163.27 52.7905 164.41 51.7348 164.679 50.2153C164.949 48.6965 164.246 47.2872 163.109 47.0692Z" fill="#3A3A3A"/>
<path fill-rule="evenodd" clip-rule="evenodd" d="M173.353 37.3774C169.243 36.6143 165.223 39.6062 164.419 44.0251L163.092 51.3258C162.288 55.7446 164.993 59.9835 169.103 60.7458C173.213 61.5081 177.233 58.5176 178.037 54.0981L179.364 46.7974C180.168 42.3786 177.463 38.1397 173.353 37.3774Z" fill="#3A3A3A"/>
<path fill-rule="evenodd" clip-rule="evenodd" d="M162.31 47.3173L165.343 46.0078C165.343 46.0078 164.963 49.3984 163.02 49.8833L163.226 48.7586C163.329 48.1935 163.18 47.478 162.31 47.3173Z" fill="#3A3A3A"/>
<path fill-rule="evenodd" clip-rule="evenodd" d="M165.189 46.6352C165.148 46.6442 165.106 46.6517 165.064 46.6562L164.021 47.2129L164.111 46.6895L162.823 45.2889L164.011 36.5796L169.048 35.9558L171.965 34.3259L177.207 36.1954C177.207 36.1954 179.706 38.983 179.892 39.5161C179.957 39.7043 180.074 40.6252 180.198 41.7349L181.259 43.7803L180.546 45.1081C180.621 45.87 180.67 46.3976 180.67 46.3976L179.411 47.2192C179.411 47.2192 173.276 45.3508 171.932 44.7054C170.588 44.0592 169.404 42.3718 169.345 40.7214C169.345 40.7214 168.376 46.0563 165.189 46.6352Z" fill="#3A3A3A"/>
<path fill-rule="evenodd" clip-rule="evenodd" d="M165.096 46.6862C165.055 46.6938 165.013 46.7002 164.971 46.7037L163.933 47.1988L164.015 46.7207L162.703 45.4194L163.213 41.6164C164.231 42.1399 166.663 42.2182 169.692 39.624C169.692 39.624 171.79 46.7684 181.163 44.2744L181.177 44.2985L180.481 45.5048C180.567 46.2037 180.623 46.6877 180.623 46.6877L179.372 47.4225C179.372 47.4225 173.191 45.6241 171.833 45.0138C170.475 44.4029 169.264 42.8404 169.181 41.3277C169.181 41.3277 168.285 46.201 165.096 46.6862Z" fill="#3A3A3A"/>
<path fill-rule="evenodd" clip-rule="evenodd" d="M166.28 31.1821C167.98 38.8519 175.43 44.9061 181.714 40.907C181.676 40.416 181.629 39.9384 181.574 39.4769C181.464 38.5222 181.151 37.6209 180.697 36.7959C175.146 40.0085 167.821 37.188 167.763 30.8314C167.312 30.8658 166.817 30.9747 166.28 31.1821Z" fill="#3A3A3A"/>
<path fill-rule="evenodd" clip-rule="evenodd" d="M173.045 72.6459C172.217 78.343 172.961 90.3569 172.914 91.0134C172.866 91.6691 172.684 92.4696 171.776 92.8235C170.867 93.1768 153.735 85.5669 152.938 85.2195C152.141 84.8723 152.3 85.9751 151.755 87.9899C151.755 87.9899 148.362 86.8903 151.762 88.8255C155.162 90.7602 168.839 98.2738 170.811 99.0841C172.785 99.8951 177.735 99.8491 178.746 95.2542C179.758 90.6595 179.385 73.2811 179.304 71.8242C178.949 65.3887 173.875 66.9491 173.045 72.6459Z" fill="#3A3A3A"/>
<path fill-rule="evenodd" clip-rule="evenodd" d="M151.81 87.7862C154.626 89.4616 167.336 96.4712 170.324 97.7991C172.358 98.7031 174.988 98.776 176.868 98.2949C174.946 99.7909 172.148 99.6415 170.781 99.0794C168.811 98.2696 155.155 90.7589 151.76 88.825C148.365 86.8906 151.753 87.9894 151.753 87.9894C151.771 87.9196 151.789 87.8518 151.81 87.7862ZM173.017 72.6406C172.189 78.3379 172.93 90.3516 172.883 91.0082C172.835 91.6639 172.652 92.4644 171.745 92.8186C171.627 92.865 171.25 92.7832 170.688 92.6075L170.69 92.6086C173.44 94.0707 173.941 91.51 173.99 90.5316C174.039 89.5531 174.017 77.2528 174.535 72.301C175.045 67.4302 177.909 68.1307 178.001 68.1549C176.346 66.6267 173.609 68.5856 173.017 72.6406Z" fill="#3A3A3A"/>
<path fill-rule="evenodd" clip-rule="evenodd" d="M150.199 78.9718C150.176 78.9683 149.044 78.7889 148.995 78.7813C148.949 78.7739 148.938 78.7722 148.919 78.7692C148.901 78.7663 148.865 78.7606 148.85 78.7582C148.835 78.7558 148.845 78.7575 148.89 78.7646C148.936 78.7718 150.047 78.9479 150.064 78.9505C150.081 78.9532 150.125 78.9602 150.14 78.9625C150.152 78.9645 150.169 78.9671 150.219 78.9751C150.224 78.9758 150.231 78.977 150.199 78.9718Z" fill="#3A3A3A"/>
<path fill-rule="evenodd" clip-rule="evenodd" d="M148.887 87.2512C148.865 87.2476 147.732 87.0682 147.685 87.0608C147.637 87.0532 147.626 87.0514 147.608 87.0485C147.589 87.0456 147.553 87.0399 147.539 87.0376C147.523 87.0351 147.534 87.0368 147.579 87.044C147.624 87.0511 148.737 87.2274 148.753 87.2299C148.77 87.2327 148.815 87.2397 148.829 87.2419C148.842 87.244 148.857 87.2464 148.907 87.2543C148.913 87.2552 148.92 87.2564 148.887 87.2512Z" fill="#3A3A3A"/>
<path fill-rule="evenodd" clip-rule="evenodd" d="M171.135 62.7416C171.202 62.6975 171.221 62.6073 171.177 62.5403C171.134 62.4729 171.045 62.454 170.979 62.4975C170.968 62.5059 166.939 65.1869 164.107 66.7348L163.723 66.9462C162.855 67.4265 162.178 67.8002 161.75 67.7734C161.291 67.7447 161.092 67.1776 161.193 65.6063C161.28 64.2835 161.58 62.7301 161.759 61.9321C161.798 61.7645 161.83 61.633 161.853 61.545C161.859 61.521 161.86 61.4979 161.855 61.4764C161.879 61.4545 161.897 61.4241 161.902 61.3893C161.915 61.3105 161.861 61.2353 161.783 61.2229C161.694 61.2101 161.621 61.2978 161.575 61.4707C161.55 61.5672 161.516 61.7033 161.479 61.8693C161.297 62.674 160.995 64.2437 160.908 65.5878C160.792 67.3738 161.082 68.0226 161.73 68.0634C162.242 68.0951 162.95 67.7038 163.86 67.2011L164.242 66.9905C167.089 65.4343 171.123 62.7493 171.135 62.7416Z" fill="#3A3A3A"/>
<path fill-rule="evenodd" clip-rule="evenodd" d="M160.941 69.3572C160.561 69.297 160.3 68.9375 160.36 68.5577C160.421 68.1778 160.78 67.9172 161.16 67.9773C161.539 68.0374 161.8 68.3964 161.74 68.7762C161.68 69.1561 161.321 69.4173 160.941 69.3572Z" fill="#3A3A3A"/>
<path fill-rule="evenodd" clip-rule="evenodd" d="M154.871 85.3555C153.732 84.723 153.3 83.9923 152.715 83.2533C151.994 82.3417 151.927 82.0146 151.433 80.8955C151.163 80.2843 150.66 80.4793 150.461 81.0053C150.249 81.5629 150.348 82.4833 150.435 82.8737C150.435 82.8737 150.763 83.5444 150.266 83.5774C150.054 83.591 149.664 83.5355 149.51 83.4773L149.061 86.7249C149.858 86.8524 149.769 86.5273 150.524 86.8138C151.135 87.0442 151.578 87.28 152.009 87.7457L154.871 85.3555Z" fill="#3A3A3A"/>
<path fill-rule="evenodd" clip-rule="evenodd" d="M154.276 87.5331C153.587 87.3672 152.304 87.8397 151.561 87.672C147.314 86.7122 145.871 84.9087 145.72 84.404C145.527 83.7668 146.026 83.9101 146.026 83.9101C146.026 83.9101 145.242 82.8436 145.432 82.5228C145.621 82.2019 145.952 82.331 145.94 82.1759C145.928 82.0202 145.581 81.3792 145.651 81.064C145.723 80.7492 146.462 81.0707 146.462 81.0707C146.462 81.0707 146.269 79.4973 147.16 79.9455C148.051 80.3936 149.785 82.2064 151.002 82.2377C152.219 82.2691 151.678 82.3619 151.678 82.3619C151.678 82.3619 155.785 86.7264 154.276 87.5331Z" fill="#3A3A3A"/>
<path d="M181.492 153.413L119.492 143.594C114.469 142.798 111.277 136.603 112.361 129.757L113.284 123.928L193.473 136.629L192.55 142.458C191.466 149.304 186.515 154.209 181.492 153.413Z" fill="#9151AE"/>
<path d="M201.656 10.888L144.357 1.81266C138.036 0.811557 132.236 4.27187 131.401 9.54146L130.603 14.5798L210.792 27.2805L211.59 22.2421C212.424 16.9725 207.977 11.8891 201.656 10.888Z" fill="#9151AE"/>
<path d="M151.069 144.859C154.089 145.337 156.925 143.277 157.403 140.257C157.881 137.238 155.821 134.402 152.801 133.924C149.782 133.446 146.946 135.506 146.468 138.525C145.99 141.545 148.05 144.38 151.069 144.859Z" fill="white"/>
<path d="M187.966 18.0607C188.972 18.2201 189.918 17.5334 190.077 16.5269C190.236 15.5203 189.55 14.5751 188.543 14.4157C187.537 14.2563 186.591 14.943 186.432 15.9496C186.273 16.9561 186.959 17.9013 187.966 18.0607Z" fill="white"/>
<path d="M162.74 12.1971L180.019 14.9338" stroke="white" stroke-width="1.7" stroke-miterlimit="10" stroke-linecap="round" stroke-linejoin="round"/>
<path d="M210.791 27.2804L130.603 14.5797L113.283 123.928L193.472 136.629L210.791 27.2804Z" fill="url(#paint0_linear)"/>
<path d="M189.87 28.2582L201.292 42.3523" stroke="#9151AE" stroke-width="0.7" stroke-miterlimit="10" stroke-linecap="round" stroke-linejoin="round"/>
<path d="M186.463 33.8619L193.581 42.645" stroke="#9151AE" stroke-width="0.7" stroke-miterlimit="10" stroke-linecap="round" stroke-linejoin="round"/>
<path opacity="0.15" d="M93.0246 151.493C93.3271 153.403 80.2911 157.053 63.9125 159.648C47.5338 162.242 34.0658 162.789 33.7633 160.879C33.4608 158.969 46.4969 155.319 62.8755 152.725C79.2542 150.13 92.7221 149.583 93.0246 151.493Z" fill="#020202"/>
<path d="M68.7443 1.95011L11.4447 11.0255C5.12397 12.0266 0.676597 17.11 1.51122 22.3796L2.30921 27.4179L82.4981 14.7173L81.7001 9.67888C80.8655 4.40929 75.065 0.949007 68.7443 1.95011Z" fill="#9151AE"/>
<path d="M57.9398 13.0024C58.9463 12.8429 59.6331 11.8978 59.4736 10.8912C59.3142 9.8847 58.369 9.19799 57.3625 9.35741C56.356 9.51682 55.6693 10.462 55.8287 11.4685C55.9881 12.4751 56.9333 13.1618 57.9398 13.0024Z" fill="white"/>
<path d="M32.1367 15.221L49.4152 12.4844" stroke="white" stroke-width="1.7" stroke-miterlimit="10" stroke-linecap="round" stroke-linejoin="round"/>
<path d="M44.4453 111.285C43.2411 110.95 42.5526 111.207 42.5526 111.207C41.8799 110.349 40.6068 110.268 39.7661 111.03L39.1705 111.569C38.3924 112.273 38.2703 113.447 38.8916 114.241L38.9274 114.286C38.9274 114.286 40.0054 117.003 42.5145 119.417C45.7555 122.535 48.7694 122.402 49.6936 121.272C50.5673 120.204 46.9433 116.326 45.6156 114.869L47.6976 115.429C47.9621 115.5 48.2486 115.387 48.4054 115.151C48.5736 114.896 48.5491 114.565 48.3459 114.355L46.7345 112.688C46.1033 112.035 45.3249 111.53 44.4453 111.285Z" fill="#3A3A3A"/>
<path d="M75.4129 123.402L43.8069 128.408L42.3383 112.441L71.5311 107.818L75.4129 123.402Z" fill="#3A3A3A"/>
<path d="M43.2112 124.837L45.0246 142.466C45.1609 144.064 48.0895 144.942 51.4867 144.404C54.5626 143.916 56.9705 142.428 57.066 140.954L58.0898 122.968C58.2271 120.857 54.509 119.626 50.1024 120.324C46.099 120.958 43.0505 122.954 43.2112 124.837Z" fill="#3A3A3A"/>
<path d="M74.8756 119.821L78.5991 137.149C78.9627 138.71 76.4487 140.45 73.051 140.988C69.9759 141.475 67.2258 140.803 66.6796 139.431L60.1479 122.642C59.3652 120.676 62.5203 118.357 66.9272 117.659C70.9303 117.025 74.4471 117.981 74.8756 119.821Z" fill="#3A3A3A"/>
<path d="M43.3687 112.9L33.7613 97.6282C32.9225 96.2744 30.8822 97.0388 29.4287 99.2513C28.1154 101.25 27.8045 103.651 28.7304 104.639L40.4848 117.051L43.3687 112.9Z" fill="#3A3A3A"/>
<path d="M29.7248 75.8913C29.4215 81.9292 28.6299 95.9248 28.2786 102.094C28.182 103.795 29.7939 105.116 31.9803 105.128C34.2982 105.141 36.4066 103.684 36.6854 101.876L40.78 75.3185C40.9626 72.8555 38.4264 71.0216 35.239 71.312C32.2723 71.5823 29.84 73.6017 29.7248 75.8913Z" fill="#3A3A3A"/>
<path d="M43.646 76.2525C43.0014 72.1828 39.1755 69.4062 35.1008 70.0515C31.4856 70.6241 28.8951 73.6988 28.8055 77.2269L28.7996 77.2264L27.93 92.0897L42.7699 93.136L43.6598 78.5059C43.7669 77.7764 43.7674 77.019 43.646 76.2525Z" fill="#3A3A3A"/>
<path d="M77.5574 117.203C77.951 115.956 78.5492 115.51 78.5492 115.51C78.2124 114.414 78.8553 113.257 79.9568 112.979L80.7364 112.782C81.7557 112.524 82.7974 113.116 83.1104 114.129L83.1285 114.188C83.1285 114.188 84.7817 116.743 85.386 120.363C86.1657 125.04 84.3738 127.583 82.9194 127.715C81.5463 127.84 80.3488 122.378 79.8797 120.355L79.1828 122.5C79.0944 122.772 78.8406 122.955 78.557 122.951C78.2519 122.946 77.991 122.727 77.9296 122.425L77.4452 120.031C77.2549 119.093 77.2701 118.115 77.5574 117.203Z" fill="#3A3A3A"/>
<path d="M78.7193 114.857L72.3621 98.4866C71.7905 97.0452 73.6021 95.9188 76.2086 96.0946C78.5629 96.2529 80.6411 97.4209 80.8722 98.715L83.7022 115.065L78.7193 114.857Z" fill="#3A3A3A"/>
<path d="M71.838 70.9285C73.789 77.0343 78.3942 91.1617 80.4257 97.3886C80.9855 99.1052 79.8581 100.928 77.837 101.575C75.6933 102.261 73.3371 101.378 72.5792 99.6041L61.4399 73.5487C60.5897 71.0751 62.4312 68.4579 65.4642 67.8309C68.2863 67.2474 71.098 68.6131 71.838 70.9285Z" fill="#3A3A3A"/>
<path d="M58.4613 73.906C57.8167 69.8363 60.5974 66.0133 64.6719 65.3679C68.2876 64.7953 71.7014 66.9189 72.8765 70.2467L72.8826 70.2443L78.3021 84.1115L64.5119 89.6924L59.145 76.0533C58.8175 75.3926 58.5827 74.6725 58.4613 73.906Z" fill="#3A3A3A"/>
<path d="M54.9903 61.839L49.5383 62.7839L44.2054 63.5472L33.5878 70.2799L42.4911 112.417L71.7225 107.787L67.1692 64.9611L54.9903 61.839Z" fill="#3A3A3A"/>
<path d="M58.7664 63.0472L54.7844 61.8716L49.5278 62.7901L44.4115 63.5146L40.988 65.8631C40.988 65.8631 42.0933 70.9177 50.6058 69.6192L50.606 69.6207L50.7439 69.5989L50.7437 69.5974C59.2413 68.2018 58.7664 63.0472 58.7664 63.0472Z" fill="#3A3A3A"/>
<path d="M50.5364 68.6193C47.264 69.1376 44.1852 66.8719 43.6605 63.5591L41.6383 50.7917L53.4906 48.9145L55.5127 61.6819C56.0374 64.9947 53.8095 68.1009 50.5364 68.6193Z" fill="#3A3A3A"/>
<path d="M37.7849 47.2521L36.1508 40.9054C34.7083 36.9102 37.4677 34.2404 40.1822 33.8105L49.585 32.3212C52.4642 31.8652 56.2367 33.4838 55.512 38.3586L55.7847 45.5138L37.7849 47.2521Z" fill="#3A3A3A"/>
<path d="M55.4381 47.3949C57.509 48.4596 59.74 41.7726 57.7 40.596C55.66 39.4186 54.8895 42.2909 54.8895 42.2909L55.2042 44.5697L55.276 46.7397L55.2774 47.4111L55.4381 47.3949Z" fill="#3A3A3A"/>
<path d="M57.3588 42.2825C57.3431 42.2798 57.1689 42.2573 56.9084 42.2986C56.3304 42.382 55.3385 42.8226 54.8181 44.38C54.7837 44.4804 54.8444 44.5857 54.9529 44.6141C55.0618 44.6426 55.178 44.5844 55.2122 44.4833C55.7121 43.0388 56.5207 42.751 56.9677 42.6728C57.0697 42.6567 57.1528 42.6531 57.2092 42.6537L57.2716 42.6564L57.2855 42.6578C57.3981 42.6731 57.506 42.6023 57.5257 42.4983C57.5463 42.3949 57.4715 42.2985 57.3588 42.2825Z" fill="#3A3A3A"/>
<path d="M55.7985 43.7879L55.8237 43.7981C55.8867 43.8237 56.0558 43.9015 56.2107 44.0289C56.3674 44.1572 56.5032 44.3281 56.5363 44.5406C56.5611 44.7015 56.5345 44.9 56.389 45.1561C56.3463 45.2317 56.3712 45.3286 56.4449 45.3729C56.5184 45.4172 56.6125 45.3925 56.6557 45.3174C56.8288 45.0151 56.879 44.7347 56.84 44.4925C56.7804 44.1237 56.5345 43.8755 56.3201 43.7194C56.1033 43.5632 55.9067 43.4928 55.8985 43.4898C55.8178 43.4608 55.7302 43.5042 55.7025 43.5867C55.675 43.6685 55.7179 43.7589 55.7985 43.7879Z" fill="#3A3A3A"/>
<path d="M39.3168 49.9482C37.6767 51.6013 33.4874 45.9282 35.0637 44.1781C36.6402 42.4272 38.205 44.9597 38.205 44.9597L38.6659 47.1877L39.2684 49.2746L39.4743 49.9139L39.3168 49.9482Z" fill="#3A3A3A"/>
<path d="M36.0951 46.0141C36.1109 46.0064 36.2242 45.9575 36.4028 45.93C36.8515 45.8663 37.7099 45.8901 38.6319 47.1093C38.6957 47.1949 38.8238 47.2144 38.9186 47.1537C39.013 47.0931 39.0382 46.9743 38.9745 46.8894C37.9985 45.569 36.9186 45.4565 36.3435 45.5557C36.0826 45.5971 35.9241 45.6722 35.9096 45.6797C35.8077 45.729 35.7665 45.8445 35.8179 45.9365C35.8691 46.0292 35.9933 46.0633 36.0951 46.0141Z" fill="#3A3A3A"/>
<path d="M37.6722 46.3766C37.6654 46.382 37.4999 46.5096 37.3421 46.7253C37.1863 46.94 37.0293 47.2526 37.0863 47.6212C37.1243 47.8636 37.2587 48.1147 37.5167 48.3487C37.5806 48.4069 37.678 48.4013 37.7343 48.3364C37.7904 48.2715 37.7842 48.1717 37.7202 48.113C37.5031 47.9143 37.4166 47.7343 37.3903 47.573C37.3509 47.3314 37.4575 47.0969 37.5893 46.9161C37.6545 46.8271 37.7236 46.754 37.7757 46.7033L37.8382 46.6467L37.8593 46.6292C37.9267 46.5767 37.9398 46.4775 37.8881 46.4082C37.8364 46.3383 37.7399 46.3241 37.6722 46.3766Z" fill="#3A3A3A"/>
<path d="M54.1366 40.2483C54.7395 44.0548 54.7641 47.4178 54.6382 49.8274C54.5153 52.1865 53.467 54.3949 51.7436 55.9838L51.4294 56.2736C49.6058 57.9548 46.9763 58.4033 44.6988 57.4225C42.4019 56.4332 40.6009 54.526 39.7632 52.1483C38.2396 47.8233 37.3689 42.9041 37.3689 42.9041C37.3689 42.9041 35.0685 33.4192 44.1408 32.1738C53.2133 30.9283 54.1366 40.2483 54.1366 40.2483Z" fill="#3A3A3A"/>
<path d="M55.0666 39.7295C55.6462 43.3896 55.6217 46.6309 55.4525 48.9554C55.2871 51.2312 54.1465 53.3757 52.3019 54.9332L51.9656 55.2172C50.0138 56.8652 47.2292 57.3371 44.8379 56.4258C42.4262 55.5068 40.5522 53.6955 39.703 51.4162C38.1584 47.2701 37.3124 42.5415 37.3124 42.5415C37.3124 42.5415 35.0248 33.4334 44.6279 32.0965C54.2312 30.7596 55.0666 39.7295 55.0666 39.7295Z" fill="#3A3A3A"/>
<path d="M53.3123 28.7476C49.981 27.1363 44.2831 29.5346 41.2823 31.5022C41.1996 30.5425 40.6221 30.7403 40.6221 30.7403C35.1761 33.1419 37.3651 37.3073 37.3651 37.3073L37.4241 37.3252C37.0305 38.6859 36.6871 41.5064 38.1898 46.2756C38.1898 46.2756 38.8592 40.7514 38.4014 37.5922C41.0959 38.2855 48.4279 39.8481 52.6998 37.6475C53.5717 40.2692 55.305 43.5648 55.305 43.5648C55.2759 40.3247 54.7202 38.0985 54.158 36.6205C54.4045 36.3846 54.6355 36.1317 54.836 35.8471C54.836 35.8471 58.0326 31.0298 53.3123 28.7476Z" fill="#3A3A3A"/>
<path d="M44.2741 42.0532L44.0247 40.2891L41.2004 40.796C40.8438 40.8606 40.5225 41.0635 40.2901 41.3716L39.3991 43.0467L41.2254 42.4274L44.2741 42.0532Z" fill="#3A3A3A"/>
<path d="M48.2835 41.4182L47.9755 39.6634L50.8184 39.2727C51.1773 39.2239 51.5456 39.3176 51.8618 39.5388L53.2268 40.8566L51.2985 40.832L48.2835 41.4182Z" fill="#3A3A3A"/>
<path d="M53.2268 40.8566L51.0831 40.9066L48.2559 41.4342C48.8341 40.8413 49.6286 40.414 50.5453 40.2688C51.3504 40.1413 52.1327 40.2497 52.8078 40.5389L53.2268 40.8566Z" fill="#3A3A3A"/>
<path d="M39.3991 43.0467C39.9683 42.3298 40.8143 41.8101 41.8121 41.652C42.7131 41.5093 43.5876 41.6852 44.3106 42.0941L41.1961 42.4949L39.3991 43.0467Z" fill="#3A3A3A"/>
<path d="M93.6089 143.731L31.6089 153.551C26.5862 154.346 21.6355 149.441 20.5512 142.596L19.6279 136.766L99.8168 124.066L100.74 129.895C101.824 136.741 98.6316 142.935 93.6089 143.731Z" fill="#9151AE"/>
<path d="M62.0323 144.996C65.0519 144.518 67.1121 141.682 66.6338 138.663C66.1556 135.643 63.32 133.583 60.3004 134.061C57.2809 134.539 55.2207 137.375 55.699 140.394C56.1772 143.414 59.0128 145.474 62.0323 144.996Z" fill="white"/>
<path d="M82.4985 14.7172L2.30957 27.4178L19.6287 136.766L99.8176 124.066L82.4985 14.7172Z" fill="url(#paint1_linear)"/>
<path d="M62.9037 22.1121L78.1218 31.9868" stroke="#9151AE" stroke-width="0.7" stroke-miterlimit="10" stroke-linecap="round" stroke-linejoin="round"/>
<path d="M61.3936 28.4947L70.8772 34.6483" stroke="#9151AE" stroke-width="0.7" stroke-miterlimit="10" stroke-linecap="round" stroke-linejoin="round"/>
<defs>
<linearGradient id="paint0_linear" x1="170.697" y1="20.93" x2="153.378" y2="130.279" gradientUnits="userSpaceOnUse">
<stop stop-color="#CFCFCF"/>
<stop offset="1" stop-color="#E1E0E0" stop-opacity="0.52"/>
</linearGradient>
<linearGradient id="paint1_linear" x1="42.404" y1="21.0675" x2="59.7231" y2="130.416" gradientUnits="userSpaceOnUse">
<stop stop-color="#CFCFCF"/>
<stop offset="1" stop-color="#E1E0E0" stop-opacity="0.52"/>
</linearGradient>
</defs>
</svg>
